<svg xmlns="http://www.w3.org/2000/svg" xmlns:xlink="http://www.w3.org/1999/xlink" width="99.117" height="92.146" viewBox="0 0 99.117 92.146">
  <defs>
    <clipPath id="clip-path">
      <rect id="Retângulo_121" data-name="Retângulo 121" width="99.117" height="92.146" transform="translate(0 0)" fill="none"/>
    </clipPath>
  </defs>
  <g id="abaco_umcdu" transform="translate(0 0)">
    <g id="Grupo_973" data-name="Grupo 973">
      <g id="Grupo_972" data-name="Grupo 972" clip-path="url(#clip-path)">
        <path id="Caminho_982" data-name="Caminho 982" d="M61.775,72.276V2.127a2.126,2.126,0,1,0-4.252,0V72.276Z" fill="#6eafe2"/>
        <path id="Caminho_983" data-name="Caminho 983" d="M82.331,72.276V2.127a2.126,2.126,0,1,0-4.252,0V72.276Z" fill="#6eafe2"/>
        <path id="Caminho_984" data-name="Caminho 984" d="M41.153,72.276V2.127a2.126,2.126,0,1,0-4.252,0V72.276Z" fill="#6eafe2"/>
        <path id="Caminho_985" data-name="Caminho 985" d="M20.564,72.276V2.127a2.126,2.126,0,1,0-4.252,0V72.276Z" fill="#6eafe2"/>
        <path id="Caminho_986" data-name="Caminho 986" d="M92.048,91.1H7.27a4.032,4.032,0,0,1-3.725-2.488l-3-11.071a4.031,4.031,0,0,1,3.724-5.573H95.048a4.03,4.03,0,0,1,3.724,5.573l-3,11.071A4.031,4.031,0,0,1,92.048,91.1" fill="#0064b3"/>
        <path id="Caminho_987" data-name="Caminho 987" d="M.311,76.153C5.942,93.849.338,90.651,17,91.524c6.3-.562,70.95,1.615,76.683-.777,3.139-1.309,5-10.576,5.108-15.855-1.13-2.68-3.131-3.376-8.356-2.927-4.213.361-36.5.378-39.465.257-2.172-.09-36.581-.194-40.553-.257-7.974-.126-11.591.292-9.658,6.325C2.084,84.11,3,88.7,5.608,90.08c3.427,1.816,35.591.118,46.581.526,5.977-.452,43.761,2.611,44.255-6.291.709-3.152,3.587-7.089,1.892-9.964.725,1.23-.149,5.118-.646,7.18-.822,2.493-1.534,4.961-3.4,6.94-1.607,1.884-3.817,1.611-6.383,1.887-5.15.556-67.976.116-73.127.957,5.908-.746,69.494,1.171,75.318-.217,1.772-.174,3.721-.172,4.6-1.959,1.36-3.521,6.962-15.763,1.024-16.925" fill="none" stroke="#6eafe2" stroke-linecap="round" stroke-linejoin="round" stroke-width="0.5"/>
        <path id="Caminho_988" data-name="Caminho 988" d="M.311,75.952C5.942,93.322.338,90.184,17,91.041c6.3-.553,70.93,1.536,76.683-.763,2.7-1.079,5-10.382,5.108-15.564-1.13-2.631-3.131-3.314-8.356-2.873-4.213.355-36.5.372-39.465.252C48.8,72,14.391,71.9,10.419,71.841c-7.974-.124-11.591.286-9.658,6.209,1.319,5.692,2.986,11.121,5.76,12.028,2.865.937,34.658-.34,45.668.061,5.977-.443,40.338,4.617,43.914-4.911,1.116-2.972,3.928-8.223,2.233-11.045.725,1.208-.149,5.024-.646,7.048-.822,2.447-1.382,5.027-3.4,6.813-1.228,1.086-2.579,1.358-6.323,1.872-5.815.8-68.036.094-73.187.919,5.908-.733,69.494,1.149,75.318-.214,1.772-.17,3.721-.168,4.6-1.922,1.36-3.456,6.962-15.473,1.024-16.614" fill="none" stroke="#6eafe2" stroke-linecap="round" stroke-linejoin="round" stroke-width="0.5"/>
      </g>
    </g>
    <path id="Caminho_997" data-name="Caminho 997" d="M4.056,0c1.548,0,3.3-.96,3.3-2.268a.979.979,0,0,0-.96-1c-.732,0-1.1.852-2.22.852a1.622,1.622,0,0,1-1.6-1.8A1.66,1.66,0,0,1,4.248-6.048a2.521,2.521,0,0,1,.984.18,3.459,3.459,0,0,0,.912.276c.528,0,.888-.576.888-1.116,0-1-1.32-1.692-2.88-1.692C1.488-8.4.24-6.3.24-4.056A3.787,3.787,0,0,0,4.056,0Z" transform="matrix(1, 0.021, -0.021, 1, 34.759, 84.863)" fill="#004c9b"/>
    <g id="Grupo_975" data-name="Grupo 975">
      <g id="Grupo_974" data-name="Grupo 974" clip-path="url(#clip-path)">
        <path id="Caminho_989" data-name="Caminho 989" d="M38.814,84.949c1.548.033,3.32-.889,3.348-2.2a.979.979,0,0,0-.938-1.017c-.732-.016-1.122.828-2.239.8a1.622,1.622,0,0,1-1.556-1.834,1.66,1.66,0,0,1,1.707-1.8,2.533,2.533,0,0,1,.98.2,3.485,3.485,0,0,0,.906.3c.527.011.9-.558.912-1.1.021-1-1.284-1.72-2.844-1.753-2.663-.058-3.956,2.016-4,4.259A3.788,3.788,0,0,0,38.814,84.949Z" fill="none" stroke="#fff" stroke-miterlimit="10" stroke-width="0.75"/>
      </g>
    </g>
    <path id="Caminho_996" data-name="Caminho 996" d="M2.664,0C5.7,0,7.128-1.932,7.128-4.068c0-2.424-1.812-4.32-4.848-4.32-1.308,0-1.86.18-1.86,1.344v5.388C.42-.252,1.38,0,2.664,0ZM3.18-2.6a1.721,1.721,0,0,1-.612-.1V-5.88a1.781,1.781,0,0,1,.66-.108A1.551,1.551,0,0,1,4.68-4.344C4.68-3.372,4.176-2.6,3.18-2.6Z" transform="matrix(1, 0.021, -0.021, 1, 55.364, 84.867)" fill="#ba000a"/>
    <g id="Grupo_977" data-name="Grupo 977">
      <g id="Grupo_976" data-name="Grupo 976" clip-path="url(#clip-path)">
        <path id="Caminho_990" data-name="Caminho 990" d="M58.6,82.331a1.7,1.7,0,0,1-.61-.109l.068-3.179a1.807,1.807,0,0,1,.663-.1,1.553,1.553,0,0,1,1.416,1.675C60.115,81.6,59.594,82.353,58.6,82.331Zm-.572,2.592c3.036.065,4.5-1.835,4.55-3.972.053-2.423-1.718-4.357-4.754-4.422-1.307-.028-1.863.14-1.888,1.3l-.116,5.387C55.789,84.624,56.743,84.9,58.027,84.923Z" fill="none" stroke="#fff" stroke-miterlimit="10" stroke-width="0.75"/>
      </g>
    </g>
    <path id="Caminho_995" data-name="Caminho 995" d="M3.516.024c2.532,0,3.216-2.136,3.324-4.308A8.867,8.867,0,0,0,6.564-7.1a1.054,1.054,0,0,0-1.092-.732,1.022,1.022,0,0,0-1.02.972c-.1.552-.036,2.1-.108,2.736-.048.492-.072,1.452-.636,1.452-.528,0-.6-1.02-.6-1.452,0-1.032.072-1.992.072-2.664,0-1-.288-1.584-1.1-1.584A1.486,1.486,0,0,0,.5-7.188,10.076,10.076,0,0,0,.42-5.676,19.847,19.847,0,0,0,.552-3.132C.744-1.644,1.5.024,3.516.024Z" transform="matrix(1, 0.021, -0.021, 1, 75.897, 84.867)" fill="#468f24"/>
    <g id="Grupo_979" data-name="Grupo 979">
      <g id="Grupo_978" data-name="Grupo 978" clip-path="url(#clip-path)">
        <path id="Caminho_991" data-name="Caminho 991" d="M79.412,84.967c2.531.055,3.261-2.066,3.416-4.236a8.883,8.883,0,0,0-.216-2.825,1.052,1.052,0,0,0-1.075-.755A1.022,1.022,0,0,0,80.5,78.1c-.107.551-.081,2.1-.166,2.733-.059.491-.1,1.45-.667,1.439-.528-.012-.578-1.034-.569-1.465.022-1.031.115-1.99.13-2.662.021-1-.254-1.59-1.07-1.608a1.487,1.487,0,0,0-1.6,1.155,10,10,0,0,0-.117,1.51,19.749,19.749,0,0,0,.077,2.546C76.676,83.24,77.4,84.923,79.412,84.967Z" fill="none" stroke="#fff" stroke-miterlimit="10" stroke-width="0.75"/>
      </g>
    </g>
    <path id="Caminho_994" data-name="Caminho 994" d="M3.516.024c2.532,0,3.216-2.136,3.324-4.308A8.867,8.867,0,0,0,6.564-7.1a1.054,1.054,0,0,0-1.092-.732,1.022,1.022,0,0,0-1.02.972c-.1.552-.036,2.1-.108,2.736-.048.492-.072,1.452-.636,1.452-.528,0-.6-1.02-.6-1.452,0-1.032.072-1.992.072-2.664,0-1-.288-1.584-1.1-1.584A1.486,1.486,0,0,0,.5-7.188,10.076,10.076,0,0,0,.42-5.676,19.847,19.847,0,0,0,.552-3.132C.744-1.644,1.5.024,3.516.024ZM14.8.012c.492,0,.96-.1,1.08-.708A27.79,27.79,0,0,0,15.8-4.968c-.1-1.608-.3-3.072-1.548-3.072a1.07,1.07,0,0,0-.924.5c-.636.9-1.08,2.868-1.476,2.868-.348,0-.876-1.932-1.332-2.868a1.215,1.215,0,0,0-1.08-.744c-.7,0-1.128.516-1.368,1.656a33.888,33.888,0,0,0-.384,5.556C7.692-.252,8-.012,8.6-.012a1.375,1.375,0,0,0,1-.312c.336-.336.312-1.032.324-1.7.012-.348.012-.852.024-1.116.012-.192.12-.216.216-.048.324.648.756,1.872,1.584,1.872.792,0,1.284-1.488,1.536-1.992.108-.18.2-.12.2.036a12.918,12.918,0,0,0,.108,2.04C13.7-.54,13.872.012,14.8.012Z" transform="matrix(1, 0.021, -0.021, 1, 10.263, 84.692)" fill="#468f24"/>
    <g id="Grupo_981" data-name="Grupo 981">
      <g id="Grupo_980" data-name="Grupo 980" clip-path="url(#clip-path)">
        <path id="Caminho_992" data-name="Caminho 992" d="M13.777,84.791c2.531.055,3.261-2.066,3.416-4.236a8.881,8.881,0,0,0-.215-2.825,1.053,1.053,0,0,0-1.076-.755,1.021,1.021,0,0,0-1.041.949c-.108.551-.081,2.1-.167,2.733-.059.491-.1,1.45-.667,1.439-.527-.012-.578-1.034-.568-1.465.022-1.031.115-1.99.129-2.662.022-1-.254-1.59-1.07-1.608a1.487,1.487,0,0,0-1.6,1.155,10.129,10.129,0,0,0-.117,1.51,20.116,20.116,0,0,0,.077,2.546C11.042,83.064,11.761,84.747,13.777,84.791Z" fill="none" stroke="#fff" stroke-miterlimit="10" stroke-width="0.75"/>
        <path id="Caminho_993" data-name="Caminho 993" d="M25.055,85.021c.492.011.962-.075,1.095-.684a27.807,27.807,0,0,0,.02-4.272c-.061-1.61-.234-3.078-1.482-3.106a1.068,1.068,0,0,0-.934.485c-.656.887-1.142,2.845-1.537,2.836-.349-.007-.835-1.95-1.271-2.9a1.217,1.217,0,0,0-1.063-.767c-.7-.015-1.14.492-1.4,1.627a33.884,33.884,0,0,0-.5,5.547c-.017.816.29,1.062.89,1.075a1.383,1.383,0,0,0,1-.29c.342-.329.333-1.026.359-1.7.02-.347.031-.851.048-1.115.017-.191.125-.214.218-.044.31.656.715,1.889,1.543,1.907.792.016,1.316-1.46,1.579-1.958.112-.179.206-.117.2.039a12.811,12.811,0,0,0,.065,2.043C23.975,84.447,24.132,85,25.055,85.021Z" fill="none" stroke="#fff" stroke-miterlimit="10" stroke-width="0.75"/>
      </g>
    </g>
  </g>
</svg>
