<svg id="abaco_completo" xmlns="http://www.w3.org/2000/svg" xmlns:xlink="http://www.w3.org/1999/xlink" width="187.311" height="114.393" viewBox="0 0 187.311 114.393">
  <defs>
    <clipPath id="clip-path">
      <rect id="Retângulo_110" data-name="Retângulo 110" width="187.311" height="114.393" transform="translate(0 0)" fill="none"/>
    </clipPath>
  </defs>
  <g id="Grupo_950" data-name="Grupo 950">
    <g id="Grupo_949" data-name="Grupo 949" clip-path="url(#clip-path)">
      <path id="Caminho_945" data-name="Caminho 945" d="M187.007,78.11c.054-2.95-.851-5.573-3.724-5.573H4.1C1.23,72.537.55,74.663.379,78.11l1,11.137H186.005Z" fill="#0066b0"/>
      <path id="Caminho_946" data-name="Caminho 946" d="M1.381,89.247l2,22.206A4.031,4.031,0,0,0,7.1,113.942h173.18a4.031,4.031,0,0,0,3.724-2.489l2-22.206Z" fill="#0f498c"/>
    </g>
  </g>
  <path id="Caminho_975" data-name="Caminho 975" d="M4.056,0c1.548,0,3.3-.96,3.3-2.268a.979.979,0,0,0-.96-1c-.732,0-1.1.852-2.22.852a1.622,1.622,0,0,1-1.6-1.8A1.66,1.66,0,0,1,4.248-6.048a2.521,2.521,0,0,1,.984.18,3.459,3.459,0,0,0,.912.276c.528,0,.888-.576.888-1.116,0-1-1.32-1.692-2.88-1.692C1.488-8.4.24-6.3.24-4.056A3.787,3.787,0,0,0,4.056,0Z" transform="matrix(1, 0.021, -0.021, 1, 130.763, 85.901)" fill="#0d509a"/>
  <g id="Grupo_952" data-name="Grupo 952">
    <g id="Grupo_951" data-name="Grupo 951" clip-path="url(#clip-path)">
      <path id="Caminho_947" data-name="Caminho 947" d="M134.817,85.988c1.548.033,3.32-.889,3.348-2.2a.979.979,0,0,0-.938-1.017c-.732-.016-1.122.828-2.239.8a1.622,1.622,0,0,1-1.556-1.834,1.66,1.66,0,0,1,1.707-1.8,2.533,2.533,0,0,1,.98.2,3.486,3.486,0,0,0,.906.3c.527.011.9-.558.912-1.1.021-1-1.284-1.72-2.844-1.753-2.663-.058-3.956,2.016-4,4.259A3.788,3.788,0,0,0,134.817,85.988Z" fill="none" stroke="#fff" stroke-miterlimit="10" stroke-width="0.75"/>
    </g>
  </g>
  <path id="Caminho_973" data-name="Caminho 973" d="M2.664,0C5.7,0,7.128-1.932,7.128-4.068c0-2.424-1.812-4.32-4.848-4.32-1.308,0-1.86.18-1.86,1.344v5.388C.42-.252,1.38,0,2.664,0ZM3.18-2.6a1.721,1.721,0,0,1-.612-.1V-5.88a1.781,1.781,0,0,1,.66-.108A1.551,1.551,0,0,1,4.68-4.344C4.68-3.372,4.176-2.6,3.18-2.6Z" transform="matrix(1, 0.021, -0.021, 1, 151.367, 85.904)" fill="#aa0315"/>
  <g id="Grupo_954" data-name="Grupo 954">
    <g id="Grupo_953" data-name="Grupo 953" clip-path="url(#clip-path)">
      <path id="Caminho_948" data-name="Caminho 948" d="M154.6,83.368a1.7,1.7,0,0,1-.61-.109l.068-3.179a1.807,1.807,0,0,1,.663-.1,1.553,1.553,0,0,1,1.416,1.675C156.118,82.632,155.6,83.39,154.6,83.368Zm-.572,2.592c3.036.065,4.5-1.835,4.55-3.972.053-2.423-1.718-4.357-4.754-4.422-1.307-.028-1.863.14-1.888,1.3l-.116,5.387C151.792,85.661,152.746,85.933,154.03,85.96Z" fill="none" stroke="#fff" stroke-miterlimit="10" stroke-width="0.75"/>
    </g>
  </g>
  <path id="Caminho_974" data-name="Caminho 974" d="M3.516.024c2.532,0,3.216-2.136,3.324-4.308A8.867,8.867,0,0,0,6.564-7.1a1.054,1.054,0,0,0-1.092-.732,1.022,1.022,0,0,0-1.02.972c-.1.552-.036,2.1-.108,2.736-.048.492-.072,1.452-.636,1.452-.528,0-.6-1.02-.6-1.452,0-1.032.072-1.992.072-2.664,0-1-.288-1.584-1.1-1.584A1.486,1.486,0,0,0,.5-7.188,10.076,10.076,0,0,0,.42-5.676,19.847,19.847,0,0,0,.552-3.132C.744-1.644,1.5.024,3.516.024Z" transform="matrix(1, 0.021, -0.021, 1, 171.9, 85.905)" fill="#4a912e"/>
  <g id="Grupo_956" data-name="Grupo 956">
    <g id="Grupo_955" data-name="Grupo 955" clip-path="url(#clip-path)">
      <path id="Caminho_949" data-name="Caminho 949" d="M175.415,86c2.531.055,3.261-2.066,3.416-4.236a8.883,8.883,0,0,0-.216-2.825,1.052,1.052,0,0,0-1.075-.755,1.022,1.022,0,0,0-1.042.949c-.107.551-.081,2.1-.166,2.733-.059.491-.1,1.45-.667,1.439-.528-.012-.578-1.034-.569-1.465.022-1.031.115-1.99.13-2.662.021-1-.254-1.59-1.07-1.608a1.487,1.487,0,0,0-1.6,1.155,10,10,0,0,0-.117,1.51,19.748,19.748,0,0,0,.077,2.546C172.679,84.277,173.4,85.96,175.415,86Z" fill="none" stroke="#fff" stroke-miterlimit="10" stroke-width="0.75"/>
    </g>
  </g>
  <path id="Caminho_977" data-name="Caminho 977" d="M4.056,0c1.548,0,3.3-.96,3.3-2.268a.979.979,0,0,0-.96-1c-.732,0-1.1.852-2.22.852a1.622,1.622,0,0,1-1.6-1.8A1.66,1.66,0,0,1,4.248-6.048a2.521,2.521,0,0,1,.984.18,3.459,3.459,0,0,0,.912.276c.528,0,.888-.576.888-1.116,0-1-1.32-1.692-2.88-1.692C1.488-8.4.24-6.3.24-4.056A3.787,3.787,0,0,0,4.056,0Z" transform="matrix(1, 0.021, -0.021, 1, 70.608, 85.901)" fill="#0d509a"/>
  <g id="Grupo_958" data-name="Grupo 958">
    <g id="Grupo_957" data-name="Grupo 957" clip-path="url(#clip-path)">
      <path id="Caminho_950" data-name="Caminho 950" d="M74.664,85.988c1.548.033,3.32-.889,3.348-2.2a.979.979,0,0,0-.938-1.017c-.732-.016-1.122.828-2.239.8a1.622,1.622,0,0,1-1.556-1.834,1.66,1.66,0,0,1,1.707-1.8,2.533,2.533,0,0,1,.98.2,3.486,3.486,0,0,0,.906.3c.527.011.9-.558.912-1.1.021-1-1.284-1.72-2.844-1.753-2.663-.058-3.956,2.016-4,4.259A3.788,3.788,0,0,0,74.664,85.988Z" fill="none" stroke="#fff" stroke-miterlimit="10" stroke-width="0.75"/>
    </g>
  </g>
  <path id="Caminho_978" data-name="Caminho 978" d="M2.664,0C5.7,0,7.128-1.932,7.128-4.068c0-2.424-1.812-4.32-4.848-4.32-1.308,0-1.86.18-1.86,1.344v5.388C.42-.252,1.38,0,2.664,0ZM3.18-2.6a1.721,1.721,0,0,1-.612-.1V-5.88a1.781,1.781,0,0,1,.66-.108A1.551,1.551,0,0,1,4.68-4.344C4.68-3.372,4.176-2.6,3.18-2.6Z" transform="matrix(1, 0.021, -0.021, 1, 91.213, 85.904)" fill="#aa0315"/>
  <g id="Grupo_960" data-name="Grupo 960">
    <g id="Grupo_959" data-name="Grupo 959" clip-path="url(#clip-path)">
      <path id="Caminho_951" data-name="Caminho 951" d="M94.449,83.368a1.7,1.7,0,0,1-.61-.109l.068-3.179a1.8,1.8,0,0,1,.662-.1,1.551,1.551,0,0,1,1.416,1.675C95.965,82.632,95.443,83.39,94.449,83.368Zm-.572,2.592c3.035.065,4.5-1.835,4.549-3.972.053-2.423-1.718-4.357-4.753-4.422-1.307-.028-1.863.14-1.888,1.3l-.116,5.387C91.638,85.661,92.592,85.933,93.877,85.96Z" fill="none" stroke="#fff" stroke-miterlimit="10" stroke-width="0.75"/>
    </g>
  </g>
  <path id="Caminho_976" data-name="Caminho 976" d="M3.516.024c2.532,0,3.216-2.136,3.324-4.308A8.867,8.867,0,0,0,6.564-7.1a1.054,1.054,0,0,0-1.092-.732,1.022,1.022,0,0,0-1.02.972c-.1.552-.036,2.1-.108,2.736-.048.492-.072,1.452-.636,1.452-.528,0-.6-1.02-.6-1.452,0-1.032.072-1.992.072-2.664,0-1-.288-1.584-1.1-1.584A1.486,1.486,0,0,0,.5-7.188,10.076,10.076,0,0,0,.42-5.676,19.847,19.847,0,0,0,.552-3.132C.744-1.644,1.5.024,3.516.024Z" transform="matrix(1, 0.021, -0.021, 1, 111.746, 85.905)" fill="#4a912e"/>
  <g id="Grupo_962" data-name="Grupo 962">
    <g id="Grupo_961" data-name="Grupo 961" clip-path="url(#clip-path)">
      <path id="Caminho_952" data-name="Caminho 952" d="M115.261,86c2.531.055,3.261-2.066,3.416-4.236a8.883,8.883,0,0,0-.216-2.825,1.052,1.052,0,0,0-1.075-.755,1.022,1.022,0,0,0-1.042.949c-.107.551-.081,2.1-.166,2.733-.059.491-.1,1.45-.667,1.439-.528-.012-.578-1.034-.569-1.465.022-1.031.115-1.99.13-2.662.021-1-.254-1.59-1.07-1.608a1.487,1.487,0,0,0-1.6,1.155,10,10,0,0,0-.117,1.51,19.75,19.75,0,0,0,.077,2.546C112.525,84.277,113.245,85.96,115.261,86Z" fill="none" stroke="#fff" stroke-miterlimit="10" stroke-width="0.75"/>
    </g>
  </g>
  <path id="Caminho_981" data-name="Caminho 981" d="M4.056,0c1.548,0,3.3-.96,3.3-2.268a.979.979,0,0,0-.96-1c-.732,0-1.1.852-2.22.852a1.622,1.622,0,0,1-1.6-1.8A1.66,1.66,0,0,1,4.248-6.048a2.521,2.521,0,0,1,.984.18,3.459,3.459,0,0,0,.912.276c.528,0,.888-.576.888-1.116,0-1-1.32-1.692-2.88-1.692C1.488-8.4.24-6.3.24-4.056A3.787,3.787,0,0,0,4.056,0Z" transform="matrix(1, 0.021, -0.021, 1, 8.455, 85.901)" fill="#0d509a"/>
  <g id="Grupo_964" data-name="Grupo 964">
    <g id="Grupo_963" data-name="Grupo 963" clip-path="url(#clip-path)">
      <path id="Caminho_953" data-name="Caminho 953" d="M12.51,85.988c1.548.033,3.32-.889,3.348-2.2a.979.979,0,0,0-.938-1.017c-.732-.016-1.122.828-2.239.8a1.622,1.622,0,0,1-1.556-1.834,1.66,1.66,0,0,1,1.707-1.8,2.533,2.533,0,0,1,.98.2,3.486,3.486,0,0,0,.906.3c.527.011.9-.558.912-1.1.021-1-1.284-1.72-2.844-1.753-2.663-.058-3.956,2.016-4,4.259A3.788,3.788,0,0,0,12.51,85.988Z" fill="none" stroke="#fff" stroke-miterlimit="10" stroke-width="0.75"/>
    </g>
  </g>
  <path id="Caminho_979" data-name="Caminho 979" d="M2.664,0C5.7,0,7.128-1.932,7.128-4.068c0-2.424-1.812-4.32-4.848-4.32-1.308,0-1.86.18-1.86,1.344v5.388C.42-.252,1.38,0,2.664,0ZM3.18-2.6a1.721,1.721,0,0,1-.612-.1V-5.88a1.781,1.781,0,0,1,.66-.108A1.551,1.551,0,0,1,4.68-4.344C4.68-3.372,4.176-2.6,3.18-2.6Z" transform="matrix(1, 0.021, -0.021, 1, 29.059, 85.904)" fill="#aa0315"/>
  <g id="Grupo_966" data-name="Grupo 966">
    <g id="Grupo_965" data-name="Grupo 965" clip-path="url(#clip-path)">
      <path id="Caminho_954" data-name="Caminho 954" d="M32.295,83.368a1.7,1.7,0,0,1-.61-.109l.068-3.179a1.807,1.807,0,0,1,.663-.1,1.553,1.553,0,0,1,1.416,1.675C33.811,82.632,33.29,83.39,32.295,83.368Zm-.572,2.592c3.036.065,4.5-1.835,4.55-3.972.053-2.423-1.718-4.357-4.754-4.422-1.307-.028-1.863.14-1.888,1.3l-.116,5.387C29.485,85.661,30.439,85.933,31.723,85.96Z" fill="none" stroke="#fff" stroke-miterlimit="10" stroke-width="0.75"/>
    </g>
  </g>
  <path id="Caminho_980" data-name="Caminho 980" d="M3.516.024c2.532,0,3.216-2.136,3.324-4.308A8.867,8.867,0,0,0,6.564-7.1a1.054,1.054,0,0,0-1.092-.732,1.022,1.022,0,0,0-1.02.972c-.1.552-.036,2.1-.108,2.736-.048.492-.072,1.452-.636,1.452-.528,0-.6-1.02-.6-1.452,0-1.032.072-1.992.072-2.664,0-1-.288-1.584-1.1-1.584A1.486,1.486,0,0,0,.5-7.188,10.076,10.076,0,0,0,.42-5.676,19.847,19.847,0,0,0,.552-3.132C.744-1.644,1.5.024,3.516.024ZM0,1H7.272V2H0Z" transform="matrix(1, 0.021, -0.021, 1, 49.592, 85.905)" fill="#4a912e"/>
  <g id="Grupo_968" data-name="Grupo 968">
    <g id="Grupo_967" data-name="Grupo 967" clip-path="url(#clip-path)">
      <path id="Caminho_955" data-name="Caminho 955" d="M53.107,86c2.531.055,3.261-2.066,3.416-4.236a8.883,8.883,0,0,0-.216-2.825,1.052,1.052,0,0,0-1.075-.755,1.022,1.022,0,0,0-1.042.949c-.107.551-.081,2.1-.166,2.733-.059.491-.1,1.45-.667,1.439-.528-.012-.578-1.034-.569-1.465.022-1.031.115-1.99.13-2.662.021-1-.254-1.59-1.07-1.608a1.487,1.487,0,0,0-1.6,1.155,10,10,0,0,0-.117,1.51,19.75,19.75,0,0,0,.077,2.546C50.371,84.277,51.091,85.96,53.107,86Z" fill="none" stroke="#fff" stroke-miterlimit="10" stroke-width="0.75"/>
      <path id="Caminho_956" data-name="Caminho 956" d="M180.283,113.942H7.1a4.032,4.032,0,0,1-3.725-2.488l-3-33.344c-.586-2.408.852-5.573,3.724-5.573h179.18c2.873,0,4.056,2.618,3.724,5.573l-3,33.344A4.031,4.031,0,0,1,180.283,113.942Z" fill="none" stroke="#8cafdb" stroke-linecap="round" stroke-linejoin="round" stroke-width="0.5"/>
      <path id="Caminho_957" data-name="Caminho 957" d="M.433,76.93c.857,6.8,1.714,23.6,2.57,30.406.249,1.972.591,4.129,2.087,5.437,1.477,1.292,3.627,1.362,5.588,1.364,34.681.047,124.125-.195,157.2-.195,7.576,0,11.986-.064,13.587-.774a4.566,4.566,0,0,0,2.667-3.1c1.335-5.474,1.215-21.485,2.686-30.483.254-1.557.21-4.409-.827-5.6-1.15-1.316-2.36-1.439-4.107-1.455-40.82-.371-127.848.021-168.668-.351-2.662-.024-7.552-.6-10.038.351S.1,74.289.433,76.93Z" fill="none" stroke="#8cafdb" stroke-linecap="round" stroke-linejoin="round" stroke-width="0.5"/>
      <path id="Caminho_958" data-name="Caminho 958" d="M186.862,76.93c-.857,6.8-1.714,23.6-2.57,30.406-.249,1.972-.616,3.417-2.112,4.725-1.477,1.292-3.417,1.339-5.379,1.341-34.681.047-124.309.54-157.383.54-7.576,0-12.216-.188-13.83-.868-3.347-1.41-3.362-22.793-5.11-33.485-.254-1.557-.21-4.409.827-5.6,1.15-1.316,2.36-1.439,4.107-1.455,40.82-.371,127.848.021,168.668-.351,2.662-.024,7.552-.6,10.038.351S187.2,74.289,186.862,76.93Z" fill="none" stroke="#8cafdb" stroke-linecap="round" stroke-linejoin="round" stroke-width="0.5"/>
      <path id="Caminho_959" data-name="Caminho 959" d="M187.007,78.11c.054-2.95-.851-5.573-3.724-5.573H4.1C1.23,72.537.55,74.663.379,78.11l1,11.137H186.005Z" fill="none" stroke="#8cafdb" stroke-linecap="round" stroke-linejoin="round" stroke-width="0.5"/>
    </g>
  </g>
  <path id="Caminho_969" data-name="Caminho 969" d="M5.643.009c.369,0,.72-.072.81-.531a20.843,20.843,0,0,0-.054-3.2c-.072-1.206-.225-2.3-1.161-2.3a.8.8,0,0,0-.693.378C4.068-4.977,3.735-3.5,3.438-3.5c-.261,0-.657-1.449-1-2.151a.911.911,0,0,0-.81-.558C1.107-6.21.783-5.823.6-4.968A25.416,25.416,0,0,0,.315-.8c0,.612.234.792.684.792a1.031,1.031,0,0,0,.747-.234C2-.5,1.98-1.017,1.989-1.521,2-1.782,2-2.16,2.007-2.358c.009-.144.09-.162.162-.036.243.486.567,1.4,1.188,1.4.594,0,.963-1.116,1.152-1.494.081-.135.153-.09.153.027a9.689,9.689,0,0,0,.081,1.53C4.824-.405,4.95.009,5.643.009ZM8.181.027c.738,0,.828-.432.828-1.7l.009-2.691c0-1.089.126-1.944-.819-1.944-1.071,0-.972.612-.972,2.151,0,.045.009,2.142,0,2.511C7.227-.513,7.164.027,8.181.027ZM12.114,0c.927,0,1.557-.162,1.557-1.188,0-.666-.81-.765-1.665-.765h-.4a5.829,5.829,0,0,1-.009-.6c.018-.864.081-2.376.081-2.7,0-.828-.3-.99-.891-.99-.414,0-.81.1-.9.81a22.934,22.934,0,0,0-.135,2.358A6.635,6.635,0,0,0,9.936-.99C10.26-.054,11.088,0,12.114,0Zm5.958,0c.522,0,.7-.324.774-.747a27.433,27.433,0,0,0,.243-3.744c0-.342-.009-.63-.027-.828-.063-.72-.333-.927-.891-.927-.783,0-.945.459-.945,1.134,0,1.107-.018,1.188-.846,1.188-.513,0-.567-.243-.567-.693v-.819a.665.665,0,0,0-.72-.756.781.781,0,0,0-.837.486,10.535,10.535,0,0,0-.27,2.493c0,1.242-.063,3.159,1.125,3.159.666,0,.774-.5.774-1.008,0-.261-.045-.522-.045-.891,0-.423.207-.432.684-.432.594,0,.711.054.693.666a5.8,5.8,0,0,0,.072,1.206C17.388-.09,17.73,0,18.072,0Zm4.815-6.417a.779.779,0,0,0,.792-.684.3.3,0,0,0-.3-.333c-.279,0-.243.306-.567.306-.243,0-.612-.342-1.017-.342a.7.7,0,0,0-.747.684c0,.243.171.333.3.3.189-.045.315-.252.567-.252C22.248-6.741,22.518-6.417,22.887-6.417Zm-.612,6.4c1.9,0,2.673-1.548,2.673-3.105,0-1.737-.792-3.141-2.655-3.141-1.782,0-2.718,1.386-2.718,3.087C19.575-1.4,20.268-.018,22.275-.018Zm0-1.737c-.693,0-.9-.846-.9-1.395,0-.711.2-1.44.936-1.44.72,0,.927.549.927,1.314C23.238-2.655,23.094-1.755,22.275-1.755ZM27.9,0c.8,0,1.953-.2,1.953-1.134,0-.288-.135-.576-.459-.576-.423,0-.864.081-1.3.081-.639,0-.873-.2-.873-.792A4.368,4.368,0,0,0,28.9-2.583c.207-.126.243-.423.243-.693,0-.5-.4-.513-.747-.513h-1.17c-.009-.279,0-.666.279-.81a4.3,4.3,0,0,1,1.566-.108.608.608,0,0,0,.684-.675c0-.657-.729-.909-1.521-.909a3.166,3.166,0,0,0-1.863.423,3.623,3.623,0,0,0-.945,2.889,3.856,3.856,0,0,0,.5,2.331A2.418,2.418,0,0,0,27.9,0Zm4.491,0c1.269-.045,2.223-.675,2.223-1.89,0-1.305-1.521-1.764-2.169-2.214a.3.3,0,0,1-.153-.234c-.009-.135.117-.261.369-.27a2.825,2.825,0,0,1,.846.126c.567.162.9-.342.873-.828-.036-.774-1.089-1-1.872-1A1.8,1.8,0,0,0,30.492-4.5a1.652,1.652,0,0,0,.675,1.449c.981.72,1.53.765,1.53,1.116,0,.207-.171.279-.387.243a6.275,6.275,0,0,0-1.224-.288.785.785,0,0,0-.774.819C30.258-.369,31.275,0,32.391,0Z" transform="translate(16.112 104.064)" fill="#fff"/>
  <path id="Caminho_970" data-name="Caminho 970" d="M5.643.009c.369,0,.72-.072.81-.531a20.843,20.843,0,0,0-.054-3.2c-.072-1.206-.225-2.3-1.161-2.3a.8.8,0,0,0-.693.378C4.068-4.977,3.735-3.5,3.438-3.5c-.261,0-.657-1.449-1-2.151a.911.911,0,0,0-.81-.558C1.107-6.21.783-5.823.6-4.968A25.416,25.416,0,0,0,.315-.8c0,.612.234.792.684.792a1.031,1.031,0,0,0,.747-.234C2-.5,1.98-1.017,1.989-1.521,2-1.782,2-2.16,2.007-2.358c.009-.144.09-.162.162-.036.243.486.567,1.4,1.188,1.4.594,0,.963-1.116,1.152-1.494.081-.135.153-.09.153.027a9.689,9.689,0,0,0,.081,1.53C4.824-.405,4.95.009,5.643.009ZM8.181.027c.738,0,.828-.432.828-1.7l.009-2.691c0-1.089.126-1.944-.819-1.944-1.071,0-.972.612-.972,2.151,0,.045.009,2.142,0,2.511C7.227-.513,7.164.027,8.181.027ZM12.114,0c.927,0,1.557-.162,1.557-1.188,0-.666-.81-.765-1.665-.765h-.4a5.829,5.829,0,0,1-.009-.6c.018-.864.081-2.376.081-2.7,0-.828-.3-.99-.891-.99-.414,0-.81.1-.9.81a22.934,22.934,0,0,0-.135,2.358A6.635,6.635,0,0,0,9.936-.99C10.26-.054,11.088,0,12.114,0Zm5.958,0c.522,0,.7-.324.774-.747a27.433,27.433,0,0,0,.243-3.744c0-.342-.009-.63-.027-.828-.063-.72-.333-.927-.891-.927-.783,0-.945.459-.945,1.134,0,1.107-.018,1.188-.846,1.188-.513,0-.567-.243-.567-.693v-.819a.665.665,0,0,0-.72-.756.781.781,0,0,0-.837.486,10.535,10.535,0,0,0-.27,2.493c0,1.242-.063,3.159,1.125,3.159.666,0,.774-.5.774-1.008,0-.261-.045-.522-.045-.891,0-.423.207-.432.684-.432.594,0,.711.054.693.666a5.8,5.8,0,0,0,.072,1.206C17.388-.09,17.73,0,18.072,0Zm2.592.027c.747,0,.8-.7.936-1.26.045-.189.072-.369.144-.6s.234-.243.468-.243c.2,0,.369.036.45.216.081.216-.009,1.944,1.107,1.89.72-.036.927-.513.864-1.341a16.189,16.189,0,0,0-.279-1.764c-.5-1.926-.936-3.231-2.025-3.231-.981,0-1.521.819-2.025,2.538a12,12,0,0,0-.5,2.394C19.746-.585,20.025.027,20.664.027ZM22.257-3.3c-.306,0-.45-.045-.432-.414.018-.423.207-.972.423-.972.261,0,.369.621.387.963S22.545-3.3,22.257-3.3ZM26.127,0c.828,0,.882-.486.882-1.359,0-.2-.009-.378-.018-.531A16.377,16.377,0,0,0,28.458-.216a.834.834,0,0,0,.612.207c.495-.009.729-.279.729-.558,0-.423-1.188-1.764-1.287-1.9-.054-.081-.045-.108.054-.135a1.714,1.714,0,0,0,1.17-1.647c0-1.35-.864-2.043-2.34-2.043a4.151,4.151,0,0,0-1.278.144A1.142,1.142,0,0,0,25.3-5.085,16.952,16.952,0,0,0,25.227-3.3c0,.477.009,1.17.072,2.592C25.317-.207,25.6,0,26.127,0ZM27.27-3.708a.906.906,0,0,1-.279-.045V-4.815a.581.581,0,0,1,.414-.144.586.586,0,0,1,.648.54A.7.7,0,0,1,27.27-3.708ZM32.814,0c.8,0,1.953-.2,1.953-1.134,0-.288-.135-.576-.459-.576-.423,0-.864.081-1.3.081-.639,0-.873-.2-.873-.792a4.368,4.368,0,0,0,1.674-.162c.207-.126.243-.423.243-.693,0-.5-.4-.513-.747-.513h-1.17c-.009-.279,0-.666.279-.81a4.3,4.3,0,0,1,1.566-.108.608.608,0,0,0,.684-.675c0-.657-.729-.909-1.521-.909a3.166,3.166,0,0,0-1.863.423,3.623,3.623,0,0,0-.945,2.889,3.856,3.856,0,0,0,.5,2.331A2.418,2.418,0,0,0,32.814,0Zm4.491,0c1.269-.045,2.223-.675,2.223-1.89,0-1.305-1.521-1.764-2.169-2.214a.3.3,0,0,1-.153-.234c-.009-.135.117-.261.369-.27a2.825,2.825,0,0,1,.846.126c.567.162.9-.342.873-.828-.036-.774-1.089-1-1.872-1A1.8,1.8,0,0,0,35.406-4.5a1.652,1.652,0,0,0,.675,1.449c.981.72,1.53.765,1.53,1.116,0,.207-.171.279-.387.243A6.275,6.275,0,0,0,36-1.98a.785.785,0,0,0-.774.819C35.172-.369,36.189,0,37.305,0Z" transform="translate(73.028 104.999)" fill="#fff"/>
  <path id="Caminho_971" data-name="Caminho 971" d="M2.637.018c1.9,0,2.412-1.6,2.493-3.231a6.651,6.651,0,0,0-.207-2.115A.79.79,0,0,0,4.1-5.877a.766.766,0,0,0-.765.729c-.072.414-.027,1.575-.081,2.052-.036.369-.054,1.089-.477,1.089-.4,0-.45-.765-.45-1.089,0-.774.054-1.494.054-2,0-.747-.216-1.188-.828-1.188a1.115,1.115,0,0,0-1.179.891A7.557,7.557,0,0,0,.315-4.257a14.885,14.885,0,0,0,.1,1.908C.558-1.233,1.125.018,2.637.018ZM9.792,0c1.3,0,1.26-1.953,1.26-3.6,0-1.305.144-2.493-.774-2.493-.945,0-.855,1.314-.855,2.376,0,.243.009.468.018.6s-.027.135-.09.036c-.369-.585-1.08-1.872-1.359-2.259-.351-.486-.657-.774-1.125-.774-1.08,0-1.1,1.764-1.1,3.258A11.894,11.894,0,0,0,5.895-.882c.162.747.432.873.828.873a.687.687,0,0,0,.666-.558A19.469,19.469,0,0,0,7.5-2.691c.009-.225.036-.306.153-.09C8.172-1.791,8.775,0,9.792,0Zm2.952.027c.738,0,.828-.432.828-1.7l.009-2.691c0-1.089.126-1.944-.819-1.944-1.071,0-.972.612-.972,2.151,0,.045.009,2.142,0,2.511C11.79-.513,11.727.027,12.744.027ZM15.993,0a3.009,3.009,0,0,0,3.348-3.051c0-1.818-1.359-3.24-3.636-3.24-.981,0-1.4.135-1.4,1.008v4.041C14.31-.189,15.03,0,15.993,0Zm.387-1.953a1.291,1.291,0,0,1-.459-.072V-4.41a1.335,1.335,0,0,1,.495-.081A1.163,1.163,0,0,1,17.5-3.258C17.5-2.529,17.127-1.953,16.38-1.953ZM20.655.027c.747,0,.8-.7.936-1.26.045-.189.072-.369.144-.6s.234-.243.468-.243c.2,0,.369.036.45.216.081.216-.009,1.944,1.107,1.89.72-.036.927-.513.864-1.341a16.189,16.189,0,0,0-.279-1.764c-.5-1.926-.936-3.231-2.025-3.231-.981,0-1.521.819-2.025,2.538a12,12,0,0,0-.5,2.394C19.737-.585,20.016.027,20.655.027ZM22.248-3.3c-.306,0-.45-.045-.432-.414.018-.423.207-.972.423-.972.261,0,.369.621.387.963S22.536-3.3,22.248-3.3ZM26.9,0a3.009,3.009,0,0,0,3.348-3.051c0-1.818-1.359-3.24-3.636-3.24-.981,0-1.4.135-1.4,1.008v4.041C25.218-.189,25.938,0,26.9,0Zm.387-1.953a1.291,1.291,0,0,1-.459-.072V-4.41a1.335,1.335,0,0,1,.495-.081,1.163,1.163,0,0,1,1.089,1.233C28.413-2.529,28.035-1.953,27.288-1.953ZM33.219,0c.8,0,1.953-.2,1.953-1.134,0-.288-.135-.576-.459-.576-.423,0-.864.081-1.3.081-.639,0-.873-.2-.873-.792a4.368,4.368,0,0,0,1.674-.162c.207-.126.243-.423.243-.693,0-.5-.4-.513-.747-.513h-1.17c-.009-.279,0-.666.279-.81a4.3,4.3,0,0,1,1.566-.108.608.608,0,0,0,.684-.675c0-.657-.729-.909-1.521-.909a3.166,3.166,0,0,0-1.863.423,3.623,3.623,0,0,0-.945,2.889,3.856,3.856,0,0,0,.5,2.331A2.418,2.418,0,0,0,33.219,0ZM37.71,0c1.269-.045,2.223-.675,2.223-1.89,0-1.305-1.521-1.764-2.169-2.214a.3.3,0,0,1-.153-.234c-.009-.135.117-.261.369-.27a2.825,2.825,0,0,1,.846.126c.567.162.9-.342.873-.828-.036-.774-1.089-1-1.872-1A1.8,1.8,0,0,0,35.811-4.5a1.652,1.652,0,0,0,.675,1.449c.981.72,1.53.765,1.53,1.116,0,.207-.171.279-.387.243A6.275,6.275,0,0,0,36.4-1.98a.785.785,0,0,0-.774.819C35.577-.369,36.594,0,37.71,0Z" transform="translate(133.732 99.528)" fill="#fff"/>
  <path id="Caminho_972" data-name="Caminho 972" d="M2.358,0C3.627-.045,4.581-.675,4.581-1.89,4.581-3.2,3.06-3.654,2.412-4.1a.3.3,0,0,1-.153-.234c-.009-.135.117-.261.369-.27a2.825,2.825,0,0,1,.846.126c.567.162.9-.342.873-.828-.036-.774-1.089-1-1.872-1A1.8,1.8,0,0,0,.459-4.5a1.652,1.652,0,0,0,.675,1.449c.981.72,1.53.765,1.53,1.116,0,.207-.171.279-.387.243A6.275,6.275,0,0,0,1.053-1.98a.785.785,0,0,0-.774.819C.225-.369,1.242,0,2.358,0ZM6.147.027c.738,0,.828-.432.828-1.7l.009-2.691c0-1.089.126-1.944-.819-1.944-1.071,0-.972.612-.972,2.151,0,.045.009,2.142,0,2.511C5.193-.513,5.13.027,6.147.027ZM13.041.009c.369,0,.72-.072.81-.531a20.843,20.843,0,0,0-.054-3.2c-.072-1.206-.225-2.3-1.161-2.3a.8.8,0,0,0-.693.378c-.477.675-.81,2.151-1.107,2.151-.261,0-.657-1.449-1-2.151a.911.911,0,0,0-.81-.558c-.522,0-.846.387-1.026,1.242A25.416,25.416,0,0,0,7.713-.8c0,.612.234.792.684.792a1.031,1.031,0,0,0,.747-.234c.252-.252.234-.774.243-1.278.009-.261.009-.639.018-.837.009-.144.09-.162.162-.036.243.486.567,1.4,1.188,1.4.594,0,.963-1.116,1.152-1.494.081-.135.153-.09.153.027a9.689,9.689,0,0,0,.081,1.53C12.222-.405,12.348.009,13.041.009ZM15.363,0c.333,0,.765-.108.855-.522.036-.2.081-.612.126-1.053,1.584,0,2.727-.873,2.727-2.376,0-1.755-1.431-2.3-2.79-2.3a3.944,3.944,0,0,0-1,.126c-.513.153-.657.5-.693,1.179-.036.558-.063,1.3-.063,2.034a21.929,21.929,0,0,0,.1,2.385A.666.666,0,0,0,15.363,0ZM16.6-3.1a.53.53,0,0,1-.306-.09v-1.5a.7.7,0,0,1,.414-.117.759.759,0,0,1,.765.81A.853.853,0,0,1,16.6-3.1ZM21.978,0c.927,0,1.557-.162,1.557-1.188,0-.666-.81-.765-1.665-.765h-.4a5.829,5.829,0,0,1-.009-.6c.018-.864.081-2.376.081-2.7,0-.828-.3-.99-.891-.99-.414,0-.81.1-.9.81a22.934,22.934,0,0,0-.135,2.358A6.635,6.635,0,0,0,19.8-.99C20.124-.054,20.952,0,21.978,0ZM26.37,0c.8,0,1.953-.2,1.953-1.134,0-.288-.135-.576-.459-.576-.423,0-.864.081-1.3.081-.639,0-.873-.2-.873-.792a4.368,4.368,0,0,0,1.674-.162c.207-.126.243-.423.243-.693,0-.5-.4-.513-.747-.513h-1.17c-.009-.279,0-.666.279-.81a4.3,4.3,0,0,1,1.566-.108.608.608,0,0,0,.684-.675c0-.657-.729-.909-1.521-.909a3.166,3.166,0,0,0-1.863.423A3.623,3.623,0,0,0,23.9-2.979a3.856,3.856,0,0,0,.5,2.331A2.418,2.418,0,0,0,26.37,0Zm4.491,0c1.269-.045,2.223-.675,2.223-1.89,0-1.305-1.521-1.764-2.169-2.214a.3.3,0,0,1-.153-.234c-.009-.135.117-.261.369-.27a2.825,2.825,0,0,1,.846.126c.567.162.9-.342.873-.828-.036-.774-1.089-1-1.872-1A1.8,1.8,0,0,0,28.962-4.5a1.652,1.652,0,0,0,.675,1.449c.981.72,1.53.765,1.53,1.116,0,.207-.171.279-.387.243a6.275,6.275,0,0,0-1.224-.288.785.785,0,0,0-.774.819C28.728-.369,29.745,0,30.861,0Z" transform="translate(137.072 110.328)" fill="#fff"/>
  <g id="Grupo_970" data-name="Grupo 970">
    <g id="Grupo_969" data-name="Grupo 969" clip-path="url(#clip-path)">
      <path id="Caminho_960" data-name="Caminho 960" d="M96.8,72.276V2.128a2.126,2.126,0,1,0-4.252,0V72.276Z" fill="#8cafdb"/>
      <path id="Caminho_961" data-name="Caminho 961" d="M117.355,72.276V2.128a2.126,2.126,0,1,0-4.252,0V72.276Z" fill="#8cafdb"/>
      <path id="Caminho_962" data-name="Caminho 962" d="M76.178,72.276V2.128a2.126,2.126,0,1,0-4.252,0V72.276Z" fill="#8cafdb"/>
      <path id="Caminho_963" data-name="Caminho 963" d="M55.589,72.276V2.128a2.126,2.126,0,1,0-4.252,0V72.276Z" fill="#8cafdb"/>
      <path id="Caminho_964" data-name="Caminho 964" d="M35,72.276V2.128a2.126,2.126,0,1,0-4.252,0V72.276Z" fill="#8cafdb"/>
      <path id="Caminho_965" data-name="Caminho 965" d="M14.411,72.276V2.128a2.126,2.126,0,1,0-4.252,0V72.276Z" fill="#8cafdb"/>
      <path id="Caminho_966" data-name="Caminho 966" d="M157.147,72.276V2.128a2.126,2.126,0,1,0-4.252,0V72.276Z" fill="#8cafdb"/>
      <path id="Caminho_967" data-name="Caminho 967" d="M177.7,72.276V2.128a2.126,2.126,0,1,0-4.252,0V72.276Z" fill="#8cafdb"/>
      <path id="Caminho_968" data-name="Caminho 968" d="M136.525,72.276V2.128a2.126,2.126,0,1,0-4.252,0V72.276Z" fill="#8cafdb"/>
      <line id="Linha_7" data-name="Linha 7" y2="41.444" transform="translate(64.677 72.378)" fill="none" stroke="#8cafdb" stroke-linecap="round" stroke-linejoin="round" stroke-width="0.5"/>
      <line id="Linha_8" data-name="Linha 8" y2="41.444" transform="translate(124.936 72.378)" fill="none" stroke="#8cafdb" stroke-linecap="round" stroke-linejoin="round" stroke-width="0.5"/>
    </g>
  </g>
</svg>
