<svg xmlns="http://www.w3.org/2000/svg" xmlns:xlink="http://www.w3.org/1999/xlink" width="76.115" height="92.146" viewBox="0 0 76.115 92.146">
  <defs>
    <clipPath id="clip-path">
      <rect id="Retângulo_126" data-name="Retângulo 126" width="76.115" height="92.146" transform="translate(0 0)" fill="none"/>
    </clipPath>
  </defs>
  <g id="abaco_cdu" transform="translate(0 0)">
    <g id="Grupo_984" data-name="Grupo 984">
      <g id="Grupo_983" data-name="Grupo 983" clip-path="url(#clip-path)">
        <path id="Caminho_998" data-name="Caminho 998" d="M69.047,91.1H7.27a4.029,4.029,0,0,1-3.724-2.488l-3-11.071A4.03,4.03,0,0,1,4.27,71.965H72.047a4.03,4.03,0,0,1,3.724,5.573l-3,11.071A4.031,4.031,0,0,1,69.047,91.1" fill="#0066b0"/>
        <path id="Caminho_999" data-name="Caminho 999" d="M.311,76.153C5.942,93.849.339,90.651,17,91.524c6.3-.562,47.948,1.615,53.682-.777,3.138-1.309,5-10.576,5.108-15.855-1.13-2.68-3.131-3.376-8.357-2.927-4.212.361-26.5.378-29.463.257-2.172-.09-23.581-.194-27.553-.257-7.974-.126-11.591.292-9.658,6.325C2.084,84.11,3,88.7,5.608,90.08c3.427,1.816,22.59.118,33.58.526,5.977-.452,33.761,2.611,34.254-6.291.71-3.152,3.588-7.089,1.893-9.964.725,1.23-.149,5.118-.646,7.18-.822,2.493-1.534,4.961-3.4,6.94-1.607,1.884-3.817,1.611-6.384,1.887-5.15.556-44.974.116-50.125.957,5.908-.746,46.493,1.171,52.317-.217,1.772-.174,3.721-.172,4.6-1.959,1.36-3.521,6.963-15.763,1.025-16.925" fill="none" stroke="#8cafdb" stroke-linecap="round" stroke-linejoin="round" stroke-width="0.5"/>
        <path id="Caminho_1000" data-name="Caminho 1000" d="M.311,75.952C5.942,93.322.339,90.184,17,91.041c6.3-.553,47.929,1.536,53.682-.763,2.7-1.079,5-10.382,5.108-15.564-1.13-2.631-3.131-3.314-8.357-2.873-4.212.355-26.5.372-29.463.252C35.8,72,14.391,71.9,10.419,71.841c-7.974-.124-11.591.286-9.658,6.209,1.319,5.692,2.986,11.121,5.76,12.028,2.865.937,21.658-.34,32.667.061,5.977-.443,30.338,4.617,33.914-4.911C74.218,82.256,77.03,77,75.335,74.183c.725,1.208-.149,5.024-.646,7.048-.822,2.447-1.383,5.027-3.4,6.813-1.228,1.086-2.579,1.358-6.323,1.872-5.815.8-45.035.094-50.186.919,5.908-.733,46.493,1.149,52.317-.214,1.772-.17,3.721-.168,4.6-1.922,1.36-3.456,6.963-15.473,1.025-16.614" fill="none" stroke="#8cafdb" stroke-linecap="round" stroke-linejoin="round" stroke-width="0.5"/>
      </g>
    </g>
    <path id="Caminho_1009" data-name="Caminho 1009" d="M4.056,0c1.548,0,3.3-.96,3.3-2.268a.979.979,0,0,0-.96-1c-.732,0-1.1.852-2.22.852a1.622,1.622,0,0,1-1.6-1.8A1.66,1.66,0,0,1,4.248-6.048a2.521,2.521,0,0,1,.984.18,3.459,3.459,0,0,0,.912.276c.528,0,.888-.576.888-1.116,0-1-1.32-1.692-2.88-1.692C1.488-8.4.24-6.3.24-4.056A3.787,3.787,0,0,0,4.056,0Z" transform="matrix(1, 0.021, -0.021, 1, 12.948, 84.863)" fill="#0d509a"/>
    <g id="Grupo_986" data-name="Grupo 986">
      <g id="Grupo_985" data-name="Grupo 985" clip-path="url(#clip-path)">
        <path id="Caminho_1001" data-name="Caminho 1001" d="M17,84.949c1.548.033,3.32-.889,3.348-2.2a.979.979,0,0,0-.938-1.017c-.732-.016-1.122.828-2.239.8a1.622,1.622,0,0,1-1.556-1.834,1.66,1.66,0,0,1,1.707-1.8,2.533,2.533,0,0,1,.98.2,3.485,3.485,0,0,0,.906.3c.527.011.9-.558.912-1.1.021-1-1.284-1.72-2.844-1.753-2.663-.058-3.956,2.016-4,4.259A3.788,3.788,0,0,0,17,84.949Z" fill="none" stroke="#fff" stroke-miterlimit="10" stroke-width="0.75"/>
      </g>
    </g>
    <path id="Caminho_1008" data-name="Caminho 1008" d="M2.664,0C5.7,0,7.128-1.932,7.128-4.068c0-2.424-1.812-4.32-4.848-4.32-1.308,0-1.86.18-1.86,1.344v5.388C.42-.252,1.38,0,2.664,0ZM3.18-2.6a1.721,1.721,0,0,1-.612-.1V-5.88a1.781,1.781,0,0,1,.66-.108A1.551,1.551,0,0,1,4.68-4.344C4.68-3.372,4.176-2.6,3.18-2.6Z" transform="matrix(1, 0.021, -0.021, 1, 33.552, 84.866)" fill="#aa0315"/>
    <g id="Grupo_988" data-name="Grupo 988">
      <g id="Grupo_987" data-name="Grupo 987" clip-path="url(#clip-path)">
        <path id="Caminho_1002" data-name="Caminho 1002" d="M36.788,82.33a1.7,1.7,0,0,1-.61-.109l.068-3.179a1.807,1.807,0,0,1,.663-.1,1.553,1.553,0,0,1,1.416,1.675C38.3,81.594,37.783,82.352,36.788,82.33Zm-.572,2.592c3.036.065,4.5-1.835,4.55-3.972.053-2.423-1.718-4.357-4.754-4.422-1.307-.028-1.863.14-1.888,1.3l-.116,5.387C33.978,84.623,34.932,84.895,36.216,84.922Z" fill="none" stroke="#fff" stroke-miterlimit="10" stroke-width="0.75"/>
      </g>
    </g>
    <path id="Caminho_1007" data-name="Caminho 1007" d="M3.516.024c2.532,0,3.216-2.136,3.324-4.308A8.867,8.867,0,0,0,6.564-7.1a1.054,1.054,0,0,0-1.092-.732,1.022,1.022,0,0,0-1.02.972c-.1.552-.036,2.1-.108,2.736-.048.492-.072,1.452-.636,1.452-.528,0-.6-1.02-.6-1.452,0-1.032.072-1.992.072-2.664,0-1-.288-1.584-1.1-1.584A1.486,1.486,0,0,0,.5-7.188,10.076,10.076,0,0,0,.42-5.676,19.847,19.847,0,0,0,.552-3.132C.744-1.644,1.5.024,3.516.024Z" transform="matrix(1, 0.021, -0.021, 1, 54.086, 84.867)" fill="#4a912e"/>
    <g id="Grupo_990" data-name="Grupo 990">
      <g id="Grupo_989" data-name="Grupo 989" clip-path="url(#clip-path)">
        <path id="Caminho_1003" data-name="Caminho 1003" d="M57.6,84.966c2.531.055,3.261-2.066,3.416-4.236A8.883,8.883,0,0,0,60.8,77.9a1.052,1.052,0,0,0-1.075-.755,1.022,1.022,0,0,0-1.042.949c-.107.551-.081,2.1-.166,2.733-.059.491-.1,1.45-.667,1.439-.528-.012-.578-1.034-.569-1.465.022-1.031.115-1.99.13-2.662.021-1-.254-1.59-1.07-1.608a1.487,1.487,0,0,0-1.6,1.155,10,10,0,0,0-.117,1.51,19.75,19.75,0,0,0,.077,2.546C54.865,83.239,55.585,84.922,57.6,84.966Z" fill="none" stroke="#fff" stroke-miterlimit="10" stroke-width="0.75"/>
        <path id="Caminho_1004" data-name="Caminho 1004" d="M40.182,72.276V2.127a2.126,2.126,0,1,0-4.252,0V72.276Z" fill="#8cafdb"/>
        <path id="Caminho_1005" data-name="Caminho 1005" d="M60.737,72.276V2.127a2.126,2.126,0,1,0-4.252,0V72.276Z" fill="#8cafdb"/>
        <path id="Caminho_1006" data-name="Caminho 1006" d="M19.559,72.276V2.127a2.126,2.126,0,1,0-4.252,0V72.276Z" fill="#8cafdb"/>
      </g>
    </g>
  </g>
</svg>
