<svg xmlns="http://www.w3.org/2000/svg" xmlns:xlink="http://www.w3.org/1999/xlink" width="53.114" height="92.146" viewBox="0 0 53.114 92.146">
  <defs>
    <clipPath id="clip-path">
      <rect id="Retângulo_130" data-name="Retângulo 130" width="53.114" height="92.146" transform="translate(0 0)" fill="none"/>
    </clipPath>
  </defs>
  <g id="abaco_du" transform="translate(0 0)">
    <g id="Grupo_993" data-name="Grupo 993">
      <g id="Grupo_992" data-name="Grupo 992" clip-path="url(#clip-path)">
        <path id="Caminho_1010" data-name="Caminho 1010" d="M46.046,91.1H7.27a4.031,4.031,0,0,1-3.724-2.488l-3-11.071A4.03,4.03,0,0,1,4.27,71.965H49.046a4.03,4.03,0,0,1,3.724,5.573l-3,11.071A4.031,4.031,0,0,1,46.046,91.1" fill="#0066b0"/>
        <path id="Caminho_1011" data-name="Caminho 1011" d="M.311,76.153C5.942,93.849.338,90.651,17,91.524c6.3-.562,24.947,1.615,30.681-.777,3.138-1.309,5-10.576,5.107-15.855-1.13-2.68-3.13-3.376-8.356-2.927-4.213.361-13.5.378-16.463.257-2.172-.09-13.58-.194-17.552-.257-7.974-.126-11.591.292-9.658,6.325C2.084,84.11,3,88.7,5.608,90.08c3.427,1.816,12.589.118,23.579.526,5.978-.452,20.761,2.611,21.254-6.291.71-3.152,3.588-7.089,1.892-9.964.726,1.23-.148,5.118-.645,7.18-.822,2.493-1.534,4.961-3.4,6.94-1.607,1.884-3.816,1.611-6.383,1.887-5.15.556-21.973.116-27.124.957,5.908-.746,23.492,1.171,29.316-.217,1.771-.174,3.72-.172,4.6-1.959,1.36-3.521,6.962-15.763,1.024-16.925" fill="none" stroke="#8cafdb" stroke-linecap="round" stroke-linejoin="round" stroke-width="0.5"/>
        <path id="Caminho_1012" data-name="Caminho 1012" d="M.311,75.952C5.942,93.322.338,90.184,17,91.041c6.3-.553,24.928,1.536,30.681-.763,2.7-1.079,5-10.382,5.107-15.564-1.13-2.631-3.13-3.314-8.356-2.873-4.213.355-13.5.372-16.463.252C25.8,72,14.391,71.9,10.419,71.841c-7.974-.124-11.591.286-9.658,6.209,1.319,5.692,2.986,11.121,5.76,12.028,2.865.937,11.657-.34,22.666.061,5.978-.443,17.337,4.617,20.914-4.911,1.115-2.972,3.928-8.223,2.232-11.045.726,1.208-.148,5.024-.645,7.048-.822,2.447-1.383,5.027-3.4,6.813-1.227,1.086-2.579,1.358-6.322,1.872-5.815.8-22.034.094-27.185.919,5.908-.733,23.492,1.149,29.316-.214,1.771-.17,3.72-.168,4.6-1.922,1.36-3.456,6.962-15.473,1.024-16.614" fill="none" stroke="#8cafdb" stroke-linecap="round" stroke-linejoin="round" stroke-width="0.5"/>
      </g>
    </g>
    <path id="Caminho_1018" data-name="Caminho 1018" d="M2.664,0C5.7,0,7.128-1.932,7.128-4.068c0-2.424-1.812-4.32-4.848-4.32-1.308,0-1.86.18-1.86,1.344v5.388C.42-.252,1.38,0,2.664,0ZM3.18-2.6a1.721,1.721,0,0,1-.612-.1V-5.88a1.781,1.781,0,0,1,.66-.108A1.551,1.551,0,0,1,4.68-4.344C4.68-3.372,4.176-2.6,3.18-2.6Z" transform="matrix(1, 0.021, -0.021, 1, 11.876, 84.866)" fill="#aa0315"/>
    <g id="Grupo_995" data-name="Grupo 995">
      <g id="Grupo_994" data-name="Grupo 994" clip-path="url(#clip-path)">
        <path id="Caminho_1013" data-name="Caminho 1013" d="M15.112,82.331a1.7,1.7,0,0,1-.61-.109l.068-3.179a1.807,1.807,0,0,1,.663-.1,1.553,1.553,0,0,1,1.416,1.675C16.628,81.6,16.107,82.353,15.112,82.331Zm-.572,2.592c3.036.065,4.5-1.835,4.55-3.972.053-2.423-1.718-4.357-4.754-4.422-1.307-.028-1.863.14-1.888,1.3l-.116,5.387C12.3,84.624,13.256,84.9,14.54,84.923Z" fill="none" stroke="#fff" stroke-miterlimit="10" stroke-width="0.75"/>
      </g>
    </g>
    <path id="Caminho_1017" data-name="Caminho 1017" d="M3.516.024c2.532,0,3.216-2.136,3.324-4.308A8.867,8.867,0,0,0,6.564-7.1a1.054,1.054,0,0,0-1.092-.732,1.022,1.022,0,0,0-1.02.972c-.1.552-.036,2.1-.108,2.736-.048.492-.072,1.452-.636,1.452-.528,0-.6-1.02-.6-1.452,0-1.032.072-1.992.072-2.664,0-1-.288-1.584-1.1-1.584A1.486,1.486,0,0,0,.5-7.188,10.076,10.076,0,0,0,.42-5.676,19.847,19.847,0,0,0,.552-3.132C.744-1.644,1.5.024,3.516.024Z" transform="matrix(1, 0.021, -0.021, 1, 32.41, 84.867)" fill="#4a912e"/>
    <g id="Grupo_997" data-name="Grupo 997">
      <g id="Grupo_996" data-name="Grupo 996" clip-path="url(#clip-path)">
        <path id="Caminho_1014" data-name="Caminho 1014" d="M35.925,84.966c2.531.055,3.261-2.066,3.416-4.236a8.883,8.883,0,0,0-.216-2.825,1.052,1.052,0,0,0-1.075-.755,1.022,1.022,0,0,0-1.042.949c-.107.551-.081,2.1-.166,2.733-.059.491-.1,1.45-.667,1.439-.528-.012-.578-1.034-.569-1.465.022-1.031.115-1.99.13-2.662.021-1-.254-1.59-1.07-1.608a1.487,1.487,0,0,0-1.6,1.155,10,10,0,0,0-.117,1.51,19.75,19.75,0,0,0,.077,2.546C33.189,83.239,33.909,84.922,35.925,84.966Z" fill="none" stroke="#fff" stroke-miterlimit="10" stroke-width="0.75"/>
        <path id="Caminho_1015" data-name="Caminho 1015" d="M18.506,72.276V2.127a2.126,2.126,0,1,0-4.252,0V72.276Z" fill="#8cafdb"/>
        <path id="Caminho_1016" data-name="Caminho 1016" d="M39.061,72.276V2.127a2.126,2.126,0,1,0-4.252,0V72.276Z" fill="#8cafdb"/>
      </g>
    </g>
  </g>
</svg>
