<svg xmlns="http://www.w3.org/2000/svg" xmlns:xlink="http://www.w3.org/1999/xlink" width="166" height="124.108" viewBox="0 0 166 124.108">
  <defs>
    <clipPath id="clip-path">
      <path id="Caminho_399" data-name="Caminho 399" d="M0,25.235H166V-98.873H0Z" transform="translate(0 98.873)" fill="none"/>
    </clipPath>
  </defs>
  <g id="balao_esquerda" transform="translate(0 98.873)">
    <g id="Grupo_510" data-name="Grupo 510" transform="translate(0 -98.873)" clip-path="url(#clip-path)">
      <g id="Grupo_504" data-name="Grupo 504" transform="translate(67.203 76.73)">
        <path id="Caminho_393" data-name="Caminho 393" d="M.855.163C-2.184,8.354-8.012,28.8,3.46,41.7L5.42,43.908,5.1,40.975c-.024-.217-2.3-21.918,4.865-38.13l.444-1L9.347,1.555,1.981-.419,1.153-.64Z" transform="translate(3.348 0.64)" fill="#fff"/>
      </g>
      <g id="Grupo_505" data-name="Grupo 505" transform="translate(67.203 76.73)">
        <path id="Caminho_394" data-name="Caminho 394" d="M.855.163C-2.184,8.354-8.012,28.8,3.46,41.7L5.42,43.908,5.1,40.975c-.024-.217-2.3-21.918,4.865-38.13l.444-1L9.347,1.555,1.981-.419,1.153-.64Z" transform="translate(3.348 0.64)" fill="none" stroke="#ffc734" stroke-width="1.5"/>
      </g>
      <g id="Grupo_506" data-name="Grupo 506" transform="translate(0.942 0.941)">
        <path id="Caminho_395" data-name="Caminho 395" d="M.072,10.6c.163,1.662,4.589,39.892,57.968,44.036,57.152,4.425,90.5.152,103.06-35.053,4.641-13.013,3.36-25.012-3.705-34.7-13.4-18.393-46.475-27.71-93.125-26.244-26.23.823-44.871,7.825-55.4,20.812A41.362,41.362,0,0,0,.072,10.6" transform="translate(0.281 41.52)" fill="#fff"/>
      </g>
      <g id="Grupo_507" data-name="Grupo 507" transform="translate(0.942 0.941)">
        <path id="Caminho_396" data-name="Caminho 396" d="M.072,10.6c.163,1.662,4.589,39.892,57.968,44.036,57.152,4.425,90.5.152,103.06-35.053,4.641-13.013,3.36-25.012-3.705-34.7-13.4-18.393-46.475-27.71-93.125-26.244-26.23.823-44.871,7.825-55.4,20.812A41.362,41.362,0,0,0,.072,10.6Z" transform="translate(0.281 41.52)" fill="none" stroke="#ffc734" stroke-width="1.5"/>
      </g>
      <g id="Grupo_508" data-name="Grupo 508" transform="translate(68.129 77.861)">
        <path id="Caminho_397" data-name="Caminho 397" d="M.846,0c-3.03,8.169-8.692,28.079,2.426,40.587,0,0-2.411-21.97,4.941-38.612Z" transform="translate(3.313)" fill="#fff"/>
      </g>
      <g id="Grupo_509" data-name="Grupo 509" transform="translate(1.902 1.88)">
        <path id="Caminho_398" data-name="Caminho 398" d="M.066,10.381S3.056,49.406,57.173,53.6s89.4,1.194,102.1-34.431S139.817-42.925,63.359-40.52C-8.592-38.257.066,10.381.066,10.381" transform="translate(0.26 40.672)" fill="#fff"/>
      </g>
    </g>
  </g>
</svg>
