<svg xmlns="http://www.w3.org/2000/svg" xmlns:xlink="http://www.w3.org/1999/xlink" width="467.717" height="60.831" viewBox="0 0 467.717 60.831">
  <defs>
    <clipPath id="clip-path">
      <path id="Caminho_72" data-name="Caminho 72" d="M0,0H467.717V-60.831H0Z" fill="none"/>
    </clipPath>
  </defs>
  <g id="bg__conceito" transform="translate(0 60.831)">
    <g id="Grupo_96" data-name="Grupo 96" clip-path="url(#clip-path)">
      <g id="Grupo_94" data-name="Grupo 94" transform="translate(64.363 -56.024)">
        <path id="Caminho_70" data-name="Caminho 70" d="M0,0Q-.717.026-1.434.047A86.985,86.985,0,0,1-14.21-.562c-4.252-.5-8.489-.782-12.767-.948-4.3-.166-8.591-.374-12.887-.528-3.76-.134-7.742-.41-11.443.418A11.159,11.159,0,0,0-58.94,4.368a45.843,45.843,0,0,0-3.739,10.184,39.952,39.952,0,0,0-1.1,12.28,36.264,36.264,0,0,0,2.7,11.544,36.314,36.314,0,0,0,5.745,9.49,14.933,14.933,0,0,0,9.2,5.443c3.94.588,8.035-.094,11.97-.437,4.274-.373,8.556-.605,12.834-.915s8.552-.685,12.836-.925,8.6-.34,12.9-.39,8.618-.083,12.926-.189,8.609-.245,12.916-.285,8.6-.011,12.9.014,8.592.083,12.886.213,8.583.269,12.879.287c4.273.019,8.541,2.032,12.805,2.346,4.238.312,8.448.9,12.687,1.206,4.266.306,8.533.306,12.807.195,4.3-.111,8.607-.29,12.912-.388s8.625-.123,12.936-.212,8.593-.277,12.886-.542,8.584-.57,12.883-.75,8.627-.226,12.943-.178,8.626.175,12.939.237c4.29.061,8.578.047,12.861-.22,4.26-.265,8.488.542,12.732.119,4.283-.427,8.561-.562,12.864-.6s8.557-.2,12.836-.506,8.537-.58,12.823-.586,8.568.191,12.848.4,8.566.377,12.846.627,8.543-.66,12.814-.263a128.358,128.358,0,0,0,12.859.532c4.294-.032,8.586-.121,12.879-.132s8.617,0,12.925,0,8.605.031,12.908.012,7.429.09,11.722-.171c4.225-.258,10.228-.1,14.457-.272,4.291-.178,10.165-2.564,14.457-2.715,4.243-.151,6.527.1,10.535-1.254,3.922-1.326,6.993-1.73,9.07-4.906a23.144,23.144,0,0,0,3.027-8.181,50.847,50.847,0,0,0,.679-8.154c.013-2.054-1.465-13.719-2.9-17.389A14.95,14.95,0,0,0,393.4.869a21.725,21.725,0,0,0-10.9-2.278c-4.316.082-8.574.932-12.84,1.5-4.289.572-8.592.939-12.906,1.265-4.331.328-47.854.515-52.214.468s-8.734-.123-13.1-.217q-6.51-.14-13.018-.325T265.409.908Q258.869.719,252.33.544q-6.51-.168-13.022-.29T226.274.1c-4.365-.021-8.73.009-13.094.116s-8.708.278-13.06.475-8.7-.935-13.048-.715c-4.365.221-8.729.441-13.1.628-4.347.186-8.7.333-13.048.323s-8.675-.18-13-.468c-4.344-.289-34.658-.485-39-.756s-8.7-.417-13.057-.488-8.694-.1-13.04-.131C78.467-.95,74.106-.968,69.744-1S61-1.074,56.627-1.158c-4.342-.083-8.682-.212-13.019-.431s-8.685-.539-13.024-.864c-4.363-.328-8.728-.651-13.1-.864C13.141-3.528,8.8-3.6,4.446-3.495s-8.668.393-13,.59c-4.364.2-8.725.252-13.093.237-4.351-.015-8.7-.015-13.048.13-4.232.141-8.511.194-12.725.609-3.657.36-7.333,1.15-10.332,3.356a13.6,13.6,0,0,0-5.37,8.826,16.613,16.613,0,0,0,.312,5.59A49.325,49.325,0,0,1-62,22.354c.2,4.178.058,8.359.734,12.505a23.54,23.54,0,0,0,3.939,10.326,14.533,14.533,0,0,0,8.889,5.3,94.994,94.994,0,0,0,12.208,1.6c4.333.385,8.677.541,13.023.709q6.5.25,12.972.8c4.343.367,8.68.807,13.024,1.175,4.322.366,8.652.658,12.99.734,4.356.076,8.7-.134,13.051-.368s8.725-.387,13.092-.488,8.706-.207,13.054-.46,21.7.226,26.044-.18,8.678-.824,13.022-1.175,8.7-.614,13.055-.919,8.675-.7,13.017-.983,8.687-.346,13.036-.338,8.693.035,13.039-.014c4.385-.049,8.77-.155,13.154-.286,4.348-.13,8.695-.3,13.043-.452s8.7-.285,13.056-.35,8.716-.073,13.074-.078,8.709,1.355,13.064,1.321,8.72-.119,13.078-.256,8.712-.312,13.069-.431,8.727-.189,13.092-.236q6.519-.069,13.038-.075,6.571-.012,13.141,0c4.365.007,8.73-1.343,13.1-1.382s8.7-.123,13.056-.19,8.721-.117,13.081-.086,8.691.161,13.03.408,8.69.586,13.034.887,8.713.58,13.075.793q6.51.316,13.029.4c4.366.049,8.241.958,13.273.279s12.543-5.153,14.6-8.147,2.908-14.889,3.138-19.081a71.5,71.5,0,0,0-.234-12.475c-.454-3.647-1.563-7.388-4.233-10.082a13.578,13.578,0,0,0-9.067-3.654c-4.273-.241-8.565.285-12.838.355-4.309.071-8.619.019-12.927-.055s-8.589-.175-12.883-.245-8.594-.108-12.892-.116q-6.486-.012-12.974.018c-4.3.014-8.6.032-12.907.018s-8.62-.07-12.929-.184-8.622-.278-12.931-.454-8.609-.36-12.915-.5-8.587-.235-12.881-.295-8.584-.1-12.875-.138-8.579-.067-12.868-.088-8.6-.032-12.9-.032q-6.474,0-12.947.035t-12.927.106q-6.452.072-12.9.189-6.473.118-12.944.266t-12.942.288l-12.924.294-12.933.3-12.922.3-12.9.3L88.9-1.942l-12.937.293q-6.442.144-12.887.285T50.16-1.086q-6.444.136-12.889.263t-12.9.189c-4.3.036-8.6.073-12.894.19C7.647-.339,3.825-.135,0,0" fill="#fff"/>
      </g>
      <g id="Grupo_95" data-name="Grupo 95" transform="translate(64.363 -56.024)">
        <path id="Caminho_71" data-name="Caminho 71" d="M0,0Q-.717.026-1.434.047A86.985,86.985,0,0,1-14.21-.562c-4.252-.5-8.489-.782-12.767-.948-4.3-.166-8.591-.374-12.887-.528-3.76-.134-7.742-.41-11.443.418A11.159,11.159,0,0,0-58.94,4.368a45.843,45.843,0,0,0-3.739,10.184,39.952,39.952,0,0,0-1.1,12.28,36.264,36.264,0,0,0,2.7,11.544,36.314,36.314,0,0,0,5.745,9.49,14.933,14.933,0,0,0,9.2,5.443c3.94.588,8.035-.094,11.97-.437,4.274-.373,8.556-.605,12.834-.915s8.552-.685,12.836-.925,8.6-.34,12.9-.39,8.618-.083,12.926-.189,8.609-.245,12.916-.285,8.6-.011,12.9.014,8.592.083,12.886.213,8.583.269,12.879.287c4.273.019,8.541,2.032,12.805,2.346,4.238.312,8.448.9,12.687,1.206,4.266.306,8.533.306,12.807.195,4.3-.111,8.607-.29,12.912-.388s8.625-.123,12.936-.212,8.593-.277,12.886-.542,8.584-.57,12.883-.75,8.627-.226,12.943-.178,8.626.175,12.939.237c4.29.061,8.578.047,12.861-.22,4.26-.265,8.488.542,12.732.119,4.283-.427,8.561-.562,12.864-.6s8.557-.2,12.836-.506,8.537-.58,12.823-.586,8.568.191,12.848.4,8.566.377,12.846.627,8.543-.66,12.814-.263a128.358,128.358,0,0,0,12.859.532c4.294-.032,8.586-.121,12.879-.132s8.617,0,12.925,0,8.605.031,12.908.012,7.429.09,11.722-.171c4.225-.258,10.228-.1,14.457-.272,4.291-.178,10.165-2.564,14.457-2.715,4.243-.151,6.527.1,10.535-1.254,3.922-1.326,6.993-1.73,9.07-4.906a23.144,23.144,0,0,0,3.027-8.181,50.847,50.847,0,0,0,.679-8.154c.013-2.054-1.465-13.719-2.9-17.389A14.95,14.95,0,0,0,393.4.869a21.725,21.725,0,0,0-10.9-2.278c-4.316.082-8.574.932-12.84,1.5-4.289.572-8.592.939-12.906,1.265-4.331.328-47.854.515-52.214.468s-8.734-.123-13.1-.217q-6.51-.14-13.018-.325T265.409.908Q258.869.719,252.33.544q-6.51-.168-13.022-.29T226.274.1c-4.365-.021-8.73.009-13.094.116s-8.708.278-13.06.475-8.7-.935-13.048-.715c-4.365.221-8.729.441-13.1.628-4.347.186-8.7.333-13.048.323s-8.675-.18-13-.468c-4.344-.289-34.658-.485-39-.756s-8.7-.417-13.057-.488-8.694-.1-13.04-.131C78.467-.95,74.106-.968,69.744-1S61-1.074,56.627-1.158c-4.342-.083-8.682-.212-13.019-.431s-8.685-.539-13.024-.864c-4.363-.328-8.728-.651-13.1-.864C13.141-3.528,8.8-3.6,4.446-3.495s-8.668.393-13,.59c-4.364.2-8.725.252-13.093.237-4.351-.015-8.7-.015-13.048.13-4.232.141-8.511.194-12.725.609-3.657.36-7.333,1.15-10.332,3.356a13.6,13.6,0,0,0-5.37,8.826,16.613,16.613,0,0,0,.312,5.59A49.325,49.325,0,0,1-62,22.354c.2,4.178.058,8.359.734,12.505a23.54,23.54,0,0,0,3.939,10.326,14.533,14.533,0,0,0,8.889,5.3,94.994,94.994,0,0,0,12.208,1.6c4.333.385,8.677.541,13.023.709q6.5.25,12.972.8c4.343.367,8.68.807,13.024,1.175,4.322.366,8.652.658,12.99.734,4.356.076,8.7-.134,13.051-.368s8.725-.387,13.092-.488,8.706-.207,13.054-.46,21.7.226,26.044-.18,8.678-.824,13.022-1.175,8.7-.614,13.055-.919,8.675-.7,13.017-.983,8.687-.346,13.036-.338,8.693.035,13.039-.014c4.385-.049,8.77-.155,13.154-.286,4.348-.13,8.695-.3,13.043-.452s8.7-.285,13.056-.35,8.716-.073,13.074-.078,8.709,1.355,13.064,1.321,8.72-.119,13.078-.256,8.712-.312,13.069-.431,8.727-.189,13.092-.236q6.519-.069,13.038-.075,6.571-.012,13.141,0c4.365.007,8.73-1.343,13.1-1.382s8.7-.123,13.056-.19,8.721-.117,13.081-.086,8.691.161,13.03.408,8.69.586,13.034.887,8.713.58,13.075.793q6.51.316,13.029.4c4.366.049,8.241.958,13.273.279s12.543-5.153,14.6-8.147,2.908-14.889,3.138-19.081a71.5,71.5,0,0,0-.234-12.475c-.454-3.647-1.563-7.388-4.233-10.082a13.578,13.578,0,0,0-9.067-3.654c-4.273-.241-8.565.285-12.838.355-4.309.071-8.619.019-12.927-.055s-8.589-.175-12.883-.245-8.594-.108-12.892-.116q-6.486-.012-12.974.018c-4.3.014-8.6.032-12.907.018s-8.62-.07-12.929-.184-8.622-.278-12.931-.454-8.609-.36-12.915-.5-8.587-.235-12.881-.295-8.584-.1-12.875-.138-8.579-.067-12.868-.088-8.6-.032-12.9-.032q-6.474,0-12.947.035t-12.927.106q-6.452.072-12.9.189-6.473.118-12.944.266t-12.942.288l-12.924.294-12.933.3-12.922.3-12.9.3L88.9-1.942l-12.937.293q-6.442.144-12.887.285T50.16-1.086q-6.444.136-12.889.263t-12.9.189c-4.3.036-8.6.073-12.894.19C7.647-.339,3.825-.135,0,0Z" fill="none" stroke="#ffc734" stroke-width="1"/>
      </g>
    </g>
  </g>
</svg>
