<svg xmlns="http://www.w3.org/2000/svg" width="93.065" height="28.346" viewBox="0 0 93.065 28.346">
  <path id="bg_destaque_palavra" d="M77.064,28.092a45.947,45.947,0,0,0-7.265-.845,45.946,45.946,0,0,0-7.266.845,13.806,13.806,0,0,1-4.367.144,13.047,13.047,0,0,1-1.7.11,14.379,14.379,0,0,1-2.666-.255,45.947,45.947,0,0,0-7.265-.845,45.946,45.946,0,0,0-7.266.845,13.809,13.809,0,0,1-4.367.144,13.033,13.033,0,0,1-1.7.111,14.379,14.379,0,0,1-2.666-.255,45.947,45.947,0,0,0-7.265-.845A45.946,45.946,0,0,0,16,28.092C6.731,29.836.245,22.334,0,14.215H0c0-.013,0-.028,0-.043s0-.028,0-.041H0C.245,6.012,6.731-1.49,16,.255a45.956,45.956,0,0,0,7.266.846A45.958,45.958,0,0,0,30.532.255,13.808,13.808,0,0,1,34.9.111a13.793,13.793,0,0,1,4.368.144,45.956,45.956,0,0,0,7.266.846A45.958,45.958,0,0,0,53.8.255,13.805,13.805,0,0,1,58.167.111a13.8,13.8,0,0,1,4.367.144A45.956,45.956,0,0,0,69.8,1.1,45.958,45.958,0,0,0,77.064.255c9.272-1.744,15.756,5.757,16,13.876h0c0,.014,0,.028,0,.041s0,.03,0,.043h0c-.218,7.316-5.5,14.131-13.332,14.131A14.379,14.379,0,0,1,77.064,28.092Z" fill="#00afad"/>
</svg>
