<svg xmlns="http://www.w3.org/2000/svg" xmlns:xlink="http://www.w3.org/1999/xlink" width="471" height="153" viewBox="0 0 471 153">
  <defs>
    <clipPath id="clip-path">
      <rect id="Retângulo_4" data-name="Retângulo 4" width="471" height="153" transform="translate(571 765)" fill="none"/>
    </clipPath>
    <clipPath id="clip-path-2">
      <path id="Caminho_63" data-name="Caminho 63" d="M0,0H1190.551V-183.943H0Z" fill="none"/>
    </clipPath>
  </defs>
  <g id="bg_entre_texto_ace" transform="translate(-571 -765)" clip-path="url(#clip-path)">
    <g id="Grupo_84" data-name="Grupo 84" transform="translate(570.85 948.886)">
      <g id="Grupo_83" data-name="Grupo 83" clip-path="url(#clip-path-2)">
        <g id="Grupo_72" data-name="Grupo 72" transform="translate(1190.551 -129.033)">
          <path id="Caminho_52" data-name="Caminho 52" d="M0,0A28.907,28.907,0,0,0-4.846.66C-13.113,2.533-20.27,7.632-27,12.814c-6.879,5.3-13.582,10.417-21.273,14.391-4.817,2.49-9.735,4.8-14.254,7.875A58.244,58.244,0,0,0-79.863,53.188C-54.211,68.031-27.77,81.744,0,92.663l0,36.371Z" fill="#ffc734"/>
        </g>
        <g id="Grupo_73" data-name="Grupo 73" transform="translate(1094.578 -175.218)">
          <path id="Caminho_53" data-name="Caminho 53" d="M0,0C-2.48,8.634-5.832,17.236-5.963,26.246A37.81,37.81,0,0,0,1.545,49.5,38.042,38.042,0,0,0,11.5,58.689a39.614,39.614,0,0,0,13.627,5.428A34.271,34.271,0,0,0,40.77,63.7c8.916-2.432,16.464-8.325,23.546-14.289,7.241-6.1,14.295-11.991,22.483-16.685,3.06-1.754,6.152-3.463,9.174-5.3l0-35.224H1.67A64.539,64.539,0,0,1,0,0" fill="#ff5872"/>
        </g>
        <g id="Grupo_74" data-name="Grupo 74" transform="translate(933.289 -183.012)">
          <path id="Caminho_54" data-name="Caminho 54" d="M0,0A476.579,476.579,0,0,1,44.453,22.2c13.664,7.217,27.214,15.6,40.755,24.5.364-.144.727-.289,1.091-.431,8.774-3.4,17.765-5.166,27.032-6.952,9.065-1.746,18.366-3.894,25.845-9.277a34.143,34.143,0,0,0,10.139-11.855,39.512,39.512,0,0,0,4.343-13.963A38.178,38.178,0,0,0,153.877,0Z" fill="#9a51a8"/>
        </g>
        <g id="Grupo_75" data-name="Grupo 75" transform="translate(1094.63 -87.469)">
          <path id="Caminho_55" data-name="Caminho 55" d="M0,0A37.7,37.7,0,0,0-2.288-24.256,37.976,37.976,0,0,0-10-35.346,39.516,39.516,0,0,0-22.091-43.57,34.183,34.183,0,0,0-37.4-46.537c-8.377.4-16.265,3.846-23.782,7.687C-41.134-25.242-21.013-11.035-.488,1.727-.323,1.15-.137.586,0,0" fill="#6ac359"/>
        </g>
        <g id="Grupo_76" data-name="Grupo 76" transform="translate(356.558 -121.539)">
          <path id="Caminho_56" data-name="Caminho 56" d="M0,0A61.148,61.148,0,0,0-13.138-7.324c-16.691-6.758-32.116-3.227-48.962-.932a76.791,76.791,0,0,1-14.022.8c-8.991-.436-18.152-1.729-26.97.213A37.9,37.9,0,0,0-124.054,5.422a38.145,38.145,0,0,0-6.672,11.824,39.709,39.709,0,0,0-2.166,14.537,34.352,34.352,0,0,0,4,15.16c.32.59.689,1.147,1.04,1.713C-88.722,37.707-46.753,22.076,0,0" fill="#6ac359"/>
        </g>
        <g id="Grupo_77" data-name="Grupo 77" transform="translate(191.96 -182.561)">
          <path id="Caminho_57" data-name="Caminho 57" d="M0,0A35.372,35.372,0,0,0,1.058,12.561,36.838,36.838,0,0,0,6.995,24.855a31.9,31.9,0,0,0,11,9.549c7.647,3.936,16.532,4.639,25.142,5,8.8.368,17.349.762,25.919,2.688,5.366,1.207,10.7,2.615,16.213,3.176,13.3,1.355,26.588-1.426,37.744-8.975a57.984,57.984,0,0,0,20.267-24.012A62.826,62.826,0,0,0,147.453-.453H.063C.046-.3.015-.152,0,0" fill="#ff5872"/>
        </g>
        <g id="Grupo_78" data-name="Grupo 78" transform="translate(343.947 -183.012)">
          <path id="Caminho_58" data-name="Caminho 58" d="M0,0C-.191,9.535-.416,19.129,2.07,28.3A49.76,49.76,0,0,0,20,55c.816.617,1.676,1.169,2.529,1.731q14.625-7.086,29.883-15.014C73.029,31,93.125,21.62,112.623,13.394a129.662,129.662,0,0,1,9.125-10.54q1.4-1.434,2.8-2.855Z" fill="#0794d4"/>
        </g>
        <g id="Grupo_79" data-name="Grupo 79" transform="translate(134.838 -54.152)">
          <path id="Caminho_59" data-name="Caminho 59" d="M0,0C-7.18-8.918-13.125-18.548-19.172-28.448-26.152-39.9-33.816-51.465-44.949-58.9a49.663,49.663,0,0,0-21.3-7.767,57.437,57.437,0,0,0-21.215,1.195,55.133,55.133,0,0,0-17.9,8.04,54.757,54.757,0,0,0-21.008,28.5c-3.422,10.748-3.4,22.182-3.695,33.48C-86.125,5.719-43.969,5.294,0,0" fill="#08b8b0"/>
        </g>
        <g id="Grupo_80" data-name="Grupo 80" transform="translate(0 -183.012)">
          <path id="Caminho_60" data-name="Caminho 60" d="M0,0V77.326q2.064-.984,4.066-2.131a132.177,132.177,0,0,0,12.977-9.113c6.761-5.035,14.1-8.717,21.676-12.475,7.409-3.679,14.926-7.763,20.095-14.2A30.62,30.62,0,0,0,64.729,26.74a35.36,35.36,0,0,0,.406-13.095A33.959,33.959,0,0,0,61.158,2.217c-.429-.758-.894-1.5-1.383-2.219Z" fill="#9a51a8"/>
        </g>
        <g id="Grupo_81" data-name="Grupo 81" transform="translate(206.773 -47.711)">
          <path id="Caminho_61" data-name="Caminho 61" d="M0,0A40.712,40.712,0,0,1-12.455,8.471,35.215,35.215,0,0,1-28.23,11.527c-9.479-.459-18.356-4.687-26.784-9.1-8.613-4.5-17-8.842-26.248-11.729-5.793-1.808-11.666-3.4-17.246-5.91-13.457-6.043-24.617-16.031-31.113-29.4a63.991,63.991,0,0,1-6.119-34.127,65.975,65.975,0,0,1,14.933-36.047c.924-1.084,1.907-2.117,2.918-3.117s2.032-1.993,3.116-2.917c17.988-15.374,45.107-19.65,67.939-9.728a63.023,63.023,0,0,1,17.162,11.068C-16-107.078-12.4-91.268-7.016-74.695a78.573,78.573,0,0,0,5.5,13.3c4.407,8.1,9.678,15.986,11.811,24.99A38.827,38.827,0,0,1,7.941-11.422,39.108,39.108,0,0,1,0,0" fill="#7b4c16"/>
        </g>
        <g id="Grupo_82" data-name="Grupo 82" transform="translate(125.291 -182.447)">
          <path id="Caminho_62" data-name="Caminho 62" d="M0,0C-10.926,1.435-21.325,3.862-31.021,9.629A41.424,41.424,0,0,0-50.63,40.611c-.686,6.229-.394,12.6-.423,18.855-.031,6.6-.674,13.441,1.244,19.874q1.1,2.714,2.21,5.428,2.487,5.676,4.734,11.449c5.122,9.783,16.62,12.43,25.436,17.949l6.113,4.057a69.063,69.063,0,0,0,13.637,5.759c6.827,2.655,11.908,6.289,17.982,10.209,5.222,3.371,11.019,5.309,16.346,8.512,6.269,3.769,11.253,7.124,18.824,7.662,7.709.548,14.55-1.772,21.243-5.329,5.757-3.059,11.8-6.61,15.486-12.192,9.377-14.2,1.984-31.767-3.416-45.809C85.852,79.4,83.018,72.4,78.435,65.569c-4.394-6.551-9.077-11.758-10.8-19.684-1.814-8.34-.378-17.4-3.74-25.456C60.976,13.435,55.173,9.037,48.606,5.7,40.758,1.707,32,.365,23.319-.324A171.167,171.167,0,0,0-4.641-.5,47.029,47.029,0,0,0-25.5,6.64c-9.755,5.969-16.33,16-21.322,26.09a46.5,46.5,0,0,0-4.952,23.386c.355,8.4,3.133,15.888,5.622,23.81q1.117,3.712,2.233,7.427a23.864,23.864,0,0,0,8.636,12.31,180.36,180.36,0,0,0,21.958,17.475c6.872,4.626,14.755,7.34,21.622,11.929,5.742,3.838,9.856,9.6,16.665,11.69l6.373.984a120.067,120.067,0,0,0,13.521,1.9q8.624-.489,17.158-1.82,7.812-.723,15.655-.674c6.232-.343,14.315-.785,18.808-5.961,4.155-4.789,4.075-12.576,3.136-18.378-1.36-8.4-5.814-15.961-9.2-23.622C87.154,85.83,83.665,78.6,80.352,71.283c-6.747-14.9-5.3-32.016-13-46.765C55.729,2.222,27.934.277,5.691-.678-5.051-1.14-14.392-.693-24.182,4.214A55.139,55.139,0,0,0-45.854,23.532c-4.914,7.443-8.442,15.315-9.522,24.224-1.1,9.073.062,18.406,2.16,27.241,2.046,8.619,4.587,16,11.1,22.348L-33.127,104q9.258,6,18.282,12.349c7.384,4.822,14.39,7.684,22.63,10.622a39.54,39.54,0,0,1,12.867,6.254,122.444,122.444,0,0,0,10.937,8.859c8.279,4.427,19.5,3.23,28.479,3.216,7.57-.012,12.764-.637,19.7-3.678,4.992-2.188,11.361-4.446,13.83-9.847,2.986-6.531.119-15.244-2.278-21.315-3.6-9.11-8.288-18.263-12.761-26.981-3.909-7.619-7.576-14.036-8.293-22.744-.709-8.609-.3-16.508-3.744-24.751-5.048-12.1-16.58-20.833-28-26.519-11.37-5.66-24.3-8.089-36.869-9C-9.559-.351-21,.234-31.648,4.23c-9.908,3.719-15.994,9.248-21.528,18.056C-58.083,30.1-62.57,38.7-62.157,48.23c.441,10.184,5.891,20.567,10.544,29.326A144.615,144.615,0,0,0-34.3,102.891c6.314,7.545,12.435,15.478,21.914,19.221C-1.4,126.449,11,124.7,22.269,127.961A35.791,35.791,0,0,1,36.488,135.4a39.1,39.1,0,0,0,12.482,9.028c14.99,5.914,28.48-2.828,38.019-13.741a17.366,17.366,0,0,0,5.821-12.209,33.444,33.444,0,0,0-4.456-16.537q-4.425-8.661-9.329-17.061C75.034,78,69.895,71.051,67.674,63.3a42.8,42.8,0,0,1-1.1-15.648,23.028,23.028,0,0,0-4.65-16.045A51.868,51.868,0,0,0,44.265,17.649C32.416,11.365,18.952,8.489,5.883,6.123-8.65,3.491-23.19.83-36.952,7.879A50.684,50.684,0,0,0-52.373,20.337l-5.784,13.585C-60.9,43.061-60.718,50.031-59.3,60.945" fill="none" stroke="#ffea3d" stroke-linecap="round" stroke-linejoin="round" stroke-width="1"/>
        </g>
      </g>
    </g>
  </g>
</svg>
