<svg xmlns="http://www.w3.org/2000/svg" xmlns:xlink="http://www.w3.org/1999/xlink" width="24.588" height="22.443" viewBox="0 0 24.588 22.443">
  <defs>
    <clipPath id="clip-path">
      <path id="Caminho_26" data-name="Caminho 26" d="M0,0H24.588V-22.443H0Z" fill="none"/>
    </clipPath>
    <clipPath id="clip-path-2">
      <path id="Caminho_29" data-name="Caminho 29" d="M0,0H18.386V-17.562H0Z" fill="none"/>
    </clipPath>
  </defs>
  <g id="bg_let_coletivamente" transform="translate(-864 -469.443)">
    <g id="Grupo_39" data-name="Grupo 39" transform="translate(864 491.886)">
      <g id="Grupo_38" data-name="Grupo 38" clip-path="url(#clip-path)">
        <g id="Grupo_37" data-name="Grupo 37" transform="translate(5.052 -15.885)">
          <path id="Caminho_25" data-name="Caminho 25" d="M0,0C-.143.226-.063.444-.145.689c-.238.712-.957.952-.976,1.794A8,8,0,0,0,1.138,8.164c.744.67,1.517,1.273,2.242,1.974a17.467,17.467,0,0,0,2.846,2.343,9.5,9.5,0,0,0,5.249,1.244,9.018,9.018,0,0,0,3.2-.515,8.527,8.527,0,0,0,3.514-2.985,4.9,4.9,0,0,0,.835-4.336,13.8,13.8,0,0,0-1.084-3.2A17.845,17.845,0,0,0,16.128-.58a11.7,11.7,0,0,0-5.253-3.451A13.806,13.806,0,0,0,4.822-5.058a12.308,12.308,0,0,0-4.8.872A6.729,6.729,0,0,0-3.91.4,16.226,16.226,0,0,0-4.7,3.552a11.458,11.458,0,0,0,.656,4.2c.474.905.477,1.19,1.256,1.8A17.931,17.931,0,0,0,.169,11.768a21.075,21.075,0,0,0,4.2,2.144,7.83,7.83,0,0,0,6.072-.691,6.676,6.676,0,0,0,2.209-1.849,18.232,18.232,0,0,0,3.57-4.979,10.663,10.663,0,0,0,.7-3.408,9.984,9.984,0,0,0-.3-4.117,9.782,9.782,0,0,0-3.47-3.8,4.79,4.79,0,0,0-1.919-1.024,10.633,10.633,0,0,0-4.29-.062A10.823,10.823,0,0,0,.7-2.146,15.836,15.836,0,0,0-2.572,3.988,6.8,6.8,0,0,0-1.806,8.73c1.107,2.3,2.682,4.705,4.878,5.879a9.727,9.727,0,0,0,6.481.664,10.256,10.256,0,0,0,5.494-3.4,6.988,6.988,0,0,0,1.7-3.394,2.608,2.608,0,0,0-.471-2.1l-.968-.873a21.783,21.783,0,0,0-2.419-1.712A26.433,26.433,0,0,0,6.116,1.085,11.958,11.958,0,0,0,1.914.33" fill="none" stroke="#7d417d" stroke-width="0.7"/>
        </g>
      </g>
    </g>
    <g id="Grupo_43" data-name="Grupo 43" transform="translate(867 489.124)">
      <g id="Grupo_42" data-name="Grupo 42" clip-path="url(#clip-path-2)">
        <g id="Grupo_40" data-name="Grupo 40" transform="translate(0.367 -7.962)">
          <path id="Caminho_27" data-name="Caminho 27" d="M0,0C.007.194.014.387.022.576c.186,4.508,2.854,6.527,7.238,7,2.851.306,8.238-1.3,9.561-4.128a6.963,6.963,0,0,0,.309-5.982A16.621,16.621,0,0,0,13.4-7.388C9.374-10.9,4.668-8.953,1.38-5.554-.011-4.115-.066-1.942,0,0" fill="#fff"/>
        </g>
        <g id="Grupo_41" data-name="Grupo 41" transform="translate(0.367 -7.962)">
          <path id="Caminho_28" data-name="Caminho 28" d="M0,0C.007.194.014.387.022.576c.186,4.508,2.854,6.527,7.238,7,2.851.306,8.238-1.3,9.561-4.128a6.963,6.963,0,0,0,.309-5.982A16.621,16.621,0,0,0,13.4-7.388C9.374-10.9,4.668-8.953,1.38-5.554-.011-4.115-.066-1.942,0,0Z" fill="none" stroke="#7d417d" stroke-width="0.7"/>
        </g>
      </g>
    </g>
  </g>
</svg>
