<svg xmlns="http://www.w3.org/2000/svg" xmlns:xlink="http://www.w3.org/1999/xlink" width="150.59" height="19.843" viewBox="0 0 150.59 19.843">
  <defs>
    <clipPath id="clip-path">
      <path id="Caminho_164" data-name="Caminho 164" d="M0,0H150.59V-19.843H0Z" fill="none"/>
    </clipPath>
  </defs>
  <g id="bg_materiais_necessario" transform="translate(0 19.843)">
    <g id="Grupo_234" data-name="Grupo 234" clip-path="url(#clip-path)">
      <g id="Grupo_230" data-name="Grupo 230" transform="translate(73.849 -8.51)">
        <path id="Caminho_160" data-name="Caminho 160" d="M0,0A3.936,3.936,0,0,0-1.243-2.381a4.836,4.836,0,0,0-.05-1.354A3.363,3.363,0,0,0-2.579-6.5,7.887,7.887,0,0,0-6.088-8.139Q-6.382-8.28-6.68-8.4A7.662,7.662,0,0,0-12.231-10a13.478,13.478,0,0,1-4.261.009,5.159,5.159,0,0,0-3.3.64,10.12,10.12,0,0,0-3.866-.791,17.8,17.8,0,0,0-7.034.506,5.379,5.379,0,0,0-1.483-.527c-.04-.026-.081-.05-.123-.074a7.886,7.886,0,0,0-5.724-.371A10.425,10.425,0,0,0-41.094-10l-.036.01a4.552,4.552,0,0,0-2.82-.864,25.681,25.681,0,0,1-4.893-.362,15.313,15.313,0,0,0-7.286,1.036,11.986,11.986,0,0,0-2.266.255c-.195-.022-.381-.047-.553-.076a12.172,12.172,0,0,0-6.619,1.44l-.2.094c-.342-.013-.656-.035-.925-.069-2.459-.3-5.737,1.775-6.614,4.2a3.369,3.369,0,0,0-.155,1.4,4.136,4.136,0,0,0-.364,2.138,7.072,7.072,0,0,0,2.879,4.42,7.365,7.365,0,0,0,.63.387c.051.058.1.116.156.172a12.866,12.866,0,0,0,6.051,3.093,8.746,8.746,0,0,0,4.463.939,27.465,27.465,0,0,1,6.166.218,5.389,5.389,0,0,0,4.271-1.1l0,0a26.32,26.32,0,0,0,7.843-.076c.172,0,.343-.007.511-.014a4.841,4.841,0,0,0,1.2-.063,15.856,15.856,0,0,1,5.179.114,11.649,11.649,0,0,0,6.047-.77,24.046,24.046,0,0,0,3.119.55,14.213,14.213,0,0,0,5.9,1.431,7.561,7.561,0,0,0,1.994-.244c.5-.137,1.058-.262,1.634-.368a5.626,5.626,0,0,0,1.2-.163l.255-.063a14.769,14.769,0,0,1,2.405-.139,6.3,6.3,0,0,0,2.409-.421,5.615,5.615,0,0,0,2.6-1.07c.186-.02.366-.045.538-.074.112.03.215.061.31.093a4.3,4.3,0,0,0,2.792-.123A4.7,4.7,0,0,0-.609,3.7,7.979,7.979,0,0,0,0,0M-3.16-6.037a2.784,2.784,0,0,1,1.068,2.2,5.288,5.288,0,0,0-.513-1.33,5.622,5.622,0,0,0-.822-1.083c.093.07.182.143.267.217m-.171,1.158a4.97,4.97,0,0,1,.52,1.516q-.148-.054-.3-.1A3.678,3.678,0,0,0-4.352-5.015c-.061-.047-.125-.093-.189-.138a7.3,7.3,0,0,0-.673-1.663A6.307,6.307,0,0,1-3.331-4.879M-53.053,6.307c-.108.011-.215.018-.321.02.089-.012.18-.026.271-.042l.05.022M-55.237,6.3c-.138,0-.28.009-.423.016l-.184-.04.179,0c.147.007.291.016.428.028M-65.482,4.9c-.439-.08-.877-.176-1.3-.285q-.243-.234-.459-.479a11.014,11.014,0,0,0,1.762.764m-2.943-2.91-.038-.018c-.027-.042-.052-.084-.078-.127l-.008-.026c.039.058.081.115.124.171m56.651-9.018h.017l.1.04-.118-.041m2.019.254c.1.021.2.042.3.064-.081-.01-.164-.02-.248-.028l-.051-.036M-52.532-9.553a16.865,16.865,0,0,0,1.847-.26,4.033,4.033,0,0,1,2.67.455c-.332.1-.7.189-1.07.268a5.867,5.867,0,0,0-.882-.073c-.09,0-.179,0-.266.008a13.479,13.479,0,0,1-1.408,0,6.684,6.684,0,0,0-.891-.4m4.108,1.36.208,0,.013,0-.475.107-.078,0c.113-.032.218-.073.332-.1m41.58.6a4.579,4.579,0,0,1,.833.951,5.165,5.165,0,0,1,.448.918c-.09-.04-.182-.079-.274-.117A10.005,10.005,0,0,0-11.2-7.67l2.2-.074a11.958,11.958,0,0,1,2.165.152m-5.192-1.752a5.437,5.437,0,0,1,2.911.39,4.54,4.54,0,0,0-.669.03,16.859,16.859,0,0,1-4.477-.2l-.177-.031a11.708,11.708,0,0,0,2.412-.193m-2.419.884c.373.073.8.134,1.257.18l-.573.019q-.378-.059-.768-.1c-.159-.062-.325-.121-.5-.175a4.182,4.182,0,0,1,.579.072m-2.2-.868c.3.052.629.093.975.122a9.221,9.221,0,0,0-1.612.234c-.347-.031-.7-.047-1.065-.047-.135,0-.271,0-.407.007l-.107-.006a3.989,3.989,0,0,1,2.216-.31m-4.2.32-.019,0-.276,0c-.071-.051-.143-.1-.216-.148.175.046.345.095.511.149M-24.6-9.25a3.35,3.35,0,0,1,2.136.3l-.21.019c-.3-.054-.576-.111-.828-.171a5.366,5.366,0,0,0-1.142-.134l.044-.01m-8.03.239a20.832,20.832,0,0,1-2.853.173,7.7,7.7,0,0,1,2.853-.173m-1.406-1.14a18.805,18.805,0,0,1-2.516-.054,7.617,7.617,0,0,1,2.516.054m-3.641.491a16.729,16.729,0,0,0,1.919.186c-.072.022-.143.044-.212.068a10.386,10.386,0,0,1-1.123.312,4.5,4.5,0,0,0-1.264-.033,12.559,12.559,0,0,1-1.74.068,5.144,5.144,0,0,0-.375-.393,7.428,7.428,0,0,1,2.795-.208m-3.583.489.068.059-.168-.013.1-.046m-7.757-1.382a26.73,26.73,0,0,0,5.112.378,3.571,3.571,0,0,1,1.874.468c-.293.1-.582.214-.866.334a8.939,8.939,0,0,0-2.737-.457,5.76,5.76,0,0,0-1.474.177c-.1-.066-.209-.13-.317-.191a5.006,5.006,0,0,0-3.452-.626,19.73,19.73,0,0,1-3.1.332,12.544,12.544,0,0,1,4.956-.415m-5.421,1.712c.074.019.15.036.231.054a3.94,3.94,0,0,0-.428.074,15.6,15.6,0,0,1-1.663.266l-.779-.191a5.124,5.124,0,0,1,2.639-.2m-3.972-.19-.071.049-.379-.093c.144.016.294.031.45.044M-61.821-8c-.261.067-.526.143-.792.227.113-.055.228-.111.345-.165.155-.019.3-.04.447-.062m-.457-.7-.247.109c-.337.04-.7.071-1.064.094a9.636,9.636,0,0,1,1.311-.2m-3.937,1.518a5.682,5.682,0,0,1,.863-.594c.424,0,.869,0,1.315-.021a8,8,0,0,0-.818.57,3.13,3.13,0,0,0-.618.669q-.207.112-.407.229a10.745,10.745,0,0,0-1.449.477,6.334,6.334,0,0,1,1.114-1.33m-.994-.7a3.029,3.029,0,0,1,.4.025h0A5.248,5.248,0,0,0-68-6.761a5.681,5.681,0,0,0-.593,1l-.109-.007a4.824,4.824,0,0,0-3.469,1.157c-.094.079-.185.162-.272.247a6.473,6.473,0,0,1,5.237-3.522M-71.6-4.135a3.946,3.946,0,0,1,2.7-.968c-.019.038-.036.077-.053.115a6.553,6.553,0,0,0-2.9,3.953c-.018.085-.033.173-.045.263a5.345,5.345,0,0,1-.737-2.066,4.165,4.165,0,0,1,1.037-1.3M-73.027-.852a3.21,3.21,0,0,1-.016-.427A5.788,5.788,0,0,0-71.9.481l.008.009a7.024,7.024,0,0,0,.5,1.789A6.06,6.06,0,0,1-73.027-.852M-71.112.213a3.783,3.783,0,0,1,.045-1.131,5.433,5.433,0,0,1,1.649-2.777,5.607,5.607,0,0,0-.137.713,3.085,3.085,0,0,0-.219.918A3.631,3.631,0,0,0-70.1-.427a5.036,5.036,0,0,0,.4,1.715A8.671,8.671,0,0,1-71.112.213m1.358,3.3A6.359,6.359,0,0,1-70.88,1.358a12.781,12.781,0,0,0,1.691,1.036,6.871,6.871,0,0,0,.41.9,6.67,6.67,0,0,0,.6.9,11.576,11.576,0,0,1-1.575-.677m1.786,1.475c.239.076.483.147.73.213.167.155.34.3.52.452a12.19,12.19,0,0,1-1.25-.665m4.157,1.658a12.008,12.008,0,0,1-1.831-1.086c.475.087.954.157,1.428.209a5.8,5.8,0,0,0,3.7.906,11.886,11.886,0,0,1,1.861-.055c-.369.061-.717.129-1.031.2a9.538,9.538,0,0,1-4.131-.176m10.479,1.124a30.387,30.387,0,0,0-4.429-.316,18.31,18.31,0,0,0-2,.092l-.146.014c.151-.024.3-.053.44-.086a22.657,22.657,0,0,1,3.715-.481c.173.041.337.086.49.133a7.567,7.567,0,0,0,4.22-.152c.267.068.545.13.827.187a4.518,4.518,0,0,1-3.121.609M-37.7,5.95l.023-.011.065,0-.03.011L-37.7,5.95m3.429.694c-.077-.017-.155-.033-.235-.048l.017,0a8.85,8.85,0,0,1,.906.073,4.988,4.988,0,0,0,2.911-.556l.459-.061c.169.066.337.133.508.183a9.827,9.827,0,0,1-4.566.413m9.227-.223c-.068-.033-.135-.068-.2-.1.565,0,1.142-.031,1.725-.08a13.3,13.3,0,0,1,1.658.181c.091.017.184.032.279.044a17.466,17.466,0,0,1-3.46-.043m1.951.787a12.982,12.982,0,0,0,2.787-.252,12.349,12.349,0,0,0,2.347.738A10.554,10.554,0,0,1-23.1,7.208M-9.708,6.45c-.085.007-.169.006-.253.009a22.9,22.9,0,0,0-4.558.555c-.455.058-.921.13-1.376.213a9.58,9.58,0,0,1-3.234-.558A25.432,25.432,0,0,1-14.75,6.1q.352.013.693,0l.045,0a5.146,5.146,0,0,0,1.077-.071,9.961,9.961,0,0,0,3.512.307q-.142.06-.285.114M-5.29,4.431A4.26,4.26,0,0,0-4.7,4.164a4.106,4.106,0,0,0,1.3-1.11,3.873,3.873,0,0,0,.463-.493,3.022,3.022,0,0,1-.687,1.294,4.493,4.493,0,0,1-1.866.833c.068-.084.134-.17.2-.257m3.935-.978A3.941,3.941,0,0,1-3.6,5.316a3.989,3.989,0,0,1-1.309.248,5.243,5.243,0,0,0,1.618-.99c.1-.089.189-.181.275-.276A5.6,5.6,0,0,0-1.367,1.37a3.241,3.241,0,0,0-.3-1.9A7.5,7.5,0,0,0-1.4-1.419,3.147,3.147,0,0,1-.8.062a7.433,7.433,0,0,1-.554,3.391" fill="#973947"/>
      </g>
      <g id="Grupo_231" data-name="Grupo 231" transform="translate(99.419 -8.51)">
        <path id="Caminho_161" data-name="Caminho 161" d="M0,0A3.936,3.936,0,0,0-1.243-2.381a4.836,4.836,0,0,0-.05-1.354A3.363,3.363,0,0,0-2.579-6.5,7.887,7.887,0,0,0-6.088-8.139Q-6.382-8.28-6.68-8.4A7.662,7.662,0,0,0-12.231-10a13.478,13.478,0,0,1-4.261.009,5.159,5.159,0,0,0-3.3.64,10.12,10.12,0,0,0-3.866-.791,17.8,17.8,0,0,0-7.034.506,5.379,5.379,0,0,0-1.483-.527c-.04-.026-.081-.05-.123-.074a7.886,7.886,0,0,0-5.724-.371A10.425,10.425,0,0,0-41.094-10l-.036.01a4.552,4.552,0,0,0-2.82-.864,25.681,25.681,0,0,1-4.893-.362,15.313,15.313,0,0,0-7.286,1.036,11.986,11.986,0,0,0-2.266.255c-.195-.022-.381-.047-.553-.076a12.172,12.172,0,0,0-6.619,1.44l-.2.094c-.342-.013-.656-.035-.925-.069-2.459-.3-5.737,1.775-6.614,4.2a3.369,3.369,0,0,0-.155,1.4,4.136,4.136,0,0,0-.364,2.138,7.072,7.072,0,0,0,2.879,4.42,7.365,7.365,0,0,0,.63.387c.051.058.1.116.156.172a12.866,12.866,0,0,0,6.051,3.093,8.746,8.746,0,0,0,4.463.939,27.465,27.465,0,0,1,6.166.218,5.389,5.389,0,0,0,4.271-1.1l0,0a26.32,26.32,0,0,0,7.843-.076c.172,0,.343-.007.511-.014a4.841,4.841,0,0,0,1.2-.063,15.856,15.856,0,0,1,5.179.114,11.649,11.649,0,0,0,6.047-.77,24.046,24.046,0,0,0,3.119.55,14.213,14.213,0,0,0,5.9,1.431,7.561,7.561,0,0,0,1.994-.244c.5-.137,1.058-.262,1.634-.368a5.626,5.626,0,0,0,1.2-.163l.255-.063a14.769,14.769,0,0,1,2.405-.139,6.3,6.3,0,0,0,2.409-.421,5.615,5.615,0,0,0,2.6-1.07c.186-.02.366-.045.538-.074.112.03.215.061.31.093a4.3,4.3,0,0,0,2.792-.123A4.7,4.7,0,0,0-.609,3.7,7.979,7.979,0,0,0,0,0M-3.16-6.037a2.784,2.784,0,0,1,1.068,2.2,5.288,5.288,0,0,0-.513-1.33,5.622,5.622,0,0,0-.822-1.083c.093.07.182.143.267.217m-.171,1.158a4.97,4.97,0,0,1,.52,1.516q-.148-.054-.3-.1A3.678,3.678,0,0,0-4.352-5.015c-.061-.047-.125-.093-.189-.138a7.3,7.3,0,0,0-.673-1.663A6.307,6.307,0,0,1-3.331-4.879M-53.053,6.307c-.108.011-.215.018-.321.02.089-.012.18-.026.271-.042l.05.022M-55.237,6.3c-.138,0-.28.009-.423.016l-.184-.04.179,0c.147.007.291.016.428.028M-65.482,4.9c-.439-.08-.877-.176-1.3-.285q-.243-.234-.459-.479a11.014,11.014,0,0,0,1.762.764m-2.943-2.91-.038-.018c-.027-.042-.052-.084-.078-.127l-.008-.026c.039.058.081.115.124.171m56.651-9.018h.017l.1.04-.118-.041m2.019.254c.1.021.2.042.3.064-.081-.01-.164-.02-.248-.028l-.051-.036M-52.532-9.553a16.865,16.865,0,0,0,1.847-.26,4.033,4.033,0,0,1,2.67.455c-.332.1-.7.189-1.07.268a5.867,5.867,0,0,0-.882-.073c-.09,0-.179,0-.266.008a13.479,13.479,0,0,1-1.408,0,6.684,6.684,0,0,0-.891-.4m4.108,1.36.208,0,.013,0-.475.107-.078,0c.113-.032.218-.073.332-.1m41.58.6a4.579,4.579,0,0,1,.833.951,5.165,5.165,0,0,1,.448.918c-.09-.04-.182-.079-.274-.117A10.005,10.005,0,0,0-11.2-7.67l2.2-.074a11.958,11.958,0,0,1,2.165.152m-5.192-1.752a5.437,5.437,0,0,1,2.911.39,4.54,4.54,0,0,0-.669.03,16.859,16.859,0,0,1-4.477-.2l-.177-.031a11.708,11.708,0,0,0,2.412-.193m-2.419.884c.373.073.8.134,1.257.18l-.573.019q-.378-.059-.768-.1c-.159-.062-.325-.121-.5-.175a4.182,4.182,0,0,1,.579.072m-2.2-.868c.3.052.629.093.975.122a9.221,9.221,0,0,0-1.612.234c-.347-.031-.7-.047-1.065-.047-.135,0-.271,0-.407.007l-.107-.006a3.989,3.989,0,0,1,2.216-.31m-4.2.32-.019,0-.276,0c-.071-.051-.143-.1-.216-.148.175.046.345.095.511.149M-24.6-9.25a3.35,3.35,0,0,1,2.136.3l-.21.019c-.3-.054-.576-.111-.828-.171a5.366,5.366,0,0,0-1.142-.134l.044-.01m-8.03.239a20.832,20.832,0,0,1-2.853.173,7.7,7.7,0,0,1,2.853-.173m-1.406-1.14a18.805,18.805,0,0,1-2.516-.054,7.617,7.617,0,0,1,2.516.054m-3.641.491a16.729,16.729,0,0,0,1.919.186c-.072.022-.143.044-.212.068a10.386,10.386,0,0,1-1.123.312,4.5,4.5,0,0,0-1.264-.033,12.559,12.559,0,0,1-1.74.068,5.144,5.144,0,0,0-.375-.393,7.428,7.428,0,0,1,2.795-.208m-3.583.489.068.059-.168-.013.1-.046m-7.757-1.382a26.73,26.73,0,0,0,5.112.378,3.571,3.571,0,0,1,1.874.468c-.293.1-.582.214-.866.334a8.939,8.939,0,0,0-2.737-.457,5.76,5.76,0,0,0-1.474.177c-.1-.066-.209-.13-.317-.191a5.006,5.006,0,0,0-3.452-.626,19.73,19.73,0,0,1-3.1.332,12.544,12.544,0,0,1,4.956-.415m-5.421,1.712c.074.019.15.036.231.054a3.94,3.94,0,0,0-.428.074,15.6,15.6,0,0,1-1.663.266l-.779-.191a5.124,5.124,0,0,1,2.639-.2m-3.972-.19-.071.049-.379-.093c.144.016.294.031.45.044M-61.821-8c-.261.067-.526.143-.792.227.113-.055.228-.111.345-.165.155-.019.3-.04.447-.062m-.457-.7-.247.109c-.337.04-.7.071-1.064.094a9.636,9.636,0,0,1,1.311-.2m-3.937,1.518a5.682,5.682,0,0,1,.863-.594c.424,0,.869,0,1.315-.021a8,8,0,0,0-.818.57,3.13,3.13,0,0,0-.618.669q-.207.112-.407.229a10.745,10.745,0,0,0-1.449.477,6.334,6.334,0,0,1,1.114-1.33m-.994-.7a3.029,3.029,0,0,1,.4.025h0A5.248,5.248,0,0,0-68-6.761a5.681,5.681,0,0,0-.593,1l-.109-.007a4.824,4.824,0,0,0-3.469,1.157c-.094.079-.185.162-.272.247a6.473,6.473,0,0,1,5.237-3.522M-71.6-4.135a3.946,3.946,0,0,1,2.7-.968c-.019.038-.036.077-.053.115a6.553,6.553,0,0,0-2.9,3.953c-.018.085-.033.173-.045.263a5.345,5.345,0,0,1-.737-2.066,4.165,4.165,0,0,1,1.037-1.3M-73.027-.852a3.21,3.21,0,0,1-.016-.427A5.788,5.788,0,0,0-71.9.481l.008.009a7.024,7.024,0,0,0,.5,1.789A6.06,6.06,0,0,1-73.027-.852M-71.112.213a3.783,3.783,0,0,1,.045-1.131,5.433,5.433,0,0,1,1.649-2.777,5.607,5.607,0,0,0-.137.713,3.085,3.085,0,0,0-.219.918A3.631,3.631,0,0,0-70.1-.427a5.036,5.036,0,0,0,.4,1.715A8.671,8.671,0,0,1-71.112.213m1.358,3.3A6.359,6.359,0,0,1-70.88,1.358a12.781,12.781,0,0,0,1.691,1.036,6.871,6.871,0,0,0,.41.9,6.67,6.67,0,0,0,.6.9,11.576,11.576,0,0,1-1.575-.677m1.786,1.475c.239.076.483.147.73.213.167.155.34.3.52.452a12.19,12.19,0,0,1-1.25-.665m4.157,1.658a12.008,12.008,0,0,1-1.831-1.086c.475.087.954.157,1.428.209a5.8,5.8,0,0,0,3.7.906,11.886,11.886,0,0,1,1.861-.055c-.369.061-.717.129-1.031.2a9.538,9.538,0,0,1-4.131-.176m10.479,1.124a30.387,30.387,0,0,0-4.429-.316,18.31,18.31,0,0,0-2,.092l-.146.014c.151-.024.3-.053.44-.086a22.657,22.657,0,0,1,3.715-.481c.173.041.337.086.49.133a7.567,7.567,0,0,0,4.22-.152c.267.068.545.13.827.187a4.518,4.518,0,0,1-3.121.609M-37.7,5.95l.023-.011.065,0-.03.011L-37.7,5.95m3.429.694c-.077-.017-.155-.033-.235-.048l.017,0a8.85,8.85,0,0,1,.906.073,4.988,4.988,0,0,0,2.911-.556l.459-.061c.169.066.337.133.508.183a9.827,9.827,0,0,1-4.566.413m9.227-.223c-.068-.033-.135-.068-.2-.1.565,0,1.142-.031,1.725-.08a13.3,13.3,0,0,1,1.658.181c.091.017.184.032.279.044a17.466,17.466,0,0,1-3.46-.043m1.951.787a12.982,12.982,0,0,0,2.787-.252,12.349,12.349,0,0,0,2.347.738A10.554,10.554,0,0,1-23.1,7.208M-9.708,6.45c-.085.007-.169.006-.253.009a22.9,22.9,0,0,0-4.558.555c-.455.058-.921.13-1.376.213a9.58,9.58,0,0,1-3.234-.558A25.432,25.432,0,0,1-14.75,6.1q.352.013.693,0l.045,0a5.146,5.146,0,0,0,1.077-.071,9.961,9.961,0,0,0,3.512.307q-.142.06-.285.114M-5.29,4.431A4.26,4.26,0,0,0-4.7,4.164a4.106,4.106,0,0,0,1.3-1.11,3.873,3.873,0,0,0,.463-.493,3.022,3.022,0,0,1-.687,1.294,4.493,4.493,0,0,1-1.866.833c.068-.084.134-.17.2-.257m3.935-.978A3.941,3.941,0,0,1-3.6,5.316a3.989,3.989,0,0,1-1.309.248,5.243,5.243,0,0,0,1.618-.99c.1-.089.189-.181.275-.276A5.6,5.6,0,0,0-1.367,1.37a3.241,3.241,0,0,0-.3-1.9A7.5,7.5,0,0,0-1.4-1.419,3.147,3.147,0,0,1-.8.062a7.433,7.433,0,0,1-.554,3.391" fill="#973947"/>
      </g>
      <g id="Grupo_232" data-name="Grupo 232" transform="translate(124.99 -8.51)">
        <path id="Caminho_162" data-name="Caminho 162" d="M0,0A3.936,3.936,0,0,0-1.243-2.381a4.836,4.836,0,0,0-.05-1.354A3.363,3.363,0,0,0-2.579-6.5,7.887,7.887,0,0,0-6.088-8.139Q-6.382-8.28-6.68-8.4A7.662,7.662,0,0,0-12.231-10a13.478,13.478,0,0,1-4.261.009,5.159,5.159,0,0,0-3.3.64,10.12,10.12,0,0,0-3.866-.791,17.8,17.8,0,0,0-7.034.506,5.379,5.379,0,0,0-1.483-.527c-.04-.026-.081-.05-.123-.074a7.886,7.886,0,0,0-5.724-.371A10.425,10.425,0,0,0-41.094-10l-.036.01a4.552,4.552,0,0,0-2.82-.864,25.681,25.681,0,0,1-4.893-.362,15.313,15.313,0,0,0-7.286,1.036,11.986,11.986,0,0,0-2.266.255c-.195-.022-.381-.047-.553-.076a12.172,12.172,0,0,0-6.619,1.44l-.2.094c-.342-.013-.656-.035-.925-.069-2.459-.3-5.737,1.775-6.614,4.2a3.369,3.369,0,0,0-.155,1.4,4.136,4.136,0,0,0-.364,2.138,7.072,7.072,0,0,0,2.879,4.42,7.365,7.365,0,0,0,.63.387c.051.058.1.116.156.172a12.866,12.866,0,0,0,6.051,3.093,8.746,8.746,0,0,0,4.463.939,27.465,27.465,0,0,1,6.166.218,5.389,5.389,0,0,0,4.271-1.1l0,0a26.32,26.32,0,0,0,7.843-.076c.172,0,.343-.007.511-.014a4.841,4.841,0,0,0,1.2-.063,15.856,15.856,0,0,1,5.179.114,11.649,11.649,0,0,0,6.047-.77,24.046,24.046,0,0,0,3.119.55,14.213,14.213,0,0,0,5.9,1.431,7.561,7.561,0,0,0,1.994-.244c.5-.137,1.058-.262,1.634-.368a5.626,5.626,0,0,0,1.2-.163l.255-.063a14.769,14.769,0,0,1,2.405-.139,6.3,6.3,0,0,0,2.409-.421,5.615,5.615,0,0,0,2.6-1.07c.186-.02.366-.045.538-.074.112.03.215.061.31.093a4.3,4.3,0,0,0,2.792-.123A4.7,4.7,0,0,0-.609,3.7,7.979,7.979,0,0,0,0,0M-3.16-6.037a2.784,2.784,0,0,1,1.068,2.2,5.288,5.288,0,0,0-.513-1.33,5.622,5.622,0,0,0-.822-1.083c.093.07.182.143.267.217m-.171,1.158a4.97,4.97,0,0,1,.52,1.516q-.148-.054-.3-.1A3.678,3.678,0,0,0-4.352-5.015c-.061-.047-.125-.093-.189-.138a7.3,7.3,0,0,0-.673-1.663A6.307,6.307,0,0,1-3.331-4.879M-53.053,6.307c-.108.011-.215.018-.321.02.089-.012.18-.026.271-.042l.05.022M-55.237,6.3c-.138,0-.28.009-.423.016l-.184-.04.179,0c.147.007.291.016.428.028M-65.482,4.9c-.439-.08-.877-.176-1.3-.285q-.243-.234-.459-.479a11.014,11.014,0,0,0,1.762.764m-2.943-2.91-.038-.018c-.027-.042-.052-.084-.078-.127l-.008-.026c.039.058.081.115.124.171m56.651-9.018h.017l.1.04-.118-.041m2.019.254c.1.021.2.042.3.064-.081-.01-.164-.02-.248-.028l-.051-.036M-52.532-9.553a16.865,16.865,0,0,0,1.847-.26,4.033,4.033,0,0,1,2.67.455c-.332.1-.7.189-1.07.268a5.867,5.867,0,0,0-.882-.073c-.09,0-.179,0-.266.008a13.479,13.479,0,0,1-1.408,0,6.684,6.684,0,0,0-.891-.4m4.108,1.36.208,0,.013,0-.475.107-.078,0c.113-.032.218-.073.332-.1m41.58.6a4.579,4.579,0,0,1,.833.951,5.165,5.165,0,0,1,.448.918c-.09-.04-.182-.079-.274-.117A10.005,10.005,0,0,0-11.2-7.67l2.2-.074a11.958,11.958,0,0,1,2.165.152m-5.192-1.752a5.437,5.437,0,0,1,2.911.39,4.54,4.54,0,0,0-.669.03,16.859,16.859,0,0,1-4.477-.2l-.177-.031a11.708,11.708,0,0,0,2.412-.193m-2.419.884c.373.073.8.134,1.257.18l-.573.019q-.378-.059-.768-.1c-.159-.062-.325-.121-.5-.175a4.182,4.182,0,0,1,.579.072m-2.2-.868c.3.052.629.093.975.122a9.221,9.221,0,0,0-1.612.234c-.347-.031-.7-.047-1.065-.047-.135,0-.271,0-.407.007l-.107-.006a3.989,3.989,0,0,1,2.216-.31m-4.2.32-.019,0-.276,0c-.071-.051-.143-.1-.216-.148.175.046.345.095.511.149M-24.6-9.25a3.35,3.35,0,0,1,2.136.3l-.21.019c-.3-.054-.576-.111-.828-.171a5.366,5.366,0,0,0-1.142-.134l.044-.01m-8.03.239a20.832,20.832,0,0,1-2.853.173,7.7,7.7,0,0,1,2.853-.173m-1.406-1.14a18.805,18.805,0,0,1-2.516-.054,7.617,7.617,0,0,1,2.516.054m-3.641.491a16.729,16.729,0,0,0,1.919.186c-.072.022-.143.044-.212.068a10.386,10.386,0,0,1-1.123.312,4.5,4.5,0,0,0-1.264-.033,12.559,12.559,0,0,1-1.74.068,5.144,5.144,0,0,0-.375-.393,7.428,7.428,0,0,1,2.795-.208m-3.583.489.068.059-.168-.013.1-.046m-7.757-1.382a26.73,26.73,0,0,0,5.112.378,3.571,3.571,0,0,1,1.874.468c-.293.1-.582.214-.866.334a8.939,8.939,0,0,0-2.737-.457,5.76,5.76,0,0,0-1.474.177c-.1-.066-.209-.13-.317-.191a5.006,5.006,0,0,0-3.452-.626,19.73,19.73,0,0,1-3.1.332,12.544,12.544,0,0,1,4.956-.415m-5.421,1.712c.074.019.15.036.231.054a3.94,3.94,0,0,0-.428.074,15.6,15.6,0,0,1-1.663.266l-.779-.191a5.124,5.124,0,0,1,2.639-.2m-3.972-.19-.071.049-.379-.093c.144.016.294.031.45.044M-61.821-8c-.261.067-.526.143-.792.227.113-.055.228-.111.345-.165.155-.019.3-.04.447-.062m-.457-.7-.247.109c-.337.04-.7.071-1.064.094a9.636,9.636,0,0,1,1.311-.2m-3.937,1.518a5.682,5.682,0,0,1,.863-.594c.424,0,.869,0,1.315-.021a8,8,0,0,0-.818.57,3.13,3.13,0,0,0-.618.669q-.207.112-.407.229a10.745,10.745,0,0,0-1.449.477,6.334,6.334,0,0,1,1.114-1.33m-.994-.7a3.029,3.029,0,0,1,.4.025h0A5.248,5.248,0,0,0-68-6.761a5.681,5.681,0,0,0-.593,1l-.109-.007a4.824,4.824,0,0,0-3.469,1.157c-.094.079-.185.162-.272.247a6.473,6.473,0,0,1,5.237-3.522M-71.6-4.135a3.946,3.946,0,0,1,2.7-.968c-.019.038-.036.077-.053.115a6.553,6.553,0,0,0-2.9,3.953c-.018.085-.033.173-.045.263a5.345,5.345,0,0,1-.737-2.066,4.165,4.165,0,0,1,1.037-1.3M-73.027-.852a3.21,3.21,0,0,1-.016-.427A5.788,5.788,0,0,0-71.9.481l.008.009a7.024,7.024,0,0,0,.5,1.789A6.06,6.06,0,0,1-73.027-.852M-71.112.213a3.783,3.783,0,0,1,.045-1.131,5.433,5.433,0,0,1,1.649-2.777,5.607,5.607,0,0,0-.137.713,3.085,3.085,0,0,0-.219.918A3.631,3.631,0,0,0-70.1-.427a5.036,5.036,0,0,0,.4,1.715A8.671,8.671,0,0,1-71.112.213m1.358,3.3A6.359,6.359,0,0,1-70.88,1.358a12.781,12.781,0,0,0,1.691,1.036,6.871,6.871,0,0,0,.41.9,6.67,6.67,0,0,0,.6.9,11.576,11.576,0,0,1-1.575-.677m1.786,1.475c.239.076.483.147.73.213.167.155.34.3.52.452a12.19,12.19,0,0,1-1.25-.665m4.157,1.658a12.008,12.008,0,0,1-1.831-1.086c.475.087.954.157,1.428.209a5.8,5.8,0,0,0,3.7.906,11.886,11.886,0,0,1,1.861-.055c-.369.061-.717.129-1.031.2a9.538,9.538,0,0,1-4.131-.176m10.479,1.124a30.387,30.387,0,0,0-4.429-.316,18.31,18.31,0,0,0-2,.092l-.146.014c.151-.024.3-.053.44-.086a22.657,22.657,0,0,1,3.715-.481c.173.041.337.086.49.133a7.567,7.567,0,0,0,4.22-.152c.267.068.545.13.827.187a4.518,4.518,0,0,1-3.121.609M-37.7,5.95l.023-.011.065,0-.03.011L-37.7,5.95m3.429.694c-.077-.017-.155-.033-.235-.048l.017,0a8.85,8.85,0,0,1,.906.073,4.988,4.988,0,0,0,2.911-.556l.459-.061c.169.066.337.133.508.183a9.827,9.827,0,0,1-4.566.413m9.227-.223c-.068-.033-.135-.068-.2-.1.565,0,1.142-.031,1.725-.08a13.3,13.3,0,0,1,1.658.181c.091.017.184.032.279.044a17.466,17.466,0,0,1-3.46-.043m1.951.787a12.982,12.982,0,0,0,2.787-.252,12.349,12.349,0,0,0,2.347.738A10.554,10.554,0,0,1-23.1,7.208M-9.708,6.45c-.085.007-.169.006-.253.009a22.9,22.9,0,0,0-4.558.555c-.455.058-.921.13-1.376.213a9.58,9.58,0,0,1-3.234-.558A25.432,25.432,0,0,1-14.75,6.1q.352.013.693,0l.045,0a5.146,5.146,0,0,0,1.077-.071,9.961,9.961,0,0,0,3.512.307q-.142.06-.285.114M-5.29,4.431A4.26,4.26,0,0,0-4.7,4.164a4.106,4.106,0,0,0,1.3-1.11,3.873,3.873,0,0,0,.463-.493,3.022,3.022,0,0,1-.687,1.294,4.493,4.493,0,0,1-1.866.833c.068-.084.134-.17.2-.257m3.935-.978A3.941,3.941,0,0,1-3.6,5.316a3.989,3.989,0,0,1-1.309.248,5.243,5.243,0,0,0,1.618-.99c.1-.089.189-.181.275-.276A5.6,5.6,0,0,0-1.367,1.37a3.241,3.241,0,0,0-.3-1.9A7.5,7.5,0,0,0-1.4-1.419,3.147,3.147,0,0,1-.8.062a7.433,7.433,0,0,1-.554,3.391" fill="#973947"/>
      </g>
      <g id="Grupo_233" data-name="Grupo 233" transform="translate(150.561 -8.51)">
        <path id="Caminho_163" data-name="Caminho 163" d="M0,0A3.936,3.936,0,0,0-1.243-2.381a4.836,4.836,0,0,0-.05-1.354A3.363,3.363,0,0,0-2.579-6.5,7.887,7.887,0,0,0-6.088-8.139Q-6.382-8.28-6.68-8.4A7.662,7.662,0,0,0-12.231-10a13.478,13.478,0,0,1-4.261.009,5.159,5.159,0,0,0-3.3.64,10.12,10.12,0,0,0-3.866-.791,17.8,17.8,0,0,0-7.034.506,5.379,5.379,0,0,0-1.483-.527c-.04-.026-.081-.05-.123-.074a7.886,7.886,0,0,0-5.724-.371A10.425,10.425,0,0,0-41.094-10l-.036.01a4.552,4.552,0,0,0-2.82-.864,25.681,25.681,0,0,1-4.893-.362,15.313,15.313,0,0,0-7.286,1.036,11.986,11.986,0,0,0-2.266.255c-.195-.022-.381-.047-.553-.076a12.172,12.172,0,0,0-6.619,1.44l-.2.094c-.342-.013-.656-.035-.925-.069-2.459-.3-5.737,1.775-6.614,4.2a3.369,3.369,0,0,0-.155,1.4,4.136,4.136,0,0,0-.364,2.138,7.072,7.072,0,0,0,2.879,4.42,7.365,7.365,0,0,0,.63.387c.051.058.1.116.156.172a12.866,12.866,0,0,0,6.051,3.093,8.746,8.746,0,0,0,4.463.939,27.465,27.465,0,0,1,6.166.218,5.389,5.389,0,0,0,4.271-1.1l0,0a26.32,26.32,0,0,0,7.843-.076c.172,0,.343-.007.511-.014a4.841,4.841,0,0,0,1.2-.063,15.856,15.856,0,0,1,5.179.114,11.649,11.649,0,0,0,6.047-.77,24.046,24.046,0,0,0,3.119.55,14.213,14.213,0,0,0,5.9,1.431,7.561,7.561,0,0,0,1.994-.244c.5-.137,1.058-.262,1.634-.368a5.626,5.626,0,0,0,1.2-.163l.255-.063a14.769,14.769,0,0,1,2.405-.139,6.3,6.3,0,0,0,2.409-.421,5.615,5.615,0,0,0,2.6-1.07c.186-.02.366-.045.538-.074.112.03.215.061.31.093a4.3,4.3,0,0,0,2.792-.123A4.7,4.7,0,0,0-.609,3.7,7.979,7.979,0,0,0,0,0M-3.16-6.037a2.784,2.784,0,0,1,1.068,2.2,5.288,5.288,0,0,0-.513-1.33,5.622,5.622,0,0,0-.822-1.083c.093.07.182.143.267.217m-.171,1.158a4.97,4.97,0,0,1,.52,1.516q-.148-.054-.3-.1A3.678,3.678,0,0,0-4.352-5.015c-.061-.047-.125-.093-.189-.138a7.3,7.3,0,0,0-.673-1.663A6.307,6.307,0,0,1-3.331-4.879M-53.053,6.307c-.108.011-.215.018-.321.02.089-.012.18-.026.271-.042l.05.022M-55.237,6.3c-.138,0-.28.009-.423.016l-.184-.04.179,0c.147.007.291.016.428.028M-65.482,4.9c-.439-.08-.877-.176-1.3-.285q-.243-.234-.459-.479a11.014,11.014,0,0,0,1.762.764m-2.943-2.91-.038-.018c-.027-.042-.052-.084-.078-.127l-.008-.026c.039.058.081.115.124.171m56.651-9.018h.017l.1.04-.118-.041m2.019.254c.1.021.2.042.3.064-.081-.01-.164-.02-.248-.028l-.051-.036M-52.532-9.553a16.865,16.865,0,0,0,1.847-.26,4.033,4.033,0,0,1,2.67.455c-.332.1-.7.189-1.07.268a5.867,5.867,0,0,0-.882-.073c-.09,0-.179,0-.266.008a13.479,13.479,0,0,1-1.408,0,6.684,6.684,0,0,0-.891-.4m4.108,1.36.208,0,.013,0-.475.107-.078,0c.113-.032.218-.073.332-.1m41.58.6a4.579,4.579,0,0,1,.833.951,5.165,5.165,0,0,1,.448.918c-.09-.04-.182-.079-.274-.117A10.005,10.005,0,0,0-11.2-7.67l2.2-.074a11.958,11.958,0,0,1,2.165.152m-5.192-1.752a5.437,5.437,0,0,1,2.911.39,4.54,4.54,0,0,0-.669.03,16.859,16.859,0,0,1-4.477-.2l-.177-.031a11.708,11.708,0,0,0,2.412-.193m-2.419.884c.373.073.8.134,1.257.18l-.573.019q-.378-.059-.768-.1c-.159-.062-.325-.121-.5-.175a4.182,4.182,0,0,1,.579.072m-2.2-.868c.3.052.629.093.975.122a9.221,9.221,0,0,0-1.612.234c-.347-.031-.7-.047-1.065-.047-.135,0-.271,0-.407.007l-.107-.006a3.989,3.989,0,0,1,2.216-.31m-4.2.32-.019,0-.276,0c-.071-.051-.143-.1-.216-.148.175.046.345.095.511.149M-24.6-9.25a3.35,3.35,0,0,1,2.136.3l-.21.019c-.3-.054-.576-.111-.828-.171a5.366,5.366,0,0,0-1.142-.134l.044-.01m-8.03.239a20.832,20.832,0,0,1-2.853.173,7.7,7.7,0,0,1,2.853-.173m-1.406-1.14a18.805,18.805,0,0,1-2.516-.054,7.617,7.617,0,0,1,2.516.054m-3.641.491a16.729,16.729,0,0,0,1.919.186c-.072.022-.143.044-.212.068a10.386,10.386,0,0,1-1.123.312,4.5,4.5,0,0,0-1.264-.033,12.559,12.559,0,0,1-1.74.068,5.144,5.144,0,0,0-.375-.393,7.428,7.428,0,0,1,2.795-.208m-3.583.489.068.059-.168-.013.1-.046m-7.757-1.382a26.73,26.73,0,0,0,5.112.378,3.571,3.571,0,0,1,1.874.468c-.293.1-.582.214-.866.334a8.939,8.939,0,0,0-2.737-.457,5.76,5.76,0,0,0-1.474.177c-.1-.066-.209-.13-.317-.191a5.006,5.006,0,0,0-3.452-.626,19.73,19.73,0,0,1-3.1.332,12.544,12.544,0,0,1,4.956-.415m-5.421,1.712c.074.019.15.036.231.054a3.94,3.94,0,0,0-.428.074,15.6,15.6,0,0,1-1.663.266l-.779-.191a5.124,5.124,0,0,1,2.639-.2m-3.972-.19-.071.049-.379-.093c.144.016.294.031.45.044M-61.821-8c-.261.067-.526.143-.792.227.113-.055.228-.111.345-.165.155-.019.3-.04.447-.062m-.457-.7-.247.109c-.337.04-.7.071-1.064.094a9.636,9.636,0,0,1,1.311-.2m-3.937,1.518a5.682,5.682,0,0,1,.863-.594c.424,0,.869,0,1.315-.021a8,8,0,0,0-.818.57,3.13,3.13,0,0,0-.618.669q-.207.112-.407.229a10.745,10.745,0,0,0-1.449.477,6.334,6.334,0,0,1,1.114-1.33m-.994-.7a3.029,3.029,0,0,1,.4.025h0A5.248,5.248,0,0,0-68-6.761a5.681,5.681,0,0,0-.593,1l-.109-.007a4.824,4.824,0,0,0-3.469,1.157c-.094.079-.185.162-.272.247a6.473,6.473,0,0,1,5.237-3.522M-71.6-4.135a3.946,3.946,0,0,1,2.7-.968c-.019.038-.036.077-.053.115a6.553,6.553,0,0,0-2.9,3.953c-.018.085-.033.173-.045.263a5.345,5.345,0,0,1-.737-2.066,4.165,4.165,0,0,1,1.037-1.3M-73.027-.852a3.21,3.21,0,0,1-.016-.427A5.788,5.788,0,0,0-71.9.481l.008.009a7.024,7.024,0,0,0,.5,1.789A6.06,6.06,0,0,1-73.027-.852M-71.112.213a3.783,3.783,0,0,1,.045-1.131,5.433,5.433,0,0,1,1.649-2.777,5.607,5.607,0,0,0-.137.713,3.085,3.085,0,0,0-.219.918A3.631,3.631,0,0,0-70.1-.427a5.036,5.036,0,0,0,.4,1.715A8.671,8.671,0,0,1-71.112.213m1.358,3.3A6.359,6.359,0,0,1-70.88,1.358a12.781,12.781,0,0,0,1.691,1.036,6.871,6.871,0,0,0,.41.9,6.67,6.67,0,0,0,.6.9,11.576,11.576,0,0,1-1.575-.677m1.786,1.475c.239.076.483.147.73.213.167.155.34.3.52.452a12.19,12.19,0,0,1-1.25-.665m4.157,1.658a12.008,12.008,0,0,1-1.831-1.086c.475.087.954.157,1.428.209a5.8,5.8,0,0,0,3.7.906,11.886,11.886,0,0,1,1.861-.055c-.369.061-.717.129-1.031.2a9.538,9.538,0,0,1-4.131-.176m10.479,1.124a30.387,30.387,0,0,0-4.429-.316,18.31,18.31,0,0,0-2,.092l-.146.014c.151-.024.3-.053.44-.086a22.657,22.657,0,0,1,3.715-.481c.173.041.337.086.49.133a7.567,7.567,0,0,0,4.22-.152c.267.068.545.13.827.187a4.518,4.518,0,0,1-3.121.609M-37.7,5.95l.023-.011.065,0-.03.011L-37.7,5.95m3.429.694c-.077-.017-.155-.033-.235-.048l.017,0a8.85,8.85,0,0,1,.906.073,4.988,4.988,0,0,0,2.911-.556l.459-.061c.169.066.337.133.508.183a9.827,9.827,0,0,1-4.566.413m9.227-.223c-.068-.033-.135-.068-.2-.1.565,0,1.142-.031,1.725-.08a13.3,13.3,0,0,1,1.658.181c.091.017.184.032.279.044a17.466,17.466,0,0,1-3.46-.043m1.951.787a12.982,12.982,0,0,0,2.787-.252,12.349,12.349,0,0,0,2.347.738A10.554,10.554,0,0,1-23.1,7.208M-9.708,6.45c-.085.007-.169.006-.253.009a22.9,22.9,0,0,0-4.558.555c-.455.058-.921.13-1.376.213a9.58,9.58,0,0,1-3.234-.558A25.432,25.432,0,0,1-14.75,6.1q.352.013.693,0l.045,0a5.146,5.146,0,0,0,1.077-.071,9.961,9.961,0,0,0,3.512.307q-.142.06-.285.114M-5.29,4.431A4.26,4.26,0,0,0-4.7,4.164a4.106,4.106,0,0,0,1.3-1.11,3.873,3.873,0,0,0,.463-.493,3.022,3.022,0,0,1-.687,1.294,4.493,4.493,0,0,1-1.866.833c.068-.084.134-.17.2-.257m3.935-.978A3.941,3.941,0,0,1-3.6,5.316a3.989,3.989,0,0,1-1.309.248,5.243,5.243,0,0,0,1.618-.99c.1-.089.189-.181.275-.276A5.6,5.6,0,0,0-1.367,1.37a3.241,3.241,0,0,0-.3-1.9A7.5,7.5,0,0,0-1.4-1.419,3.147,3.147,0,0,1-.8.062a7.433,7.433,0,0,1-.554,3.391" fill="#973947"/>
      </g>
    </g>
  </g>
</svg>
