<svg xmlns="http://www.w3.org/2000/svg" xmlns:xlink="http://www.w3.org/1999/xlink" width="334.489" height="92.888" viewBox="0 0 334.489 92.888">
  <defs>
    <clipPath id="clip-path">
      <path id="Caminho_81" data-name="Caminho 81" d="M0,0H334.489V-92.888H0Z" fill="none"/>
    </clipPath>
  </defs>
  <g id="bg_material_complementar" transform="translate(0 92.888)">
    <g id="Grupo_107" data-name="Grupo 107" clip-path="url(#clip-path)">
      <g id="Grupo_104" data-name="Grupo 104" transform="translate(315.381 -100.914)">
        <path id="Caminho_78" data-name="Caminho 78" d="M0,0A45.164,45.164,0,0,1,.356,16.711,39.061,39.061,0,0,1-6.333,33.238C-12.489,41.783-21.791,47.49-30.984,52.67c-9.4,5.293-18.5,10.471-26.78,17.34-5.184,4.3-10.219,8.8-15.923,12.476-13.759,8.871-29.8,13.223-46.164,11.188a71,71,0,0,1-35.458-14.93c-11.476-9.2-20.412-21.789-24.524-35.685-.448-1.516-.816-3.051-1.135-4.6-.337-1.541-.626-3.092-.833-4.66-3.436-26.033,8.975-53.854,32.007-69.11A69.884,69.884,0,0,1-129.12-44.59c19.8-5.232,36.691.967,55.365,5.975a86.8,86.8,0,0,0,15.7,2.914c10.2.8,20.724.656,30.394,4.111A43.087,43.087,0,0,1-5.831-14.3,43.4,43.4,0,0,1,0,0" fill="#ffc734"/>
      </g>
      <g id="Grupo_105" data-name="Grupo 105" transform="translate(136.871 -98.342)">
        <path id="Caminho_79" data-name="Caminho 79" d="M0,0A8.25,8.25,0,0,1-.657,3.022a64.043,64.043,0,0,0-2.594,7.45c-1.378,6.119-.584,12.3.069,18.449a56.726,56.726,0,0,0,.908,7.9c.978,3.884,2.941,7.74,4.63,11.352,1.418,3.035,3.122,5.922,4.492,8.979,1.822,4.066,3.488,7.883,6.671,11.13,2.426,2.475,5.448,4.327,8.185,6.423,3.777,2.891,7.212,6.225,11.065,9.014,5.828,4.219,12.629,6.91,19.37,9.222,2.07.71,4.021,1.7,6.118,2.332,4.009,1.213,8.232,1.206,12.38,1.307,3.614.088,7.346.3,10.958.053,3.669-.25,6.893-1.559,10.214-3.034a30.064,30.064,0,0,0,6.552-3.628,70.522,70.522,0,0,1,6.586-4.882,72.472,72.472,0,0,0,7.706-5.007q1.651-1.449,3.291-2.913a56.181,56.181,0,0,1,5.567-3.727,27.815,27.815,0,0,0,7.289-6.21c2.031-2.6,3.919-4.982,6.734-6.822A35.721,35.721,0,0,1,144,56.559a98.141,98.141,0,0,0,10.846-4.26,68.126,68.126,0,0,0,10.207-5.984c3-2.1,5.083-4.791,7.562-7.431l2.765-2.861a57.3,57.3,0,0,0,5.426-5.7c1.4-2.522.9-5.991,1.192-8.8a65.158,65.158,0,0,0,.118-6.9c-.008-2.419.376-5.1-.087-7.482-.481-2.471-2.08-4.663-3.255-6.828a39.811,39.811,0,0,1-2.737-6.407,1.007,1.007,0,0,0,0,1.026c.3,1.861,2.107,4.091,2.933,5.723a84.915,84.915,0,0,1,4.088,8.411c1.291,3.46,1.6,7.171,1.975,10.811a24.346,24.346,0,0,1-.593,10.246,19.664,19.664,0,0,1-5.206,8.7c-3.16,3.027-7.146,5.115-10.975,7.132a119.255,119.255,0,0,1-13.536,6.191c-8.463,3.187-16.974,5.6-24.934,10.012a49.8,49.8,0,0,0-7.1,4.895,45.416,45.416,0,0,0-7,6.226c-3.468,4.187-6.851,8.56-11.366,11.689a85.6,85.6,0,0,1-16.867,9.013c-12.478,5-27.033,4.222-39.894,1.258a79.115,79.115,0,0,1-13.034-4.019c-4.6-1.936-9.056-4.3-13.464-6.626A68.429,68.429,0,0,1-.078,67.873a81.928,81.928,0,0,1-6.52-9.65A32.506,32.506,0,0,1-10.286,49.7c-1.724-6.493-1.462-13.334-1.426-19.989.035-6.434.789-13.454,3.845-19.2A71.1,71.1,0,0,1-1.72,1.344,40.113,40.113,0,0,0,1.746-3.472a1.218,1.218,0,0,0-.564.8C-.644.04-2.64,2.654-4.234,5.514a34.069,34.069,0,0,0-3.984,10.55,55.552,55.552,0,0,0-.558,10.754,30.672,30.672,0,0,0,.881,7.119c1.215,3.947,4.166,6.933,6.749,10.016,3.115,3.719,6.473,7.254,9.47,11.069,2.43,3.093,4.7,6.321,7.1,9.436a59.738,59.738,0,0,0,14.925,13.7c3.535,2.3,7.3,4.315,10.943,6.436,2.888,1.68,5.668,3.69,8.634,5.223,5.4,2.79,12.2,3.386,18.186,3.04,7.435-.43,15.078-1.6,21.973-4.45q3.961-1.674,7.805-3.608c3.211-1.812,5.706-4.365,8.627-6.57,2.849-2.15,5.77-4.155,8.578-6.366,3.183-2.505,6.4-4.976,9.667-7.371A71.3,71.3,0,0,1,141.378,55.2c3.222-1.251,6.476-2.5,9.636-3.9a27.442,27.442,0,0,0,8.8-6.173c8.41-8.437,19.242-18.042,20.175-30.772.264-3.609.962-8.07.071-11.614-.66-2.625-2.385-4.958-3.765-7.232a23.993,23.993,0,0,0-2.671-4.008" fill="none" stroke="#ffc734" stroke-width="1.5"/>
      </g>
      <g id="Grupo_106" data-name="Grupo 106" transform="translate(-2.529 -146.582)">
        <path id="Caminho_80" data-name="Caminho 80" d="M0,0A35.154,35.154,0,0,1,9.777-8.566a30.38,30.38,0,0,1,13.19-4.276c8.167-.6,16.217,2.084,23.9,4.971C54.717-4.918,62.353-2.084,70.58-.584a130.787,130.787,0,0,1,15.392,3.25c12.163,3.762,22.772,11.139,29.741,21.906a55.214,55.214,0,0,1,8.83,28.586,56.925,56.925,0,0,1-9,32.446c-.679,1.027-1.411,2.013-2.173,2.978s-1.53,1.92-2.36,2.824c-13.791,15.061-36.569,21.574-57.168,15.479a54.382,54.382,0,0,1-15.865-7.676c-13.011-9.18-17.763-22.342-24.115-35.971a67.793,67.793,0,0,0-6.112-10.81c-4.625-6.479-9.97-12.674-12.744-20.16A33.509,33.509,0,0,1-5.6,10.617,33.714,33.714,0,0,1,0,0" fill="#08b8b0"/>
      </g>
    </g>
  </g>
</svg>
