<svg xmlns="http://www.w3.org/2000/svg" xmlns:xlink="http://www.w3.org/1999/xlink" width="46.349" height="38.42" viewBox="0 0 46.349 38.42">
  <defs>
    <clipPath id="clip-path">
      <path id="Caminho_31" data-name="Caminho 31" d="M0,0H37.535V-34.254H0Z" fill="none"/>
    </clipPath>
    <clipPath id="clip-path-2">
      <path id="Caminho_34" data-name="Caminho 34" d="M0,0H46.349V-35.088H0Z" fill="none"/>
    </clipPath>
  </defs>
  <g id="bg_num_coletivamente" transform="translate(-875 -415.088)">
    <g id="Grupo_46" data-name="Grupo 46" transform="translate(879 453.508)">
      <g id="Grupo_45" data-name="Grupo 45" clip-path="url(#clip-path)">
        <g id="Grupo_44" data-name="Grupo 44" transform="translate(7.691 -24.26)">
          <path id="Caminho_30" data-name="Caminho 30" d="M0,0C-.218.346-.1.679-.222,1.054-.585,2.142-1.686,2.51-1.714,3.8a12.232,12.232,0,0,0,3.455,8.688c1.137,1.025,2.319,1.947,3.428,3.02a26.669,26.669,0,0,0,4.354,3.582,14.541,14.541,0,0,0,8.028,1.9,13.76,13.76,0,0,0,4.894-.788,13.043,13.043,0,0,0,5.373-4.565c1.562-2.163,1.8-3.933,1.278-6.631a21.13,21.13,0,0,0-1.658-4.9A27.281,27.281,0,0,0,24.666-.887c-2.093-2.74-5.062-4.058-8.034-5.279a21.119,21.119,0,0,0-9.258-1.57A18.8,18.8,0,0,0,.037-6.4,10.289,10.289,0,0,0-5.98.618c-.229,1.177-1.311,3.615-1.2,4.814.08,2.052.132,4.545,1,6.419.726,1.384.731,1.82,1.922,2.747A27.326,27.326,0,0,0,.258,18a32.163,32.163,0,0,0,6.427,3.279,11.976,11.976,0,0,0,9.287-1.057,10.233,10.233,0,0,0,3.379-2.827c2-2.2,4.29-4.75,5.46-7.616a16.314,16.314,0,0,0,1.076-5.212,15.264,15.264,0,0,0-.462-6.3c-.95-2.454-3.362-4.355-5.308-5.814a7.281,7.281,0,0,0-2.935-1.567,16.286,16.286,0,0,0-6.56-.1A16.561,16.561,0,0,0,1.078-3.282,24.213,24.213,0,0,0-3.934,6.1c-.644,2.608.053,4.928,1.172,7.253,1.693,3.518,4.1,7.2,7.461,8.991a14.875,14.875,0,0,0,9.911,1.016,15.684,15.684,0,0,0,8.4-5.2,10.66,10.66,0,0,0,2.6-5.19,3.984,3.984,0,0,0-.72-3.211L23.41,8.42a33.388,33.388,0,0,0-3.7-2.617A40.419,40.419,0,0,0,9.354,1.659C7.366,1.124,5.021.264,2.927.5" fill="none" stroke="#ffc734" stroke-width="1"/>
        </g>
      </g>
    </g>
    <g id="Grupo_50" data-name="Grupo 50" transform="translate(875 450.176)">
      <g id="Grupo_49" data-name="Grupo 49" clip-path="url(#clip-path-2)">
        <g id="Grupo_47" data-name="Grupo 47" transform="translate(9.677 -13.292)">
          <path id="Caminho_32" data-name="Caminho 32" d="M0,0C.01.3.022.591.034.88c.284,6.9,4.364,9.983,11.069,10.7,4.36.47,12.6-1.987,14.624-6.312A10.655,10.655,0,0,0,26.2-3.877,25.444,25.444,0,0,0,20.5-11.3C14.336-16.679,7.139-13.693,2.111-8.494-.016-6.294-.1-2.971,0,0" fill="#7d417d"/>
        </g>
        <g id="Grupo_48" data-name="Grupo 48" transform="translate(9.677 -13.292)">
          <path id="Caminho_33" data-name="Caminho 33" d="M0,0C.01.3.022.591.034.88c.284,6.9,4.364,9.983,11.069,10.7,4.36.47,12.6-1.987,14.624-6.312A10.655,10.655,0,0,0,26.2-3.877,25.444,25.444,0,0,0,20.5-11.3C14.336-16.679,7.139-13.693,2.111-8.494-.016-6.294-.1-2.971,0,0Z" fill="none" stroke="#ffc734" stroke-width="1.3"/>
        </g>
      </g>
    </g>
  </g>
</svg>
