<svg xmlns="http://www.w3.org/2000/svg" xmlns:xlink="http://www.w3.org/1999/xlink" width="29.104" height="26.58" viewBox="0 0 29.104 26.58">
  <defs>
    <clipPath id="clip-path">
      <path id="Caminho_151" data-name="Caminho 151" d="M0,0H29.1V-26.58H0Z" fill="none"/>
    </clipPath>
  </defs>
  <g id="bg_num_cie" transform="translate(0 26.58)">
    <g id="Grupo_215" data-name="Grupo 215" clip-path="url(#clip-path)">
      <g id="Grupo_212" data-name="Grupo 212" transform="translate(6.032 -18.777)">
        <path id="Caminho_148" data-name="Caminho 148" d="M0,0C-.168.266-.075.522-.171.811-.45,1.648-1.3,1.93-1.319,2.921A9.407,9.407,0,0,0,1.339,9.6c.875.789,1.784,1.5,2.637,2.324a20.59,20.59,0,0,0,3.349,2.755A11.179,11.179,0,0,0,13.5,16.147a10.623,10.623,0,0,0,3.765-.606A10.023,10.023,0,0,0,21.4,12.029a5.763,5.763,0,0,0,.984-5.1,16.331,16.331,0,0,0-1.276-3.77,20.975,20.975,0,0,0-2.132-3.84C17.364-2.79,15.08-3.8,12.794-4.743A16.252,16.252,0,0,0,5.673-5.951,14.467,14.467,0,0,0,.029-4.925,7.914,7.914,0,0,0-4.6.476c-.176.905-1.008,2.78-.926,3.7a13.483,13.483,0,0,0,.772,4.937c.558,1.065.561,1.4,1.478,2.113A20.949,20.949,0,0,0,.2,13.844a24.706,24.706,0,0,0,4.944,2.523,9.21,9.21,0,0,0,7.143-.813,7.858,7.858,0,0,0,2.6-2.175,21.448,21.448,0,0,0,4.2-5.858,12.557,12.557,0,0,0,.828-4.009,11.758,11.758,0,0,0-.355-4.843C18.827-3.22,16.972-4.682,15.475-5.8a5.6,5.6,0,0,0-2.258-1.2,12.52,12.52,0,0,0-5.046-.074A12.744,12.744,0,0,0,.829-2.525,18.63,18.63,0,0,0-3.026,4.692a8.009,8.009,0,0,0,.9,5.579c1.3,2.706,3.156,5.535,5.74,6.916a11.441,11.441,0,0,0,7.624.781,12.066,12.066,0,0,0,6.463-4,8.211,8.211,0,0,0,2-3.992,3.063,3.063,0,0,0-.554-2.47L18.008,6.477a25.686,25.686,0,0,0-2.845-2.013A31.068,31.068,0,0,0,7.2,1.276C5.666.865,3.862.2,2.252.388" fill="none" stroke="#973947" stroke-width="1"/>
      </g>
      <g id="Grupo_213" data-name="Grupo 213" transform="translate(4.31 -12.563)">
        <path id="Caminho_149" data-name="Caminho 149" d="M0,0Q.012.344.026.677c.219,5.3,3.357,7.679,8.515,8.234,3.354.361,9.692-1.529,11.249-4.856a8.194,8.194,0,0,0,.363-7.038,19.579,19.579,0,0,0-4.385-5.709C11.028-12.83,5.491-10.533,1.624-6.534-.013-4.842-.077-2.286,0,0" fill="#973947"/>
      </g>
      <g id="Grupo_214" data-name="Grupo 214" transform="translate(4.31 -12.563)">
        <path id="Caminho_150" data-name="Caminho 150" d="M0,0Q.012.344.026.677c.219,5.3,3.357,7.679,8.515,8.234,3.354.361,9.692-1.529,11.249-4.856a8.194,8.194,0,0,0,.363-7.038,19.579,19.579,0,0,0-4.385-5.709C11.028-12.83,5.491-10.533,1.624-6.534-.013-4.842-.077-2.286,0,0Z" fill="none" stroke="#973947" stroke-width="1"/>
      </g>
    </g>
  </g>
</svg>
