<svg xmlns="http://www.w3.org/2000/svg" xmlns:xlink="http://www.w3.org/1999/xlink" width="609" height="108" viewBox="0 0 609 108">
  <defs>
    <clipPath id="clip-path">
      <rect id="Retângulo_88" data-name="Retângulo 88" width="609" height="108" transform="translate(785 838)" fill="none"/>
    </clipPath>
    <clipPath id="clip-path-2">
      <path id="Caminho_913" data-name="Caminho 913" d="M0,0H255.415V-157.011H0Z" fill="none"/>
    </clipPath>
  </defs>
  <g id="bg_referencias" transform="translate(-785 -838)" clip-path="url(#clip-path)">
    <g id="Grupo_900" data-name="Grupo 900" transform="translate(1075.168 903.5)">
      <g id="Grupo_898" data-name="Grupo 898" clip-path="url(#clip-path-2)">
        <g id="Grupo_896" data-name="Grupo 896" transform="translate(128.615 -8.912)">
          <path id="Caminho_911" data-name="Caminho 911" d="M0,0A39.893,39.893,0,0,1-9.342-11.445,34.544,34.544,0,0,1-13.678-26.6c-.361-9.3,3.012-18.338,6.6-26.948C-3.416-62.351.107-70.913,2.137-80.2c1.271-5.815,2.33-11.69,4.3-17.357C11.191-111.224,20-122.983,32.5-130.472a62.757,62.757,0,0,1,32.824-8.9,64.71,64.71,0,0,1,36.5,11.51c1.139.812,2.229,1.681,3.295,2.585s2.121,1.815,3.117,2.794c16.559,16.263,23.057,42.4,15.313,65.555a61.772,61.772,0,0,1-9.348,17.716C103.26-24.792,88.121-19.914,72.387-13.24A76.957,76.957,0,0,0,59.863-6.726C52.32-1.729,45.072,4.1,36.455,6.951A38.086,38.086,0,0,1,11.84,6.784,38.314,38.314,0,0,1,0,0" fill="#ff9a39"/>
        </g>
        <g id="Grupo_897" data-name="Grupo 897" transform="translate(11.442 -149.935)">
          <path id="Caminho_912" data-name="Caminho 912" d="M0,0A32.383,32.383,0,0,1,10.565-5.671,28.033,28.033,0,0,1,23.31-6.778c7.467,1.151,14.144,5.24,20.451,9.428,6.444,4.286,12.72,8.417,19.806,11.473a120.8,120.8,0,0,1,13.162,6.114C86.883,26.143,94.888,34.979,98.918,46.1a50.945,50.945,0,0,1,2.006,27.53,52.545,52.545,0,0,1-14.823,27.3c-.824.78-1.687,1.515-2.571,2.223s-1.774,1.408-2.708,2.051c-15.523,10.676-37.35,11.8-54.6,2.049A50.068,50.068,0,0,1,13.552,97.064C3.759,86.112,2.22,73.293-.662,59.726A62.661,62.661,0,0,0-3.913,48.737c-2.815-6.783-6.332-13.461-7.274-20.767A30.664,30.664,0,0,1,0,0" fill="#ffc734"/>
        </g>
      </g>
    </g>
  </g>
</svg>
