<svg xmlns="http://www.w3.org/2000/svg" xmlns:xlink="http://www.w3.org/1999/xlink" width="23.011" height="23.006" viewBox="0 0 23.011 23.006">
  <defs>
    <clipPath id="clip-path">
      <path id="Caminho_24" data-name="Caminho 24" d="M0,0H23.011V-23.006H0Z" fill="none"/>
    </clipPath>
  </defs>
  <g id="Grupo_36" data-name="Grupo 36" transform="translate(0 23.006)">
    <g id="Grupo_35" data-name="Grupo 35" clip-path="url(#clip-path)">
      <g id="Grupo_34" data-name="Grupo 34" transform="translate(21.206 -21.233)">
        <path id="Caminho_23" data-name="Caminho 23" d="M0,0A6.348,6.348,0,0,1,1.322,1.944,5.5,5.5,0,0,1,1.8,4.406,10.333,10.333,0,0,1,.38,8.586a24.772,24.772,0,0,0-1.83,4.1,23.872,23.872,0,0,1-.923,2.692,9.725,9.725,0,0,1-4.588,4.855,9.988,9.988,0,0,1-5.326.956,10.3,10.3,0,0,1-5.626-2.331c-.169-.144-.33-.3-.486-.456s-.311-.316-.455-.485a10.278,10.278,0,0,1-1.519-10.6,9.812,9.812,0,0,1,1.728-2.678c1.934-2.133,4.4-2.7,6.988-3.536A12.248,12.248,0,0,0-9.582.236a16.4,16.4,0,0,1,3.9-1.843,6.055,6.055,0,0,1,3.9.368A6.088,6.088,0,0,1,0,0" fill="#006462"/>
      </g>
    </g>
  </g>
</svg>
