<svg xmlns="http://www.w3.org/2000/svg" xmlns:xlink="http://www.w3.org/1999/xlink" width="215.433" height="102.047" viewBox="0 0 215.433 102.047">
  <defs>
    <clipPath id="clip-path">
      <path id="Caminho_155" data-name="Caminho 155" d="M0,0H215.433V-102.047H0Z" fill="none"/>
    </clipPath>
  </defs>
  <g id="bg_tema_cie" transform="translate(0 102.047)">
    <g id="Grupo_220" data-name="Grupo 220" clip-path="url(#clip-path)">
      <g id="Grupo_217" data-name="Grupo 217" transform="translate(151.936 -204.348)">
        <path id="Caminho_152" data-name="Caminho 152" d="M0,0A35.268,35.268,0,0,1,12.973,1.484,30.545,30.545,0,0,1,25.062,8.4c5.965,5.665,9.4,13.466,12.44,21.128,3.111,7.833,6.158,15.425,10.6,22.556a131.178,131.178,0,0,1,7.979,13.639c5.42,11.584,7.1,24.458,3.8,36.911A55.48,55.48,0,0,1,44.592,128.51a57.2,57.2,0,0,1-30.2,15.224c-1.223.188-2.449.311-3.682.4s-2.461.158-3.693.153c-20.514-.083-40.741-12.62-50.121-32.055a54.594,54.594,0,0,1-5.01-16.98c-1.963-15.875,4.617-28.3,10.459-42.226a68.005,68.005,0,0,0,3.912-11.847c1.693-7.815,2.689-15.973,6.383-23.093A33.653,33.653,0,0,1-11.678,3.007,33.858,33.858,0,0,1,0,0" fill="#c7ede9"/>
      </g>
      <g id="Grupo_218" data-name="Grupo 218" transform="translate(131.12 -24.938)">
        <path id="Caminho_153" data-name="Caminho 153" d="M0,0A31.24,31.24,0,0,1-6.3,9.686,27.05,27.05,0,0,1-16.55,16.529c-6.841,2.487-14.376,2.127-21.644,1.51-7.43-.633-14.647-1.213-22.047-.512a116.185,116.185,0,0,1-13.952.936A47.82,47.82,0,0,1-104.923,6.9a49.114,49.114,0,0,1-14.452-22.326,50.612,50.612,0,0,1-.13-29.931c.334-1.039.722-2.063,1.141-3.069s.846-2.011,1.338-2.988c8.164-16.213,26.079-27.279,45.173-27.035a48.339,48.339,0,0,1,15.424,2.74C-43.083-71-35.841-60.883-27.119-50.758a60.166,60.166,0,0,0,7.838,7.774c5.52,4.425,11.587,8.437,15.767,14.172A29.789,29.789,0,0,1,2.229-10.436,29.954,29.954,0,0,1,0,0" fill="#006361"/>
      </g>
      <g id="Grupo_219" data-name="Grupo 219" transform="translate(62.75 -103.834)">
        <path id="Caminho_154" data-name="Caminho 154" d="M0,0C4.876,1.021,21.09,8.731,21.09,8.731c.282.728,8.262,7.047,8.888,7.6a62.9,62.9,0,0,0,6.262,5.456c3.82,2.593,6.832,5.826,10.024,9.192a106.32,106.32,0,0,0,10.426,9.44,35.53,35.53,0,0,1,5.8,5.595c2.577,3.275,4.055,7.193,5.636,11.054A29.8,29.8,0,0,1,70.18,71.879c-.583,5-4.057,9.651-7.292,13.115-7.02,7.517-16.754,12.468-26.809,12.871-12.127.487-24.3.322-36.432.322-5.584,0-11.486.6-17.018-.275-7.9-1.246-15.312-5.429-21.532-10.477a32.992,32.992,0,0,1-6.589-6.4,29.093,29.093,0,0,1-3.338-6.973c-1.929-5.23-1.847-10.618-1.832-16.164.007-2.594.041-5.191-.005-7.784-.053-2.972-.214-5.222,1.023-8.012,1.407-3.171,3.6-6.08,5.2-9.174,1.619-3.144,3.824-5.675,5.848-8.521,2.507-3.526,5.008-7.141,7.29-10.823,2.292-3.7,6.145-6.447,9.692-8.683A25.5,25.5,0,0,1-7.234.964,57.061,57.061,0,0,1,13.5,4.865a63.524,63.524,0,0,1,12.736,6.6c4.456,3.052,8.176,6.971,12.293,10.479A147.78,147.78,0,0,0,53.861,33.235a82.59,82.59,0,0,1,7.262,5.052,41.689,41.689,0,0,1,7.856,9.236,26.771,26.771,0,0,1,3.5,8.588c.66,2.562,1.591,5.111,1.995,7.736.914,5.932-1.644,10.93-5.37,15.229-4.222,4.873-8.534,9.239-14.192,12.245-9.792,5.2-21.145,4.836-31.715,3.227-6.83-1.039-13.163-1.47-19.931.2-6.8,1.678-13.7,2.957-20.695,1.565a55.147,55.147,0,0,1-10.188-3.051c-3.45-1.447-6.618-3.722-9.862-5.6-3.487-2.014-6.723-3.953-9.533-6.981a48.966,48.966,0,0,1-8.182-13.031c-3.63-8.165-2.552-17.945-.211-26.333,3.2-11.459,10.263-20.766,18.4-28.849C-30.778,6.294-23.353-.181-14.731-2.055A39.906,39.906,0,0,1,.855-2.183,93,93,0,0,1,14.214,1.175a37.242,37.242,0,0,1,10.336,5.9c2.954,2.362,4.7,5.772,7.444,8.361s5.546,5.218,8.5,7.537A84.039,84.039,0,0,1,49.1,30.538c2.312,2.395,4.067,5.277,6.381,7.673,2.215,2.294,4.583,4.254,6.6,6.771A24.249,24.249,0,0,1,66.7,54.7c.907,3.879.67,7.947.692,11.9.023,4.3.205,8.643-1.547,12.665-1.785,4.1-5.09,7.188-8.524,9.748a27.642,27.642,0,0,1-15.2,5.754c-6.679.371-12.73-2.611-19.305-3.024A49.13,49.13,0,0,0,9.08,92.7c-3.781.854-7.513,1.668-11.326,2.358-8.465,1.533-18.022,2.9-26.165-.949A54.4,54.4,0,0,1-34.9,89.948a59.96,59.96,0,0,1-6.446-4.756A51.206,51.206,0,0,1-51.535,71.78c-2.881-5.507-3.844-11.221-3.944-17.428a51.513,51.513,0,0,1,.493-9.477,32.9,32.9,0,0,1,3.113-8.469c4.949-10.167,12.429-18.208,20-26.24a46.1,46.1,0,0,1,9.668-7.6c2.941-1.815,5.882-3.3,9.318-3.586A81.155,81.155,0,0,1,0,0Z" fill="none" stroke="#ffdb82" stroke-linecap="round" stroke-linejoin="round" stroke-width="1"/>
      </g>
    </g>
  </g>
</svg>
