<svg xmlns="http://www.w3.org/2000/svg" xmlns:xlink="http://www.w3.org/1999/xlink" width="206.362" height="103.789" viewBox="0 0 206.362 103.789">
  <defs>
    <clipPath id="clip-path">
      <path id="Caminho_85" data-name="Caminho 85" d="M0,0H206.362V-103.789H0Z" fill="none"/>
    </clipPath>
  </defs>
  <g id="bg_tema_arte" transform="translate(0 103.789)">
    <g id="Grupo_117" data-name="Grupo 117" clip-path="url(#clip-path)">
      <g id="Grupo_114" data-name="Grupo 114" transform="translate(39.14 -24.146)">
        <path id="Caminho_82" data-name="Caminho 82" d="M0,0A30.878,30.878,0,0,0,2.419-11.164,26.69,26.69,0,0,0,.085-23.127C-2.93-29.662-8.427-34.707-13.92-39.379c-5.616-4.777-11.049-9.441-15.707-15.127a115.121,115.121,0,0,0-9.057-10.451A47.283,47.283,0,0,0-68.2-78.484a48.547,48.547,0,0,0-25.739,5.392,50.064,50.064,0,0,0-21.109,20.744c-.5.961-.945,1.944-1.362,2.94s-.823,2-1.166,3.017c-5.7,17.022-1,37.307,12.462,50.547A47.856,47.856,0,0,0-92.452,13.08c12.6,6.092,24.745,4.137,37.928,3.211a59.439,59.439,0,0,1,10.917.092c6.951.8,13.99,2.263,20.929,1.207a29.476,29.476,0,0,0,16.9-8.758A29.66,29.66,0,0,0,0,0" fill="#ffdb82"/>
      </g>
      <g id="Grupo_115" data-name="Grupo 115" transform="translate(190.998 -94.225)">
        <path id="Caminho_83" data-name="Caminho 83" d="M0,0A48.687,48.687,0,0,1-9.426,15.361a42.1,42.1,0,0,1-15.709,11.09c-10.567,4.158-22.332,3.906-33.691,3.24-11.612-.679-22.89-1.3-34.4.1-7.209.875-14.4,2.019-21.718,2.027-17.655.02-34.74-5.39-48.395-16.783a76.559,76.559,0,0,1-23.449-34.225c-5.042-15.039-5.8-31.668-1.425-46.669.478-1.637,1.04-3.245,1.653-4.833.594-1.6,1.237-3.171,1.964-4.714,12.072-25.614,39.556-43.606,69.343-44a75.279,75.279,0,0,1,24.164,3.642c21.006,6.807,32.713,22.282,46.728,37.715a93.463,93.463,0,0,0,12.54,11.805c8.789,6.678,18.414,12.685,25.167,21.459A46.464,46.464,0,0,1,3.05-16.365,46.779,46.779,0,0,1,0,0" fill="#0794d4"/>
      </g>
      <g id="Grupo_116" data-name="Grupo 116" transform="translate(82.572 -214.467)">
        <path id="Caminho_84" data-name="Caminho 84" d="M0,0C7.645,1.392,33.245,12.754,33.245,12.754c.47,1.124,13.172,10.653,14.171,11.493,3.374,2.838,6.269,5.867,9.989,8.253,6.062,3.887,10.892,8.806,16.008,13.925a165.985,165.985,0,0,0,16.643,14.3,55.413,55.413,0,0,1,9.268,8.488c4.152,5,6.617,11.053,9.241,17.008a46.5,46.5,0,0,1,3.814,23.011c-.706,7.813-5.933,15.216-10.837,20.75C90.9,141.986,75.864,152.869,60.26,151.145c-30.155-3.333-41.21-.215-56.8,1.989a100.215,100.215,0,0,1-26.55.266c-12.367-1.622-24.1-7.841-34.007-15.46-3.828-2.944-7.582-5.758-10.536-9.713a45.391,45.391,0,0,1-5.491-10.738c-3.222-8.077-3.313-16.482-3.517-25.133-.1-4.044-.148-8.1-.325-12.138-.2-4.632-.548-8.135,1.269-12.537,2.063-5,5.371-9.628,7.728-14.518,2.4-4.969,5.732-9,8.771-13.526,3.765-5.6,7.518-11.342,10.927-17.176,3.423-5.859,9.319-10.305,14.759-13.937C-26.532,3.862-19.49,2-11.241,1.8A89.061,89.061,0,0,1,21.247,7.035a99.13,99.13,0,0,1,20.131,9.779c7.074,4.578,13.035,10.537,19.6,15.839A230.338,230.338,0,0,0,85.352,49.629a128.876,128.876,0,0,1,11.531,7.582c4.829,3.751,9.1,9.017,12.627,14.083,2.933,4.21,4.407,8.326,5.812,13.249,1.133,3.968,2.689,7.9,3.427,11.983,1.668,9.214-2.118,17.111-7.753,23.969-6.385,7.77-12.931,14.755-21.632,19.674-15.058,8.512-32.777,8.406-49.327,6.328-10.693-1.342-20.588-1.755-31.073,1.124-10.538,2.894-21.236,5.171-32.21,3.285a86,86,0,0,1-16.011-4.341c-5.441-2.115-10.473-5.534-15.608-8.323-5.521-3-10.647-5.889-15.152-10.5-5.361-5.482-9.95-12.972-13.292-19.988-5.993-12.584-4.713-27.88-1.4-41.057,4.52-18,15.157-32.8,27.523-45.74C-47.74,11.072-36.426.672-23.057-2.6a62.239,62.239,0,0,1,24.3-.836A145.119,145.119,0,0,1,22.214,1.252a58.108,58.108,0,0,1,16.36,8.777c4.7,3.563,7.559,8.81,11.949,12.734s8.863,7.911,13.564,11.407A131.149,131.149,0,0,1,77.825,45.617c3.7,3.64,6.557,8.064,10.263,11.706,3.548,3.486,7.321,6.447,10.562,10.29a37.834,37.834,0,0,1,7.6,14.967c1.572,6.011,1.368,12.365,1.564,18.529.212,6.7.672,13.47-1.9,19.815-2.616,6.465-7.644,11.417-12.895,15.55a43.127,43.127,0,0,1-23.475,9.593c-10.4.852-19.959-3.552-30.228-3.927a76.69,76.69,0,0,0-21.379,2.046C12.084,145.673,6.3,147.094.379,148.327c-13.139,2.736-27.987,5.253-40.841-.412a84.781,84.781,0,0,1-10.3-6.219,93.775,93.775,0,0,1-10.247-7.153,79.86,79.86,0,0,1-16.43-20.5c-4.717-8.47-6.453-17.342-6.862-27.018a80.318,80.318,0,0,1,.382-14.8,51.337,51.337,0,0,1,4.508-13.333c7.3-16.058,18.64-28.9,30.122-41.738A71.921,71.921,0,0,1-34.521,4.9c4.513-2.951,9.04-5.386,14.386-5.972C-20.135-1.069-7.645-1.393,0,0Z" fill="none" stroke="#ffdb82" stroke-linecap="round" stroke-linejoin="round" stroke-width="1"/>
      </g>
    </g>
  </g>
</svg>
