<svg xmlns="http://www.w3.org/2000/svg" xmlns:xlink="http://www.w3.org/1999/xlink" width="52" height="27" viewBox="0 0 52 27">
  <defs>
    <clipPath id="clip-path">
      <rect id="Retângulo_2" data-name="Retângulo 2" width="52" height="27" transform="translate(26 487)" fill="none"/>
    </clipPath>
    <clipPath id="clip-path-2">
      <path id="Caminho_18" data-name="Caminho 18" d="M0,0H73.486V-23.449H0Z" fill="none"/>
    </clipPath>
  </defs>
  <g id="bg_textoa" transform="translate(-26 -487)" clip-path="url(#clip-path)">
    <g id="Grupo_28" data-name="Grupo 28" transform="translate(13.019 511.898)">
      <g id="Grupo_27" data-name="Grupo 27" clip-path="url(#clip-path-2)">
        <g id="Grupo_26" data-name="Grupo 26" transform="translate(73.457 -10.057)">
          <path id="Caminho_17" data-name="Caminho 17" d="M0,0A4.988,4.988,0,0,0-1.237-2.813a6.737,6.737,0,0,0-.049-1.6,4.319,4.319,0,0,0-1.28-3.273,7.383,7.383,0,0,0-3.49-1.932q-.292-.167-.588-.307c-1.6-1.433-3.889-2.3-5.522-1.893a11.336,11.336,0,0,1-4.239.011,4.446,4.446,0,0,0-3.286.756,8.714,8.714,0,0,0-3.846-.935,15.023,15.023,0,0,0-7,.6,4.823,4.823,0,0,0-1.475-.622c-.039-.03-.08-.059-.122-.088a6.718,6.718,0,0,0-5.693-.438,8.973,8.973,0,0,0-3.053.723l-.035.012a4.05,4.05,0,0,0-2.805-1.021,21.593,21.593,0,0,1-4.867-.428c-1.9-.424-4.871.145-7.247,1.224a10.129,10.129,0,0,0-2.254.3c-.195-.026-.38-.056-.55-.089-1.779-.346-4.527.429-6.585,1.7-.068.036-.135.074-.2.111a9.012,9.012,0,0,1-.92-.082c-2.447-.355-5.707,2.1-6.579,4.966a4.643,4.643,0,0,0-.154,1.654,5.712,5.712,0,0,0-.363,2.527,8.634,8.634,0,0,0,2.864,5.223,7.394,7.394,0,0,0,.627.457c.051.069.1.137.155.2A12.235,12.235,0,0,0-63.773,8.6a7.559,7.559,0,0,0,4.44,1.109,23.138,23.138,0,0,1,6.134.258,4.753,4.753,0,0,0,4.248-1.3h0a22.106,22.106,0,0,0,7.8-.09c.171,0,.341-.008.508-.017a4.1,4.1,0,0,0,1.194-.074,13.307,13.307,0,0,1,5.152.135,9.919,9.919,0,0,0,6.015-.91,20.6,20.6,0,0,0,3.1.65,12.367,12.367,0,0,0,5.866,1.691,6.381,6.381,0,0,0,1.984-.289c.494-.161,1.051-.309,1.625-.435a4.794,4.794,0,0,0,1.193-.192l.254-.075A12.382,12.382,0,0,1-11.863,8.9a5.383,5.383,0,0,0,2.4-.5A5.147,5.147,0,0,0-6.884,7.14c.185-.024.364-.053.535-.088.111.035.214.072.308.111a3.648,3.648,0,0,0,2.777-.145A4.992,4.992,0,0,0-.605,4.378,11.042,11.042,0,0,0,0,0M-3.144-7.134A3.558,3.558,0,0,1-2.081-4.539a7.072,7.072,0,0,0-.51-1.572,6.648,6.648,0,0,0-.818-1.28c.093.084.181.169.265.257m-.169,1.368A6.691,6.691,0,0,1-2.8-3.975c-.1-.042-.2-.08-.3-.113A4.31,4.31,0,0,0-4.329-5.926c-.061-.056-.124-.11-.188-.163a9.637,9.637,0,0,0-.669-1.966A7.063,7.063,0,0,1-3.313-5.766M-52.772,7.453c-.107.013-.214.021-.319.024.089-.014.179-.031.269-.05l.05.026m-2.172-.011c-.138.005-.279.011-.421.019l-.183-.047.178-.005c.147.009.29.02.426.033M-65.135,5.786c-.437-.095-.872-.208-1.3-.337q-.242-.277-.457-.566a10.273,10.273,0,0,0,1.753.9m-2.927-3.439-.038-.021c-.027-.05-.052-.1-.077-.15l-.009-.031c.039.068.081.135.124.2M-11.712-8.31h.018l.1.047c-.039-.016-.078-.033-.118-.048m2.009.3c.1.024.2.05.3.076-.082-.012-.165-.024-.247-.034L-9.7-8.01m-42.55-3.279a14.222,14.222,0,0,0,1.837-.307,3.473,3.473,0,0,1,2.656.537c-.331.116-.694.224-1.065.317a4.881,4.881,0,0,0-.877-.086c-.089,0-.178,0-.264.01a11.487,11.487,0,0,1-1.4,0,6.357,6.357,0,0,0-.886-.469m4.086,1.607.207-.005.012.005-.472.127-.077,0c.112-.038.216-.087.33-.123m41.359.71a5.252,5.252,0,0,1,.829,1.124,6.631,6.631,0,0,1,.445,1.085c-.089-.048-.18-.094-.272-.139a9.01,9.01,0,0,0-5.34-2.162l2.185-.088a10.049,10.049,0,0,1,2.153.18m-5.165-2.07a4.624,4.624,0,0,1,2.9.461,3.89,3.89,0,0,0-.665.035,14.168,14.168,0,0,1-4.453-.231c-.058-.014-.117-.026-.177-.037a9.913,9.913,0,0,0,2.4-.228M-14.378-10a11.6,11.6,0,0,0,1.25.213l-.57.023q-.375-.069-.764-.114c-.158-.074-.323-.143-.492-.207a3.6,3.6,0,0,1,.576.085m-2.189-1.026a9.567,9.567,0,0,0,.97.145,7.856,7.856,0,0,0-1.6.276,10.216,10.216,0,0,0-1.06-.055c-.134,0-.269,0-.405.008l-.106-.007a3.4,3.4,0,0,1,2.2-.367m-4.182.379-.02,0-.274,0c-.07-.06-.142-.118-.215-.175.174.054.344.112.509.176m-3.721-.287a2.865,2.865,0,0,1,2.124.35l-.209.023c-.294-.063-.572-.131-.823-.2a4.582,4.582,0,0,0-1.137-.159l.045-.012m-7.988.284a17.645,17.645,0,0,1-2.838.2,6.47,6.47,0,0,1,2.838-.2M-33.857-12a15.717,15.717,0,0,1-2.5-.064,6.393,6.393,0,0,1,2.5.064m-3.621.581a14.158,14.158,0,0,0,1.908.22c-.071.025-.142.052-.21.08a9.283,9.283,0,0,1-1.118.368,3.792,3.792,0,0,0-1.257-.039,10.445,10.445,0,0,1-1.73.08q-.176-.241-.374-.464a6.263,6.263,0,0,1,2.781-.245m-3.564.577.068.07-.167-.016.1-.054m-7.717-1.632a22.523,22.523,0,0,0,5.086.445,3.128,3.128,0,0,1,1.864.554q-.438.181-.861.394a7.64,7.64,0,0,0-2.723-.539,4.865,4.865,0,0,0-1.466.209c-.1-.079-.208-.154-.316-.226a4.32,4.32,0,0,0-3.434-.74,16.551,16.551,0,0,1-3.079.392,10.566,10.566,0,0,1,4.929-.489m-5.391,2.023c.073.021.149.042.229.063a3.676,3.676,0,0,0-.425.087A13.267,13.267,0,0,1-56-9.982l-.775-.225a4.335,4.335,0,0,1,2.626-.24m-3.952-.225-.07.058-.377-.11c.144.019.293.036.447.052m-3.391,1.217q-.39.118-.788.269c.112-.066.226-.132.343-.2.154-.022.3-.047.445-.073m-.455-.827-.246.129c-.335.046-.693.083-1.058.111a8.072,8.072,0,0,1,1.3-.24m-3.916,1.794a5.689,5.689,0,0,1,.859-.7c.421.006.864,0,1.307-.024a8.215,8.215,0,0,0-.814.674,3.556,3.556,0,0,0-.614.79q-.206.132-.4.27a9.651,9.651,0,0,0-1.442.564,7.307,7.307,0,0,1,1.108-1.571m-.989-.833a2.687,2.687,0,0,1,.394.028h0a5.714,5.714,0,0,0-1.186,1.3,7.068,7.068,0,0,0-.589,1.179l-.109-.008a4.333,4.333,0,0,0-3.45,1.367c-.094.1-.185.192-.271.293.818-2.223,3.268-4.162,5.209-4.162m-4.372,4.435A3.57,3.57,0,0,1-68.542-6.03c-.018.045-.035.09-.052.135a7.825,7.825,0,0,0-2.884,4.672c-.018.1-.033.2-.045.31a7.123,7.123,0,0,1-.733-2.441,4.883,4.883,0,0,1,1.031-1.532m-1.415,3.88a4.494,4.494,0,0,1-.016-.506A7.079,7.079,0,0,0-71.515.569a.039.039,0,0,1,.008.01,9.532,9.532,0,0,0,.5,2.114,7.7,7.7,0,0,1-1.633-3.7m1.9,1.258a5.315,5.315,0,0,1,.044-1.336A6.774,6.774,0,0,1-69.05-4.367a7.751,7.751,0,0,0-.136.843A4.207,4.207,0,0,0-69.4-2.439,4.968,4.968,0,0,0-69.728-.5a6.9,6.9,0,0,0,.4,2.027A9.086,9.086,0,0,1-70.735.252m1.351,3.9A8.086,8.086,0,0,1-70.5,1.6a12.407,12.407,0,0,0,1.682,1.225,8.981,8.981,0,0,0,.407,1.064,8.007,8.007,0,0,0,.6,1.06,10.775,10.775,0,0,1-1.567-.8M-67.608,5.9c.238.089.481.173.727.252.165.182.338.36.517.533A11.606,11.606,0,0,1-67.608,5.9m4.135,1.959a11.783,11.783,0,0,1-1.821-1.283c.473.1.949.185,1.421.246a5.066,5.066,0,0,0,3.684,1.071,9.957,9.957,0,0,1,1.851-.064c-.367.071-.714.151-1.025.238a8.038,8.038,0,0,1-4.11-.208m10.424,1.328a25.539,25.539,0,0,0-4.406-.374,15.607,15.607,0,0,0-1.985.109c-.048.007-.1.012-.145.017.15-.028.3-.062.437-.1a19.152,19.152,0,0,1,3.7-.569c.172.049.335.1.486.157a6.4,6.4,0,0,0,4.2-.179c.266.08.542.153.823.221a3.91,3.91,0,0,1-3.1.719m15.544-2.152.023-.013.065.006-.029.013-.059-.006m3.411.821c-.076-.02-.154-.039-.233-.057l.017-.006a7.377,7.377,0,0,1,.9.088,4.306,4.306,0,0,0,2.9-.658l.456-.072c.168.078.335.157.5.216a8.3,8.3,0,0,1-4.542.489m9.179-.264c-.068-.04-.135-.08-.2-.121.561-.005,1.136-.036,1.716-.094a11.181,11.181,0,0,1,1.648.214c.092.02.184.038.279.052a14.642,14.642,0,0,1-3.442-.051m1.941.93a10.95,10.95,0,0,0,2.772-.3,10.99,10.99,0,0,0,2.334.873,8.932,8.932,0,0,1-5.106-.575m13.318-.895c-.085.007-.169.007-.253.009a19.387,19.387,0,0,0-4.533.657c-.452.068-.916.153-1.369.251a8.156,8.156,0,0,1-3.216-.66A21.621,21.621,0,0,1-14.672,7.2c.234.011.463.01.689,0,.015,0,.03,0,.045,0a4.379,4.379,0,0,0,1.072-.084,8.4,8.4,0,0,0,3.493.362c-.1.048-.189.093-.283.136m4.394-2.387a3.86,3.86,0,0,0,.588-.316A4.357,4.357,0,0,0-3.381,3.609a4.415,4.415,0,0,0,.461-.583A3.835,3.835,0,0,1-3.6,4.555,4.163,4.163,0,0,1-5.46,5.54c.068-.1.133-.2.2-.3m3.914-1.155a4.181,4.181,0,0,1-2.23,2.2,3.422,3.422,0,0,1-1.3.293,5.166,5.166,0,0,0,1.61-1.17c.1-.105.187-.214.273-.326a7.029,7.029,0,0,0,1.638-3.46,4.5,4.5,0,0,0-.3-2.246,10.134,10.134,0,0,0,.263-1.05A4.116,4.116,0,0,1-.8.073a10.267,10.267,0,0,1-.551,4.008" fill="#7d417d"/>
        </g>
      </g>
    </g>
  </g>
</svg>
