<svg xmlns="http://www.w3.org/2000/svg" xmlns:xlink="http://www.w3.org/1999/xlink" width="333.406" height="25.981" viewBox="0 0 333.406 25.981">
  <defs>
    <clipPath id="clip-path">
      <path id="Caminho_16" data-name="Caminho 16" d="M0,0H333.406V-25.981H0Z" fill="none"/>
    </clipPath>
  </defs>
  <g id="bg_titulo" transform="translate(0 25.981)">
    <g id="Grupo_25" data-name="Grupo 25" clip-path="url(#clip-path)">
      <g id="Grupo_16" data-name="Grupo 16" transform="translate(81.389 -11.143)">
        <path id="Caminho_7" data-name="Caminho 7" d="M0,0A5.532,5.532,0,0,0-1.37-3.117,7.487,7.487,0,0,0-1.425-4.89,4.781,4.781,0,0,0-2.843-8.516,8.184,8.184,0,0,0-6.71-10.657q-.324-.183-.652-.339c-1.768-1.589-4.308-2.547-6.118-2.1a12.544,12.544,0,0,1-4.7.013,4.934,4.934,0,0,0-3.642.837,9.647,9.647,0,0,0-4.26-1.035,16.633,16.633,0,0,0-7.753.662,5.321,5.321,0,0,0-1.634-.69c-.044-.034-.089-.066-.136-.1a7.439,7.439,0,0,0-6.308-.484,9.925,9.925,0,0,0-3.381.8l-.039.013a4.487,4.487,0,0,0-3.109-1.132,23.857,23.857,0,0,1-5.393-.474c-2.1-.469-5.4.161-8.029,1.357a11.14,11.14,0,0,0-2.5.334c-.216-.029-.421-.062-.61-.1-1.971-.383-5.015.475-7.295,1.885-.075.04-.15.081-.223.123a10.2,10.2,0,0,1-1.02-.091c-2.71-.394-6.322,2.324-7.289,5.5a5.158,5.158,0,0,0-.171,1.833,6.314,6.314,0,0,0-.4,2.8,9.56,9.56,0,0,0,3.172,5.787,8.234,8.234,0,0,0,.695.506c.056.077.114.152.172.226a13.561,13.561,0,0,0,6.668,4.05A8.381,8.381,0,0,0-65.74,10.76a25.559,25.559,0,0,1,6.8.286A5.269,5.269,0,0,0-54.237,9.61l0,0a24.477,24.477,0,0,0,8.644-.1c.19,0,.378-.009.563-.019a4.5,4.5,0,0,0,1.322-.083A14.755,14.755,0,0,1-38,9.557a10.989,10.989,0,0,0,6.666-1.008,22.689,22.689,0,0,0,3.437.72,13.7,13.7,0,0,0,6.5,1.874,7.082,7.082,0,0,0,2.2-.32c.548-.179,1.165-.343,1.8-.482a5.329,5.329,0,0,0,1.323-.213c.091-.028.185-.056.281-.083a13.71,13.71,0,0,1,2.65-.182,5.963,5.963,0,0,0,2.655-.55,5.706,5.706,0,0,0,2.861-1.4c.2-.027.4-.059.593-.1.123.039.237.079.342.122a4.031,4.031,0,0,0,3.076-.161A5.528,5.528,0,0,0-.671,4.851,12.228,12.228,0,0,0,0,0M-3.483-7.9A3.938,3.938,0,0,1-2.306-5.029a7.774,7.774,0,0,0-.565-1.742,7.408,7.408,0,0,0-.906-1.418c.1.093.2.187.294.285m-.188,1.515A7.393,7.393,0,0,1-3.1-4.4c-.109-.047-.218-.089-.327-.125A4.783,4.783,0,0,0-4.8-6.566c-.068-.062-.138-.122-.209-.181a10.638,10.638,0,0,0-.741-2.177A7.814,7.814,0,0,1-3.671-6.389M-58.47,8.257c-.119.015-.237.024-.354.028.1-.016.2-.035.3-.056l.056.028m-2.407-.011c-.153.005-.309.012-.466.021l-.2-.052c.066,0,.132,0,.2-.006.162.01.321.022.472.037M-72.168,6.411c-.484-.1-.967-.23-1.436-.374q-.269-.308-.506-.627a11.245,11.245,0,0,0,1.942,1M-75.412,2.6c-.014-.009-.028-.016-.042-.024-.029-.055-.057-.11-.085-.166,0-.012-.006-.023-.01-.035.044.076.089.151.137.225M-12.976-9.207h.019l.111.052-.13-.053m2.225.332c.112.027.222.055.33.085-.09-.014-.182-.027-.274-.038l-.056-.047M-57.9-12.508a15.789,15.789,0,0,0,2.035-.34,3.843,3.843,0,0,1,2.943.595c-.367.129-.769.248-1.18.351A5.424,5.424,0,0,0-55.069-12c-.1,0-.2,0-.293.01a12.359,12.359,0,0,1-1.552,0,7.022,7.022,0,0,0-.981-.519m4.527,1.78.229-.005.014.005-.523.141-.086,0c.124-.043.24-.1.366-.137m45.825.787a5.859,5.859,0,0,1,.919,1.246,7.381,7.381,0,0,1,.493,1.2c-.1-.052-.2-.1-.3-.153a9.98,9.98,0,0,0-5.917-2.4l2.421-.1a11.154,11.154,0,0,1,2.386.2m-5.722-2.293a5.117,5.117,0,0,1,3.208.511,4.113,4.113,0,0,0-.737.039,15.745,15.745,0,0,1-4.934-.257c-.064-.015-.13-.028-.2-.041a10.969,10.969,0,0,0,2.659-.252m-2.666,1.156a12.781,12.781,0,0,0,1.385.236l-.632.026c-.277-.051-.559-.094-.845-.126-.176-.082-.359-.159-.546-.23a4.1,4.1,0,0,1,.638.094m-2.425-1.136a10.629,10.629,0,0,0,1.075.16,8.694,8.694,0,0,0-1.776.306,11.309,11.309,0,0,0-1.175-.061c-.148,0-.3,0-.448.009l-.118-.007a3.762,3.762,0,0,1,2.442-.407m-4.634.42-.021,0c-.1,0-.2,0-.3,0-.078-.066-.158-.131-.238-.193q.289.089.563.2m-4.123-.318a3.173,3.173,0,0,1,2.354.388l-.231.025c-.326-.07-.635-.146-.912-.224a5.076,5.076,0,0,0-1.26-.176l.049-.013m-8.85.314a19.549,19.549,0,0,1-3.144.227,7.176,7.176,0,0,1,3.144-.227m-1.55-1.493a17.48,17.48,0,0,1-2.772-.071,7.084,7.084,0,0,1,2.772.071m-4.012.643a15.69,15.69,0,0,0,2.115.244c-.08.028-.158.057-.234.089a10.333,10.333,0,0,1-1.238.408,4.183,4.183,0,0,0-1.393-.044,11.5,11.5,0,0,1-1.917.089q-.195-.268-.414-.514a6.95,6.95,0,0,1,3.081-.272m-3.949.64.075.078-.185-.018.11-.06m-8.55-1.809a24.987,24.987,0,0,0,5.635.494,3.449,3.449,0,0,1,2.065.614q-.484.2-.954.436a8.473,8.473,0,0,0-3.017-.6,5.4,5.4,0,0,0-1.624.232q-.171-.13-.35-.25a4.787,4.787,0,0,0-3.8-.82,18.413,18.413,0,0,1-3.412.434,11.731,11.731,0,0,1,5.461-.542M-60-11.575c.081.023.165.047.253.069a4.206,4.206,0,0,0-.47.1,14.836,14.836,0,0,1-1.834.35l-.858-.251A4.8,4.8,0,0,1-60-11.575m-4.378-.25-.078.064-.418-.121c.159.021.324.04.5.057m-3.758,1.348c-.288.088-.58.188-.873.3.124-.073.251-.146.38-.217.171-.025.335-.052.493-.082m-.5-.916c-.092.047-.182.095-.272.144-.372.051-.768.092-1.172.122a9.164,9.164,0,0,1,1.444-.266M-72.976-9.4a6.231,6.231,0,0,1,.951-.779c.468.006.958,0,1.449-.027a9.3,9.3,0,0,0-.9.746,3.957,3.957,0,0,0-.68.876q-.228.147-.449.3a10.823,10.823,0,0,0-1.6.625A8.089,8.089,0,0,1-72.976-9.4m-1.1-.924a3,3,0,0,1,.437.032h0a6.352,6.352,0,0,0-1.314,1.443A7.829,7.829,0,0,0-75.6-7.546l-.12-.009A4.8,4.8,0,0,0-79.543-6.04c-.1.1-.205.212-.3.324.907-2.463,3.622-4.612,5.772-4.612m-4.844,4.914a3.954,3.954,0,0,1,2.973-1.267c-.02.049-.039.1-.058.15A8.662,8.662,0,0,0-79.2-1.356c-.02.113-.037.227-.05.345a7.881,7.881,0,0,1-.813-2.705,5.434,5.434,0,0,1,1.143-1.7m-1.568,4.3a5.231,5.231,0,0,1-.018-.56A7.865,7.865,0,0,0-79.237.63l.009.011a10.519,10.519,0,0,0,.554,2.343,8.531,8.531,0,0,1-1.81-4.1M-78.373.279a5.832,5.832,0,0,1,.049-1.48,7.494,7.494,0,0,1,1.818-3.637,8.719,8.719,0,0,0-.151.933A4.638,4.638,0,0,0-76.9-2.7a5.5,5.5,0,0,0-.359,2.143,7.623,7.623,0,0,0,.442,2.246A9.959,9.959,0,0,1-78.373.279m1.5,4.323a8.962,8.962,0,0,1-1.24-2.824,13.815,13.815,0,0,0,1.864,1.356,9.742,9.742,0,0,0,.451,1.18,8.872,8.872,0,0,0,.662,1.174A11.849,11.849,0,0,1-76.877,4.6m1.969,1.931q.4.147.805.278c.183.2.375.4.573.592a12.938,12.938,0,0,1-1.378-.87M-70.326,8.7a13.053,13.053,0,0,1-2.019-1.423c.524.114,1.052.206,1.574.274a5.626,5.626,0,0,0,4.083,1.186,11.015,11.015,0,0,1,2.05-.071c-.406.079-.79.167-1.135.264a8.911,8.911,0,0,1-4.553-.23m11.549,1.471a28.3,28.3,0,0,0-4.882-.414,17.267,17.267,0,0,0-2.2.12c-.054.008-.107.014-.161.019.166-.032.328-.069.485-.113a21.235,21.235,0,0,1,4.094-.629c.19.054.371.112.539.173a7.083,7.083,0,0,0,4.651-.2c.295.088.6.17.912.245a4.339,4.339,0,0,1-3.439.8M-41.554,7.79l.025-.014.072.006-.033.015-.064-.007m3.779.909c-.084-.022-.171-.042-.259-.062a.139.139,0,0,1,.019-.006,8.269,8.269,0,0,1,1,.1A4.771,4.771,0,0,0-33.808,8l.506-.081a6.027,6.027,0,0,0,.559.24,9.2,9.2,0,0,1-5.032.541m10.17-.291c-.075-.044-.15-.089-.223-.135.622-.005,1.258-.04,1.9-.1a12.4,12.4,0,0,1,1.827.237c.1.022.2.042.308.058A16.3,16.3,0,0,1-27.6,8.408m2.15,1.03a12.173,12.173,0,0,0,3.071-.33,12.161,12.161,0,0,0,2.587.966,9.89,9.89,0,0,1-5.658-.636M-10.7,8.446c-.093.008-.187.008-.279.011A21.438,21.438,0,0,0-16,9.184c-.5.076-1.014.17-1.516.278a9.04,9.04,0,0,1-3.564-.731,23.92,23.92,0,0,1,4.826-.748c.259.012.513.011.763,0l.05,0a4.829,4.829,0,0,0,1.187-.093,9.311,9.311,0,0,0,3.87.4c-.1.053-.208.1-.313.15M-5.831,5.8a4.29,4.29,0,0,0,.652-.349A4.831,4.831,0,0,0-3.746,4a4.837,4.837,0,0,0,.51-.646,4.244,4.244,0,0,1-.757,1.694A4.614,4.614,0,0,1-6.05,6.138c.076-.11.148-.222.219-.337m4.338-1.279A4.632,4.632,0,0,1-3.964,6.96a3.794,3.794,0,0,1-1.443.325,5.725,5.725,0,0,0,1.784-1.3c.106-.117.207-.237.3-.362A7.787,7.787,0,0,0-1.506,1.794,4.97,4.97,0,0,0-1.835-.695a11.234,11.234,0,0,0,.292-1.163A4.568,4.568,0,0,1-.883.081a11.4,11.4,0,0,1-.61,4.441" fill="#ecf5e1"/>
      </g>
      <g id="Grupo_17" data-name="Grupo 17" transform="translate(112.887 -11.143)">
        <path id="Caminho_8" data-name="Caminho 8" d="M0,0A5.532,5.532,0,0,0-1.37-3.117,7.487,7.487,0,0,0-1.425-4.89,4.781,4.781,0,0,0-2.843-8.516,8.184,8.184,0,0,0-6.71-10.657q-.324-.183-.652-.339c-1.768-1.589-4.308-2.547-6.118-2.1a12.544,12.544,0,0,1-4.7.013,4.934,4.934,0,0,0-3.642.837,9.647,9.647,0,0,0-4.26-1.035,16.633,16.633,0,0,0-7.753.662,5.321,5.321,0,0,0-1.634-.69c-.044-.034-.089-.066-.136-.1a7.439,7.439,0,0,0-6.308-.484,9.925,9.925,0,0,0-3.381.8l-.039.013a4.487,4.487,0,0,0-3.109-1.132,23.857,23.857,0,0,1-5.393-.474c-2.1-.469-5.4.161-8.029,1.357a11.14,11.14,0,0,0-2.5.334c-.216-.029-.421-.062-.61-.1-1.971-.383-5.015.475-7.295,1.885-.075.04-.15.081-.223.123a10.2,10.2,0,0,1-1.02-.091c-2.71-.394-6.322,2.324-7.289,5.5a5.158,5.158,0,0,0-.171,1.833,6.314,6.314,0,0,0-.4,2.8,9.56,9.56,0,0,0,3.172,5.787,8.234,8.234,0,0,0,.695.506c.056.077.114.152.172.226a13.561,13.561,0,0,0,6.668,4.05A8.381,8.381,0,0,0-65.74,10.76a25.559,25.559,0,0,1,6.8.286A5.269,5.269,0,0,0-54.237,9.61l0,0a24.477,24.477,0,0,0,8.644-.1c.19,0,.378-.009.563-.019a4.5,4.5,0,0,0,1.322-.083A14.755,14.755,0,0,1-38,9.557a10.989,10.989,0,0,0,6.666-1.008,22.689,22.689,0,0,0,3.437.72,13.7,13.7,0,0,0,6.5,1.874,7.082,7.082,0,0,0,2.2-.32c.548-.179,1.165-.343,1.8-.482a5.329,5.329,0,0,0,1.323-.213c.091-.028.185-.056.281-.083a13.71,13.71,0,0,1,2.65-.182,5.963,5.963,0,0,0,2.655-.55,5.706,5.706,0,0,0,2.861-1.4c.2-.027.4-.059.593-.1.123.039.237.079.342.122a4.031,4.031,0,0,0,3.076-.161A5.528,5.528,0,0,0-.671,4.851,12.228,12.228,0,0,0,0,0M-3.483-7.9A3.938,3.938,0,0,1-2.306-5.029a7.774,7.774,0,0,0-.565-1.742,7.408,7.408,0,0,0-.906-1.418c.1.093.2.187.294.285m-.188,1.515A7.393,7.393,0,0,1-3.1-4.4c-.109-.047-.218-.089-.327-.125A4.783,4.783,0,0,0-4.8-6.566c-.068-.062-.138-.122-.209-.181a10.638,10.638,0,0,0-.741-2.177A7.814,7.814,0,0,1-3.671-6.389M-58.47,8.257c-.119.015-.237.024-.354.028.1-.016.2-.035.3-.056l.056.028m-2.407-.011c-.153.005-.309.012-.466.021l-.2-.052c.066,0,.132,0,.2-.006.162.01.321.022.472.037M-72.168,6.411c-.484-.1-.967-.23-1.436-.374q-.269-.308-.506-.627a11.245,11.245,0,0,0,1.942,1M-75.412,2.6c-.014-.009-.028-.016-.042-.024-.029-.055-.057-.11-.085-.166,0-.012-.006-.023-.01-.035.044.076.089.151.137.225M-12.976-9.207h.019l.111.052-.13-.053m2.225.332c.112.027.222.055.33.085-.09-.014-.182-.027-.274-.038l-.056-.047M-57.9-12.508a15.789,15.789,0,0,0,2.035-.34,3.843,3.843,0,0,1,2.943.595c-.367.129-.769.248-1.18.351A5.424,5.424,0,0,0-55.069-12c-.1,0-.2,0-.293.01a12.359,12.359,0,0,1-1.552,0,7.022,7.022,0,0,0-.981-.519m4.527,1.78.229-.005.014.005-.523.141-.086,0c.124-.043.24-.1.366-.137m45.825.787a5.859,5.859,0,0,1,.919,1.246,7.381,7.381,0,0,1,.493,1.2c-.1-.052-.2-.1-.3-.153a9.98,9.98,0,0,0-5.917-2.4l2.421-.1a11.154,11.154,0,0,1,2.386.2m-5.722-2.293a5.117,5.117,0,0,1,3.208.511,4.113,4.113,0,0,0-.737.039,15.745,15.745,0,0,1-4.934-.257c-.064-.015-.13-.028-.2-.041a10.969,10.969,0,0,0,2.659-.252m-2.666,1.156a12.781,12.781,0,0,0,1.385.236l-.632.026c-.277-.051-.559-.094-.845-.126-.176-.082-.359-.159-.546-.23a4.1,4.1,0,0,1,.638.094m-2.425-1.136a10.629,10.629,0,0,0,1.075.16,8.694,8.694,0,0,0-1.776.306,11.309,11.309,0,0,0-1.175-.061c-.148,0-.3,0-.448.009l-.118-.007a3.762,3.762,0,0,1,2.442-.407m-4.634.42-.021,0c-.1,0-.2,0-.3,0-.078-.066-.158-.131-.238-.193q.289.089.563.2m-4.123-.318a3.173,3.173,0,0,1,2.354.388l-.231.025c-.326-.07-.635-.146-.912-.224a5.076,5.076,0,0,0-1.26-.176l.049-.013m-8.85.314a19.549,19.549,0,0,1-3.144.227,7.176,7.176,0,0,1,3.144-.227m-1.55-1.493a17.48,17.48,0,0,1-2.772-.071,7.084,7.084,0,0,1,2.772.071m-4.012.643a15.69,15.69,0,0,0,2.115.244c-.08.028-.158.057-.234.089a10.333,10.333,0,0,1-1.238.408,4.183,4.183,0,0,0-1.393-.044,11.5,11.5,0,0,1-1.917.089q-.195-.268-.414-.514a6.95,6.95,0,0,1,3.081-.272m-3.949.64.075.078-.185-.018.11-.06m-8.55-1.809a24.987,24.987,0,0,0,5.635.494,3.449,3.449,0,0,1,2.065.614q-.484.2-.954.436a8.473,8.473,0,0,0-3.017-.6,5.4,5.4,0,0,0-1.624.232q-.171-.13-.35-.25a4.787,4.787,0,0,0-3.8-.82,18.413,18.413,0,0,1-3.412.434,11.731,11.731,0,0,1,5.461-.542M-60-11.575c.081.023.165.047.253.069a4.206,4.206,0,0,0-.47.1,14.836,14.836,0,0,1-1.834.35l-.858-.251A4.8,4.8,0,0,1-60-11.575m-4.378-.25-.078.064-.418-.121c.159.021.324.04.5.057m-3.758,1.348c-.288.088-.58.188-.873.3.124-.073.251-.146.38-.217.171-.025.335-.052.493-.082m-.5-.916c-.092.047-.182.095-.272.144-.372.051-.768.092-1.172.122a9.164,9.164,0,0,1,1.444-.266M-72.976-9.4a6.231,6.231,0,0,1,.951-.779c.468.006.958,0,1.449-.027a9.3,9.3,0,0,0-.9.746,3.957,3.957,0,0,0-.68.876q-.228.147-.449.3a10.823,10.823,0,0,0-1.6.625A8.089,8.089,0,0,1-72.976-9.4m-1.1-.924a3,3,0,0,1,.437.032h0a6.352,6.352,0,0,0-1.314,1.443A7.829,7.829,0,0,0-75.6-7.546l-.12-.009A4.8,4.8,0,0,0-79.543-6.04c-.1.1-.205.212-.3.324.907-2.463,3.622-4.612,5.772-4.612m-4.844,4.914a3.954,3.954,0,0,1,2.973-1.267c-.02.049-.039.1-.058.15A8.662,8.662,0,0,0-79.2-1.356c-.02.113-.037.227-.05.345a7.881,7.881,0,0,1-.813-2.705,5.434,5.434,0,0,1,1.143-1.7m-1.568,4.3a5.231,5.231,0,0,1-.018-.56A7.865,7.865,0,0,0-79.237.63l.009.011a10.519,10.519,0,0,0,.554,2.343,8.531,8.531,0,0,1-1.81-4.1M-78.373.279a5.832,5.832,0,0,1,.049-1.48,7.494,7.494,0,0,1,1.818-3.637,8.719,8.719,0,0,0-.151.933A4.638,4.638,0,0,0-76.9-2.7a5.5,5.5,0,0,0-.359,2.143,7.623,7.623,0,0,0,.442,2.246A9.959,9.959,0,0,1-78.373.279m1.5,4.323a8.962,8.962,0,0,1-1.24-2.824,13.815,13.815,0,0,0,1.864,1.356,9.742,9.742,0,0,0,.451,1.18,8.872,8.872,0,0,0,.662,1.174A11.849,11.849,0,0,1-76.877,4.6m1.969,1.931q.4.147.805.278c.183.2.375.4.573.592a12.938,12.938,0,0,1-1.378-.87M-70.326,8.7a13.053,13.053,0,0,1-2.019-1.423c.524.114,1.052.206,1.574.274a5.626,5.626,0,0,0,4.083,1.186,11.015,11.015,0,0,1,2.05-.071c-.406.079-.79.167-1.135.264a8.911,8.911,0,0,1-4.553-.23m11.549,1.471a28.3,28.3,0,0,0-4.882-.414,17.267,17.267,0,0,0-2.2.12c-.054.008-.107.014-.161.019.166-.032.328-.069.485-.113a21.235,21.235,0,0,1,4.094-.629c.19.054.371.112.539.173a7.083,7.083,0,0,0,4.651-.2c.295.088.6.17.912.245a4.339,4.339,0,0,1-3.439.8M-41.554,7.79l.025-.014.072.006-.033.015-.064-.007m3.779.909c-.084-.022-.171-.042-.259-.062a.139.139,0,0,1,.019-.006,8.269,8.269,0,0,1,1,.1A4.771,4.771,0,0,0-33.808,8l.506-.081a6.027,6.027,0,0,0,.559.24,9.2,9.2,0,0,1-5.032.541m10.17-.291c-.075-.044-.15-.089-.223-.135.622-.005,1.258-.04,1.9-.1a12.4,12.4,0,0,1,1.827.237c.1.022.2.042.308.058A16.3,16.3,0,0,1-27.6,8.408m2.15,1.03a12.173,12.173,0,0,0,3.071-.33,12.161,12.161,0,0,0,2.587.966,9.89,9.89,0,0,1-5.658-.636M-10.7,8.446c-.093.008-.187.008-.279.011A21.438,21.438,0,0,0-16,9.184c-.5.076-1.014.17-1.516.278a9.04,9.04,0,0,1-3.564-.731,23.92,23.92,0,0,1,4.826-.748c.259.012.513.011.763,0l.05,0a4.829,4.829,0,0,0,1.187-.093,9.311,9.311,0,0,0,3.87.4c-.1.053-.208.1-.313.15M-5.831,5.8a4.29,4.29,0,0,0,.652-.349A4.831,4.831,0,0,0-3.746,4a4.837,4.837,0,0,0,.51-.646,4.244,4.244,0,0,1-.757,1.694A4.614,4.614,0,0,1-6.05,6.138c.076-.11.148-.222.219-.337m4.338-1.279A4.632,4.632,0,0,1-3.964,6.96a3.794,3.794,0,0,1-1.443.325,5.725,5.725,0,0,0,1.784-1.3c.106-.117.207-.237.3-.362A7.787,7.787,0,0,0-1.506,1.794,4.97,4.97,0,0,0-1.835-.695a11.234,11.234,0,0,0,.292-1.163A4.568,4.568,0,0,1-.883.081a11.4,11.4,0,0,1-.61,4.441" fill="#ecf5e1"/>
      </g>
      <g id="Grupo_18" data-name="Grupo 18" transform="translate(144.385 -11.143)">
        <path id="Caminho_9" data-name="Caminho 9" d="M0,0A5.532,5.532,0,0,0-1.37-3.117,7.487,7.487,0,0,0-1.425-4.89,4.781,4.781,0,0,0-2.843-8.516,8.184,8.184,0,0,0-6.71-10.657q-.324-.183-.652-.339c-1.768-1.589-4.308-2.547-6.118-2.1a12.544,12.544,0,0,1-4.7.013,4.934,4.934,0,0,0-3.642.837,9.647,9.647,0,0,0-4.26-1.035,16.633,16.633,0,0,0-7.753.662,5.321,5.321,0,0,0-1.634-.69c-.044-.034-.089-.066-.136-.1a7.439,7.439,0,0,0-6.308-.484,9.925,9.925,0,0,0-3.381.8l-.039.013a4.487,4.487,0,0,0-3.109-1.132,23.857,23.857,0,0,1-5.393-.474c-2.1-.469-5.4.161-8.029,1.357a11.14,11.14,0,0,0-2.5.334c-.216-.029-.421-.062-.61-.1-1.971-.383-5.015.475-7.295,1.885-.075.04-.15.081-.223.123a10.2,10.2,0,0,1-1.02-.091c-2.71-.394-6.322,2.324-7.289,5.5a5.158,5.158,0,0,0-.171,1.833,6.314,6.314,0,0,0-.4,2.8,9.56,9.56,0,0,0,3.172,5.787,8.234,8.234,0,0,0,.695.506c.056.077.114.152.172.226a13.561,13.561,0,0,0,6.668,4.05A8.381,8.381,0,0,0-65.74,10.76a25.559,25.559,0,0,1,6.8.286A5.269,5.269,0,0,0-54.237,9.61l0,0a24.477,24.477,0,0,0,8.644-.1c.19,0,.378-.009.563-.019a4.5,4.5,0,0,0,1.322-.083A14.755,14.755,0,0,1-38,9.557a10.989,10.989,0,0,0,6.666-1.008,22.689,22.689,0,0,0,3.437.72,13.7,13.7,0,0,0,6.5,1.874,7.082,7.082,0,0,0,2.2-.32c.548-.179,1.165-.343,1.8-.482a5.329,5.329,0,0,0,1.323-.213c.091-.028.185-.056.281-.083a13.71,13.71,0,0,1,2.65-.182,5.963,5.963,0,0,0,2.655-.55,5.706,5.706,0,0,0,2.861-1.4c.2-.027.4-.059.593-.1.123.039.237.079.342.122a4.031,4.031,0,0,0,3.076-.161A5.528,5.528,0,0,0-.671,4.851,12.228,12.228,0,0,0,0,0M-3.483-7.9A3.938,3.938,0,0,1-2.306-5.029a7.774,7.774,0,0,0-.565-1.742,7.408,7.408,0,0,0-.906-1.418c.1.093.2.187.294.285m-.188,1.515A7.393,7.393,0,0,1-3.1-4.4c-.109-.047-.218-.089-.327-.125A4.783,4.783,0,0,0-4.8-6.566c-.068-.062-.138-.122-.209-.181a10.638,10.638,0,0,0-.741-2.177A7.814,7.814,0,0,1-3.671-6.389M-58.47,8.257c-.119.015-.237.024-.354.028.1-.016.2-.035.3-.056l.056.028m-2.407-.011c-.153.005-.309.012-.466.021l-.2-.052c.066,0,.132,0,.2-.006.162.01.321.022.472.037M-72.168,6.411c-.484-.1-.967-.23-1.436-.374q-.269-.308-.506-.627a11.245,11.245,0,0,0,1.942,1M-75.412,2.6c-.014-.009-.028-.016-.042-.024-.029-.055-.057-.11-.085-.166,0-.012-.006-.023-.01-.035.044.076.089.151.137.225M-12.976-9.207h.019l.111.052-.13-.053m2.225.332c.112.027.222.055.33.085-.09-.014-.182-.027-.274-.038l-.056-.047M-57.9-12.508a15.789,15.789,0,0,0,2.035-.34,3.843,3.843,0,0,1,2.943.595c-.367.129-.769.248-1.18.351A5.424,5.424,0,0,0-55.069-12c-.1,0-.2,0-.293.01a12.359,12.359,0,0,1-1.552,0,7.022,7.022,0,0,0-.981-.519m4.527,1.78.229-.005.014.005-.523.141-.086,0c.124-.043.24-.1.366-.137m45.825.787a5.859,5.859,0,0,1,.919,1.246,7.381,7.381,0,0,1,.493,1.2c-.1-.052-.2-.1-.3-.153a9.98,9.98,0,0,0-5.917-2.4l2.421-.1a11.154,11.154,0,0,1,2.386.2m-5.722-2.293a5.117,5.117,0,0,1,3.208.511,4.113,4.113,0,0,0-.737.039,15.745,15.745,0,0,1-4.934-.257c-.064-.015-.13-.028-.2-.041a10.969,10.969,0,0,0,2.659-.252m-2.666,1.156a12.781,12.781,0,0,0,1.385.236l-.632.026c-.277-.051-.559-.094-.845-.126-.176-.082-.359-.159-.546-.23a4.1,4.1,0,0,1,.638.094m-2.425-1.136a10.629,10.629,0,0,0,1.075.16,8.694,8.694,0,0,0-1.776.306,11.309,11.309,0,0,0-1.175-.061c-.148,0-.3,0-.448.009l-.118-.007a3.762,3.762,0,0,1,2.442-.407m-4.634.42-.021,0c-.1,0-.2,0-.3,0-.078-.066-.158-.131-.238-.193q.289.089.563.2m-4.123-.318a3.173,3.173,0,0,1,2.354.388l-.231.025c-.326-.07-.635-.146-.912-.224a5.076,5.076,0,0,0-1.26-.176l.049-.013m-8.85.314a19.549,19.549,0,0,1-3.144.227,7.176,7.176,0,0,1,3.144-.227m-1.55-1.493a17.48,17.48,0,0,1-2.772-.071,7.084,7.084,0,0,1,2.772.071m-4.012.643a15.69,15.69,0,0,0,2.115.244c-.08.028-.158.057-.234.089a10.333,10.333,0,0,1-1.238.408,4.183,4.183,0,0,0-1.393-.044,11.5,11.5,0,0,1-1.917.089q-.195-.268-.414-.514a6.95,6.95,0,0,1,3.081-.272m-3.949.64.075.078-.185-.018.11-.06m-8.55-1.809a24.987,24.987,0,0,0,5.635.494,3.449,3.449,0,0,1,2.065.614q-.484.2-.954.436a8.473,8.473,0,0,0-3.017-.6,5.4,5.4,0,0,0-1.624.232q-.171-.13-.35-.25a4.787,4.787,0,0,0-3.8-.82,18.413,18.413,0,0,1-3.412.434,11.731,11.731,0,0,1,5.461-.542M-60-11.575c.081.023.165.047.253.069a4.206,4.206,0,0,0-.47.1,14.836,14.836,0,0,1-1.834.35l-.858-.251A4.8,4.8,0,0,1-60-11.575m-4.378-.25-.078.064-.418-.121c.159.021.324.04.5.057m-3.758,1.348c-.288.088-.58.188-.873.3.124-.073.251-.146.38-.217.171-.025.335-.052.493-.082m-.5-.916c-.092.047-.182.095-.272.144-.372.051-.768.092-1.172.122a9.164,9.164,0,0,1,1.444-.266M-72.976-9.4a6.231,6.231,0,0,1,.951-.779c.468.006.958,0,1.449-.027a9.3,9.3,0,0,0-.9.746,3.957,3.957,0,0,0-.68.876q-.228.147-.449.3a10.823,10.823,0,0,0-1.6.625A8.089,8.089,0,0,1-72.976-9.4m-1.1-.924a3,3,0,0,1,.437.032h0a6.352,6.352,0,0,0-1.314,1.443A7.829,7.829,0,0,0-75.6-7.546l-.12-.009A4.8,4.8,0,0,0-79.543-6.04c-.1.1-.205.212-.3.324.907-2.463,3.622-4.612,5.772-4.612m-4.844,4.914a3.954,3.954,0,0,1,2.973-1.267c-.02.049-.039.1-.058.15A8.662,8.662,0,0,0-79.2-1.356c-.02.113-.037.227-.05.345a7.881,7.881,0,0,1-.813-2.705,5.434,5.434,0,0,1,1.143-1.7m-1.568,4.3a5.231,5.231,0,0,1-.018-.56A7.865,7.865,0,0,0-79.237.63l.009.011a10.519,10.519,0,0,0,.554,2.343,8.531,8.531,0,0,1-1.81-4.1M-78.373.279a5.832,5.832,0,0,1,.049-1.48,7.494,7.494,0,0,1,1.818-3.637,8.719,8.719,0,0,0-.151.933A4.638,4.638,0,0,0-76.9-2.7a5.5,5.5,0,0,0-.359,2.143,7.623,7.623,0,0,0,.442,2.246A9.959,9.959,0,0,1-78.373.279m1.5,4.323a8.962,8.962,0,0,1-1.24-2.824,13.815,13.815,0,0,0,1.864,1.356,9.742,9.742,0,0,0,.451,1.18,8.872,8.872,0,0,0,.662,1.174A11.849,11.849,0,0,1-76.877,4.6m1.969,1.931q.4.147.805.278c.183.2.375.4.573.592a12.938,12.938,0,0,1-1.378-.87M-70.326,8.7a13.053,13.053,0,0,1-2.019-1.423c.524.114,1.052.206,1.574.274a5.626,5.626,0,0,0,4.083,1.186,11.015,11.015,0,0,1,2.05-.071c-.406.079-.79.167-1.135.264a8.911,8.911,0,0,1-4.553-.23m11.549,1.471a28.3,28.3,0,0,0-4.882-.414,17.267,17.267,0,0,0-2.2.12c-.054.008-.107.014-.161.019.166-.032.328-.069.485-.113a21.235,21.235,0,0,1,4.094-.629c.19.054.371.112.539.173a7.083,7.083,0,0,0,4.651-.2c.295.088.6.17.912.245a4.339,4.339,0,0,1-3.439.8M-41.554,7.79l.025-.014.072.006-.033.015-.064-.007m3.779.909c-.084-.022-.171-.042-.259-.062a.139.139,0,0,1,.019-.006,8.269,8.269,0,0,1,1,.1A4.771,4.771,0,0,0-33.808,8l.506-.081a6.027,6.027,0,0,0,.559.24,9.2,9.2,0,0,1-5.032.541m10.17-.291c-.075-.044-.15-.089-.223-.135.622-.005,1.258-.04,1.9-.1a12.4,12.4,0,0,1,1.827.237c.1.022.2.042.308.058A16.3,16.3,0,0,1-27.6,8.408m2.15,1.03a12.173,12.173,0,0,0,3.071-.33,12.161,12.161,0,0,0,2.587.966,9.89,9.89,0,0,1-5.658-.636M-10.7,8.446c-.093.008-.187.008-.279.011A21.438,21.438,0,0,0-16,9.184c-.5.076-1.014.17-1.516.278a9.04,9.04,0,0,1-3.564-.731,23.92,23.92,0,0,1,4.826-.748c.259.012.513.011.763,0l.05,0a4.829,4.829,0,0,0,1.187-.093,9.311,9.311,0,0,0,3.87.4c-.1.053-.208.1-.313.15M-5.831,5.8a4.29,4.29,0,0,0,.652-.349A4.831,4.831,0,0,0-3.746,4a4.837,4.837,0,0,0,.51-.646,4.244,4.244,0,0,1-.757,1.694A4.614,4.614,0,0,1-6.05,6.138c.076-.11.148-.222.219-.337m4.338-1.279A4.632,4.632,0,0,1-3.964,6.96a3.794,3.794,0,0,1-1.443.325,5.725,5.725,0,0,0,1.784-1.3c.106-.117.207-.237.3-.362A7.787,7.787,0,0,0-1.506,1.794,4.97,4.97,0,0,0-1.835-.695a11.234,11.234,0,0,0,.292-1.163A4.568,4.568,0,0,1-.883.081a11.4,11.4,0,0,1-.61,4.441" fill="#ecf5e1"/>
      </g>
      <g id="Grupo_19" data-name="Grupo 19" transform="translate(175.883 -11.143)">
        <path id="Caminho_10" data-name="Caminho 10" d="M0,0A5.532,5.532,0,0,0-1.37-3.117,7.487,7.487,0,0,0-1.425-4.89,4.781,4.781,0,0,0-2.843-8.516,8.184,8.184,0,0,0-6.71-10.657q-.324-.183-.652-.339c-1.768-1.589-4.308-2.547-6.118-2.1a12.544,12.544,0,0,1-4.7.013,4.934,4.934,0,0,0-3.642.837,9.647,9.647,0,0,0-4.26-1.035,16.633,16.633,0,0,0-7.753.662,5.321,5.321,0,0,0-1.634-.69c-.044-.034-.089-.066-.136-.1a7.439,7.439,0,0,0-6.308-.484,9.925,9.925,0,0,0-3.381.8l-.039.013a4.487,4.487,0,0,0-3.109-1.132,23.857,23.857,0,0,1-5.393-.474c-2.1-.469-5.4.161-8.029,1.357a11.14,11.14,0,0,0-2.5.334c-.216-.029-.421-.062-.61-.1-1.971-.383-5.015.475-7.295,1.885-.075.04-.15.081-.223.123a10.2,10.2,0,0,1-1.02-.091c-2.71-.394-6.322,2.324-7.289,5.5a5.158,5.158,0,0,0-.171,1.833,6.314,6.314,0,0,0-.4,2.8,9.56,9.56,0,0,0,3.172,5.787,8.234,8.234,0,0,0,.695.506c.056.077.114.152.172.226a13.561,13.561,0,0,0,6.668,4.05A8.381,8.381,0,0,0-65.74,10.76a25.559,25.559,0,0,1,6.8.286A5.269,5.269,0,0,0-54.237,9.61l0,0a24.477,24.477,0,0,0,8.644-.1c.19,0,.378-.009.563-.019a4.5,4.5,0,0,0,1.322-.083A14.755,14.755,0,0,1-38,9.557a10.989,10.989,0,0,0,6.666-1.008,22.689,22.689,0,0,0,3.437.72,13.7,13.7,0,0,0,6.5,1.874,7.082,7.082,0,0,0,2.2-.32c.548-.179,1.165-.343,1.8-.482a5.329,5.329,0,0,0,1.323-.213c.091-.028.185-.056.281-.083a13.71,13.71,0,0,1,2.65-.182,5.963,5.963,0,0,0,2.655-.55,5.706,5.706,0,0,0,2.861-1.4c.2-.027.4-.059.593-.1.123.039.237.079.342.122a4.031,4.031,0,0,0,3.076-.161A5.528,5.528,0,0,0-.671,4.851,12.228,12.228,0,0,0,0,0M-3.483-7.9A3.938,3.938,0,0,1-2.306-5.029a7.774,7.774,0,0,0-.565-1.742,7.408,7.408,0,0,0-.906-1.418c.1.093.2.187.294.285m-.188,1.515A7.393,7.393,0,0,1-3.1-4.4c-.109-.047-.218-.089-.327-.125A4.783,4.783,0,0,0-4.8-6.566c-.068-.062-.138-.122-.209-.181a10.638,10.638,0,0,0-.741-2.177A7.814,7.814,0,0,1-3.671-6.389M-58.47,8.257c-.119.015-.237.024-.354.028.1-.016.2-.035.3-.056l.056.028m-2.407-.011c-.153.005-.309.012-.466.021l-.2-.052c.066,0,.132,0,.2-.006.162.01.321.022.472.037M-72.168,6.411c-.484-.1-.967-.23-1.436-.374q-.269-.308-.506-.627a11.245,11.245,0,0,0,1.942,1M-75.412,2.6c-.014-.009-.028-.016-.042-.024-.029-.055-.057-.11-.085-.166,0-.012-.006-.023-.01-.035.044.076.089.151.137.225M-12.976-9.207h.019l.111.052-.13-.053m2.225.332c.112.027.222.055.33.085-.09-.014-.182-.027-.274-.038l-.056-.047M-57.9-12.508a15.789,15.789,0,0,0,2.035-.34,3.843,3.843,0,0,1,2.943.595c-.367.129-.769.248-1.18.351A5.424,5.424,0,0,0-55.069-12c-.1,0-.2,0-.293.01a12.359,12.359,0,0,1-1.552,0,7.022,7.022,0,0,0-.981-.519m4.527,1.78.229-.005.014.005-.523.141-.086,0c.124-.043.24-.1.366-.137m45.825.787a5.859,5.859,0,0,1,.919,1.246,7.381,7.381,0,0,1,.493,1.2c-.1-.052-.2-.1-.3-.153a9.98,9.98,0,0,0-5.917-2.4l2.421-.1a11.154,11.154,0,0,1,2.386.2m-5.722-2.293a5.117,5.117,0,0,1,3.208.511,4.113,4.113,0,0,0-.737.039,15.745,15.745,0,0,1-4.934-.257c-.064-.015-.13-.028-.2-.041a10.969,10.969,0,0,0,2.659-.252m-2.666,1.156a12.781,12.781,0,0,0,1.385.236l-.632.026c-.277-.051-.559-.094-.845-.126-.176-.082-.359-.159-.546-.23a4.1,4.1,0,0,1,.638.094m-2.425-1.136a10.629,10.629,0,0,0,1.075.16,8.694,8.694,0,0,0-1.776.306,11.309,11.309,0,0,0-1.175-.061c-.148,0-.3,0-.448.009l-.118-.007a3.762,3.762,0,0,1,2.442-.407m-4.634.42-.021,0c-.1,0-.2,0-.3,0-.078-.066-.158-.131-.238-.193q.289.089.563.2m-4.123-.318a3.173,3.173,0,0,1,2.354.388l-.231.025c-.326-.07-.635-.146-.912-.224a5.076,5.076,0,0,0-1.26-.176l.049-.013m-8.85.314a19.549,19.549,0,0,1-3.144.227,7.176,7.176,0,0,1,3.144-.227m-1.55-1.493a17.48,17.48,0,0,1-2.772-.071,7.084,7.084,0,0,1,2.772.071m-4.012.643a15.69,15.69,0,0,0,2.115.244c-.08.028-.158.057-.234.089a10.333,10.333,0,0,1-1.238.408,4.183,4.183,0,0,0-1.393-.044,11.5,11.5,0,0,1-1.917.089q-.195-.268-.414-.514a6.95,6.95,0,0,1,3.081-.272m-3.949.64.075.078-.185-.018.11-.06m-8.55-1.809a24.987,24.987,0,0,0,5.635.494,3.449,3.449,0,0,1,2.065.614q-.484.2-.954.436a8.473,8.473,0,0,0-3.017-.6,5.4,5.4,0,0,0-1.624.232q-.171-.13-.35-.25a4.787,4.787,0,0,0-3.8-.82,18.413,18.413,0,0,1-3.412.434,11.731,11.731,0,0,1,5.461-.542M-60-11.575c.081.023.165.047.253.069a4.206,4.206,0,0,0-.47.1,14.836,14.836,0,0,1-1.834.35l-.858-.251A4.8,4.8,0,0,1-60-11.575m-4.378-.25-.078.064-.418-.121c.159.021.324.04.5.057m-3.758,1.348c-.288.088-.58.188-.873.3.124-.073.251-.146.38-.217.171-.025.335-.052.493-.082m-.5-.916c-.092.047-.182.095-.272.144-.372.051-.768.092-1.172.122a9.164,9.164,0,0,1,1.444-.266M-72.976-9.4a6.231,6.231,0,0,1,.951-.779c.468.006.958,0,1.449-.027a9.3,9.3,0,0,0-.9.746,3.957,3.957,0,0,0-.68.876q-.228.147-.449.3a10.823,10.823,0,0,0-1.6.625A8.089,8.089,0,0,1-72.976-9.4m-1.1-.924a3,3,0,0,1,.437.032h0a6.352,6.352,0,0,0-1.314,1.443A7.829,7.829,0,0,0-75.6-7.546l-.12-.009A4.8,4.8,0,0,0-79.543-6.04c-.1.1-.205.212-.3.324.907-2.463,3.622-4.612,5.772-4.612m-4.844,4.914a3.954,3.954,0,0,1,2.973-1.267c-.02.049-.039.1-.058.15A8.662,8.662,0,0,0-79.2-1.356c-.02.113-.037.227-.05.345a7.881,7.881,0,0,1-.813-2.705,5.434,5.434,0,0,1,1.143-1.7m-1.568,4.3a5.231,5.231,0,0,1-.018-.56A7.865,7.865,0,0,0-79.237.63l.009.011a10.519,10.519,0,0,0,.554,2.343,8.531,8.531,0,0,1-1.81-4.1M-78.373.279a5.832,5.832,0,0,1,.049-1.48,7.494,7.494,0,0,1,1.818-3.637,8.719,8.719,0,0,0-.151.933A4.638,4.638,0,0,0-76.9-2.7a5.5,5.5,0,0,0-.359,2.143,7.623,7.623,0,0,0,.442,2.246A9.959,9.959,0,0,1-78.373.279m1.5,4.323a8.962,8.962,0,0,1-1.24-2.824,13.815,13.815,0,0,0,1.864,1.356,9.742,9.742,0,0,0,.451,1.18,8.872,8.872,0,0,0,.662,1.174A11.849,11.849,0,0,1-76.877,4.6m1.969,1.931q.4.147.805.278c.183.2.375.4.573.592a12.938,12.938,0,0,1-1.378-.87M-70.326,8.7a13.053,13.053,0,0,1-2.019-1.423c.524.114,1.052.206,1.574.274a5.626,5.626,0,0,0,4.083,1.186,11.015,11.015,0,0,1,2.05-.071c-.406.079-.79.167-1.135.264a8.911,8.911,0,0,1-4.553-.23m11.549,1.471a28.3,28.3,0,0,0-4.882-.414,17.267,17.267,0,0,0-2.2.12c-.054.008-.107.014-.161.019.166-.032.328-.069.485-.113a21.235,21.235,0,0,1,4.094-.629c.19.054.371.112.539.173a7.083,7.083,0,0,0,4.651-.2c.295.088.6.17.912.245a4.339,4.339,0,0,1-3.439.8M-41.554,7.79l.025-.014.072.006-.033.015-.064-.007m3.779.909c-.084-.022-.171-.042-.259-.062a.139.139,0,0,1,.019-.006,8.269,8.269,0,0,1,1,.1A4.771,4.771,0,0,0-33.808,8l.506-.081a6.027,6.027,0,0,0,.559.24,9.2,9.2,0,0,1-5.032.541m10.17-.291c-.075-.044-.15-.089-.223-.135.622-.005,1.258-.04,1.9-.1a12.4,12.4,0,0,1,1.827.237c.1.022.2.042.308.058A16.3,16.3,0,0,1-27.6,8.408m2.15,1.03a12.173,12.173,0,0,0,3.071-.33,12.161,12.161,0,0,0,2.587.966,9.89,9.89,0,0,1-5.658-.636M-10.7,8.446c-.093.008-.187.008-.279.011A21.438,21.438,0,0,0-16,9.184c-.5.076-1.014.17-1.516.278a9.04,9.04,0,0,1-3.564-.731,23.92,23.92,0,0,1,4.826-.748c.259.012.513.011.763,0l.05,0a4.829,4.829,0,0,0,1.187-.093,9.311,9.311,0,0,0,3.87.4c-.1.053-.208.1-.313.15M-5.831,5.8a4.29,4.29,0,0,0,.652-.349A4.831,4.831,0,0,0-3.746,4a4.837,4.837,0,0,0,.51-.646,4.244,4.244,0,0,1-.757,1.694A4.614,4.614,0,0,1-6.05,6.138c.076-.11.148-.222.219-.337m4.338-1.279A4.632,4.632,0,0,1-3.964,6.96a3.794,3.794,0,0,1-1.443.325,5.725,5.725,0,0,0,1.784-1.3c.106-.117.207-.237.3-.362A7.787,7.787,0,0,0-1.506,1.794,4.97,4.97,0,0,0-1.835-.695a11.234,11.234,0,0,0,.292-1.163A4.568,4.568,0,0,1-.883.081a11.4,11.4,0,0,1-.61,4.441" fill="#ecf5e1"/>
      </g>
      <g id="Grupo_20" data-name="Grupo 20" transform="translate(270.378 -11.143)">
        <path id="Caminho_11" data-name="Caminho 11" d="M0,0A5.532,5.532,0,0,0-1.37-3.117,7.487,7.487,0,0,0-1.425-4.89,4.781,4.781,0,0,0-2.843-8.516,8.184,8.184,0,0,0-6.71-10.657q-.324-.183-.652-.339c-1.768-1.589-4.308-2.547-6.118-2.1a12.544,12.544,0,0,1-4.7.013,4.934,4.934,0,0,0-3.642.837,9.647,9.647,0,0,0-4.26-1.035,16.633,16.633,0,0,0-7.753.662,5.321,5.321,0,0,0-1.634-.69c-.044-.034-.089-.066-.136-.1a7.439,7.439,0,0,0-6.308-.484,9.925,9.925,0,0,0-3.381.8l-.039.013a4.487,4.487,0,0,0-3.109-1.132,23.857,23.857,0,0,1-5.393-.474c-2.1-.469-5.4.161-8.029,1.357a11.14,11.14,0,0,0-2.5.334c-.216-.029-.421-.062-.61-.1-1.971-.383-5.015.475-7.295,1.885-.075.04-.15.081-.223.123a10.2,10.2,0,0,1-1.02-.091c-2.71-.394-6.322,2.324-7.289,5.5a5.158,5.158,0,0,0-.171,1.833,6.314,6.314,0,0,0-.4,2.8,9.56,9.56,0,0,0,3.172,5.787,8.234,8.234,0,0,0,.695.506c.056.077.114.152.172.226a13.561,13.561,0,0,0,6.668,4.05A8.381,8.381,0,0,0-65.74,10.76a25.559,25.559,0,0,1,6.8.286A5.269,5.269,0,0,0-54.237,9.61l0,0a24.477,24.477,0,0,0,8.644-.1c.19,0,.378-.009.563-.019a4.5,4.5,0,0,0,1.322-.083A14.755,14.755,0,0,1-38,9.557a10.989,10.989,0,0,0,6.666-1.008,22.689,22.689,0,0,0,3.437.72,13.7,13.7,0,0,0,6.5,1.874,7.082,7.082,0,0,0,2.2-.32c.548-.179,1.165-.343,1.8-.482a5.329,5.329,0,0,0,1.323-.213c.091-.028.185-.056.281-.083a13.71,13.71,0,0,1,2.65-.182,5.963,5.963,0,0,0,2.655-.55,5.706,5.706,0,0,0,2.861-1.4c.2-.027.4-.059.593-.1.123.039.237.079.342.122a4.031,4.031,0,0,0,3.076-.161A5.528,5.528,0,0,0-.671,4.851,12.228,12.228,0,0,0,0,0M-3.483-7.9A3.938,3.938,0,0,1-2.306-5.029a7.774,7.774,0,0,0-.565-1.742,7.408,7.408,0,0,0-.906-1.418c.1.093.2.187.294.285m-.188,1.515A7.393,7.393,0,0,1-3.1-4.4c-.109-.047-.218-.089-.327-.125A4.783,4.783,0,0,0-4.8-6.566c-.068-.062-.138-.122-.209-.181a10.638,10.638,0,0,0-.741-2.177A7.814,7.814,0,0,1-3.671-6.389M-58.47,8.257c-.119.015-.237.024-.354.028.1-.016.2-.035.3-.056l.056.028m-2.407-.011c-.153.005-.309.012-.466.021l-.2-.052c.066,0,.132,0,.2-.006.162.01.321.022.472.037M-72.168,6.411c-.484-.1-.967-.23-1.436-.374q-.269-.308-.506-.627a11.245,11.245,0,0,0,1.942,1M-75.412,2.6c-.014-.009-.028-.016-.042-.024-.029-.055-.057-.11-.085-.166,0-.012-.006-.023-.01-.035.044.076.089.151.137.225M-12.976-9.207h.019l.111.052-.13-.053m2.225.332c.112.027.222.055.33.085-.09-.014-.182-.027-.274-.038l-.056-.047M-57.9-12.508a15.789,15.789,0,0,0,2.035-.34,3.843,3.843,0,0,1,2.943.595c-.367.129-.769.248-1.18.351A5.424,5.424,0,0,0-55.069-12c-.1,0-.2,0-.293.01a12.359,12.359,0,0,1-1.552,0,7.022,7.022,0,0,0-.981-.519m4.527,1.78.229-.005.014.005-.523.141-.086,0c.124-.043.24-.1.366-.137m45.825.787a5.859,5.859,0,0,1,.919,1.246,7.381,7.381,0,0,1,.493,1.2c-.1-.052-.2-.1-.3-.153a9.98,9.98,0,0,0-5.917-2.4l2.421-.1a11.154,11.154,0,0,1,2.386.2m-5.722-2.293a5.117,5.117,0,0,1,3.208.511,4.113,4.113,0,0,0-.737.039,15.745,15.745,0,0,1-4.934-.257c-.064-.015-.13-.028-.2-.041a10.969,10.969,0,0,0,2.659-.252m-2.666,1.156a12.781,12.781,0,0,0,1.385.236l-.632.026c-.277-.051-.559-.094-.845-.126-.176-.082-.359-.159-.546-.23a4.1,4.1,0,0,1,.638.094m-2.425-1.136a10.629,10.629,0,0,0,1.075.16,8.694,8.694,0,0,0-1.776.306,11.309,11.309,0,0,0-1.175-.061c-.148,0-.3,0-.448.009l-.118-.007a3.762,3.762,0,0,1,2.442-.407m-4.634.42-.021,0c-.1,0-.2,0-.3,0-.078-.066-.158-.131-.238-.193q.289.089.563.2m-4.123-.318a3.173,3.173,0,0,1,2.354.388l-.231.025c-.326-.07-.635-.146-.912-.224a5.076,5.076,0,0,0-1.26-.176l.049-.013m-8.85.314a19.549,19.549,0,0,1-3.144.227,7.176,7.176,0,0,1,3.144-.227m-1.55-1.493a17.48,17.48,0,0,1-2.772-.071,7.084,7.084,0,0,1,2.772.071m-4.012.643a15.69,15.69,0,0,0,2.115.244c-.08.028-.158.057-.234.089a10.333,10.333,0,0,1-1.238.408,4.183,4.183,0,0,0-1.393-.044,11.5,11.5,0,0,1-1.917.089q-.195-.268-.414-.514a6.95,6.95,0,0,1,3.081-.272m-3.949.64.075.078-.185-.018.11-.06m-8.55-1.809a24.987,24.987,0,0,0,5.635.494,3.449,3.449,0,0,1,2.065.614q-.484.2-.954.436a8.473,8.473,0,0,0-3.017-.6,5.4,5.4,0,0,0-1.624.232q-.171-.13-.35-.25a4.787,4.787,0,0,0-3.8-.82,18.413,18.413,0,0,1-3.412.434,11.731,11.731,0,0,1,5.461-.542M-60-11.575c.081.023.165.047.253.069a4.206,4.206,0,0,0-.47.1,14.836,14.836,0,0,1-1.834.35l-.858-.251A4.8,4.8,0,0,1-60-11.575m-4.378-.25-.078.064-.418-.121c.159.021.324.04.5.057m-3.758,1.348c-.288.088-.58.188-.873.3.124-.073.251-.146.38-.217.171-.025.335-.052.493-.082m-.5-.916c-.092.047-.182.095-.272.144-.372.051-.768.092-1.172.122a9.164,9.164,0,0,1,1.444-.266M-72.976-9.4a6.231,6.231,0,0,1,.951-.779c.468.006.958,0,1.449-.027a9.3,9.3,0,0,0-.9.746,3.957,3.957,0,0,0-.68.876q-.228.147-.449.3a10.823,10.823,0,0,0-1.6.625A8.089,8.089,0,0,1-72.976-9.4m-1.1-.924a3,3,0,0,1,.437.032h0a6.352,6.352,0,0,0-1.314,1.443A7.829,7.829,0,0,0-75.6-7.546l-.12-.009A4.8,4.8,0,0,0-79.543-6.04c-.1.1-.205.212-.3.324.907-2.463,3.622-4.612,5.772-4.612m-4.844,4.914a3.954,3.954,0,0,1,2.973-1.267c-.02.049-.039.1-.058.15A8.662,8.662,0,0,0-79.2-1.356c-.02.113-.037.227-.05.345a7.881,7.881,0,0,1-.813-2.705,5.434,5.434,0,0,1,1.143-1.7m-1.568,4.3a5.231,5.231,0,0,1-.018-.56A7.865,7.865,0,0,0-79.237.63l.009.011a10.519,10.519,0,0,0,.554,2.343,8.531,8.531,0,0,1-1.81-4.1M-78.373.279a5.832,5.832,0,0,1,.049-1.48,7.494,7.494,0,0,1,1.818-3.637,8.719,8.719,0,0,0-.151.933A4.638,4.638,0,0,0-76.9-2.7a5.5,5.5,0,0,0-.359,2.143,7.623,7.623,0,0,0,.442,2.246A9.959,9.959,0,0,1-78.373.279m1.5,4.323a8.962,8.962,0,0,1-1.24-2.824,13.815,13.815,0,0,0,1.864,1.356,9.742,9.742,0,0,0,.451,1.18,8.872,8.872,0,0,0,.662,1.174A11.849,11.849,0,0,1-76.877,4.6m1.969,1.931q.4.147.805.278c.183.2.375.4.573.592a12.938,12.938,0,0,1-1.378-.87M-70.326,8.7a13.053,13.053,0,0,1-2.019-1.423c.524.114,1.052.206,1.574.274a5.626,5.626,0,0,0,4.083,1.186,11.015,11.015,0,0,1,2.05-.071c-.406.079-.79.167-1.135.264a8.911,8.911,0,0,1-4.553-.23m11.549,1.471a28.3,28.3,0,0,0-4.882-.414,17.267,17.267,0,0,0-2.2.12c-.054.008-.107.014-.161.019.166-.032.328-.069.485-.113a21.235,21.235,0,0,1,4.094-.629c.19.054.371.112.539.173a7.083,7.083,0,0,0,4.651-.2c.295.088.6.17.912.245a4.339,4.339,0,0,1-3.439.8M-41.554,7.79l.025-.014.072.006-.033.015-.064-.007m3.779.909c-.084-.022-.171-.042-.259-.062a.139.139,0,0,1,.019-.006,8.269,8.269,0,0,1,1,.1A4.771,4.771,0,0,0-33.808,8l.506-.081a6.027,6.027,0,0,0,.559.24,9.2,9.2,0,0,1-5.032.541m10.17-.291c-.075-.044-.15-.089-.223-.135.622-.005,1.258-.04,1.9-.1a12.4,12.4,0,0,1,1.827.237c.1.022.2.042.308.058A16.3,16.3,0,0,1-27.6,8.408m2.15,1.03a12.173,12.173,0,0,0,3.071-.33,12.161,12.161,0,0,0,2.587.966,9.89,9.89,0,0,1-5.658-.636M-10.7,8.446c-.093.008-.187.008-.279.011A21.438,21.438,0,0,0-16,9.184c-.5.076-1.014.17-1.516.278a9.04,9.04,0,0,1-3.564-.731,23.92,23.92,0,0,1,4.826-.748c.259.012.513.011.763,0l.05,0a4.829,4.829,0,0,0,1.187-.093,9.311,9.311,0,0,0,3.87.4c-.1.053-.208.1-.313.15M-5.831,5.8a4.29,4.29,0,0,0,.652-.349A4.831,4.831,0,0,0-3.746,4a4.837,4.837,0,0,0,.51-.646,4.244,4.244,0,0,1-.757,1.694A4.614,4.614,0,0,1-6.05,6.138c.076-.11.148-.222.219-.337m4.338-1.279A4.632,4.632,0,0,1-3.964,6.96a3.794,3.794,0,0,1-1.443.325,5.725,5.725,0,0,0,1.784-1.3c.106-.117.207-.237.3-.362A7.787,7.787,0,0,0-1.506,1.794,4.97,4.97,0,0,0-1.835-.695a11.234,11.234,0,0,0,.292-1.163A4.568,4.568,0,0,1-.883.081a11.4,11.4,0,0,1-.61,4.441" fill="#ecf5e1"/>
      </g>
      <g id="Grupo_21" data-name="Grupo 21" transform="translate(207.382 -11.143)">
        <path id="Caminho_12" data-name="Caminho 12" d="M0,0A5.532,5.532,0,0,0-1.37-3.117,7.487,7.487,0,0,0-1.425-4.89,4.781,4.781,0,0,0-2.843-8.516,8.184,8.184,0,0,0-6.71-10.657q-.324-.183-.652-.339c-1.768-1.589-4.308-2.547-6.118-2.1a12.544,12.544,0,0,1-4.7.013,4.934,4.934,0,0,0-3.642.837,9.647,9.647,0,0,0-4.26-1.035,16.633,16.633,0,0,0-7.753.662,5.321,5.321,0,0,0-1.634-.69c-.044-.034-.089-.066-.136-.1a7.439,7.439,0,0,0-6.308-.484,9.925,9.925,0,0,0-3.381.8l-.039.013a4.487,4.487,0,0,0-3.109-1.132,23.857,23.857,0,0,1-5.393-.474c-2.1-.469-5.4.161-8.029,1.357a11.14,11.14,0,0,0-2.5.334c-.216-.029-.421-.062-.61-.1-1.971-.383-5.015.475-7.295,1.885-.075.04-.15.081-.223.123a10.2,10.2,0,0,1-1.02-.091c-2.71-.394-6.322,2.324-7.289,5.5a5.158,5.158,0,0,0-.171,1.833,6.314,6.314,0,0,0-.4,2.8,9.56,9.56,0,0,0,3.172,5.787,8.234,8.234,0,0,0,.695.506c.056.077.114.152.172.226a13.561,13.561,0,0,0,6.668,4.05A8.381,8.381,0,0,0-65.74,10.76a25.559,25.559,0,0,1,6.8.286A5.269,5.269,0,0,0-54.237,9.61l0,0a24.477,24.477,0,0,0,8.644-.1c.19,0,.378-.009.563-.019a4.5,4.5,0,0,0,1.322-.083A14.755,14.755,0,0,1-38,9.557a10.989,10.989,0,0,0,6.666-1.008,22.689,22.689,0,0,0,3.437.72,13.7,13.7,0,0,0,6.5,1.874,7.082,7.082,0,0,0,2.2-.32c.548-.179,1.165-.343,1.8-.482a5.329,5.329,0,0,0,1.323-.213c.091-.028.185-.056.281-.083a13.71,13.71,0,0,1,2.65-.182,5.963,5.963,0,0,0,2.655-.55,5.706,5.706,0,0,0,2.861-1.4c.2-.027.4-.059.593-.1.123.039.237.079.342.122a4.031,4.031,0,0,0,3.076-.161A5.528,5.528,0,0,0-.671,4.851,12.228,12.228,0,0,0,0,0M-3.483-7.9A3.938,3.938,0,0,1-2.306-5.029a7.774,7.774,0,0,0-.565-1.742,7.408,7.408,0,0,0-.906-1.418c.1.093.2.187.294.285m-.188,1.515A7.393,7.393,0,0,1-3.1-4.4c-.109-.047-.218-.089-.327-.125A4.783,4.783,0,0,0-4.8-6.566c-.068-.062-.138-.122-.209-.181a10.638,10.638,0,0,0-.741-2.177A7.814,7.814,0,0,1-3.671-6.389M-58.47,8.257c-.119.015-.237.024-.354.028.1-.016.2-.035.3-.056l.056.028m-2.407-.011c-.153.005-.309.012-.466.021l-.2-.052c.066,0,.132,0,.2-.006.162.01.321.022.472.037M-72.168,6.411c-.484-.1-.967-.23-1.436-.374q-.269-.308-.506-.627a11.245,11.245,0,0,0,1.942,1M-75.412,2.6c-.014-.009-.028-.016-.042-.024-.029-.055-.057-.11-.085-.166,0-.012-.006-.023-.01-.035.044.076.089.151.137.225M-12.976-9.207h.019l.111.052-.13-.053m2.225.332c.112.027.222.055.33.085-.09-.014-.182-.027-.274-.038l-.056-.047M-57.9-12.508a15.789,15.789,0,0,0,2.035-.34,3.843,3.843,0,0,1,2.943.595c-.367.129-.769.248-1.18.351A5.424,5.424,0,0,0-55.069-12c-.1,0-.2,0-.293.01a12.359,12.359,0,0,1-1.552,0,7.022,7.022,0,0,0-.981-.519m4.527,1.78.229-.005.014.005-.523.141-.086,0c.124-.043.24-.1.366-.137m45.825.787a5.859,5.859,0,0,1,.919,1.246,7.381,7.381,0,0,1,.493,1.2c-.1-.052-.2-.1-.3-.153a9.98,9.98,0,0,0-5.917-2.4l2.421-.1a11.154,11.154,0,0,1,2.386.2m-5.722-2.293a5.117,5.117,0,0,1,3.208.511,4.113,4.113,0,0,0-.737.039,15.745,15.745,0,0,1-4.934-.257c-.064-.015-.13-.028-.2-.041a10.969,10.969,0,0,0,2.659-.252m-2.666,1.156a12.781,12.781,0,0,0,1.385.236l-.632.026c-.277-.051-.559-.094-.845-.126-.176-.082-.359-.159-.546-.23a4.1,4.1,0,0,1,.638.094m-2.425-1.136a10.629,10.629,0,0,0,1.075.16,8.694,8.694,0,0,0-1.776.306,11.309,11.309,0,0,0-1.175-.061c-.148,0-.3,0-.448.009l-.118-.007a3.762,3.762,0,0,1,2.442-.407m-4.634.42-.021,0c-.1,0-.2,0-.3,0-.078-.066-.158-.131-.238-.193q.289.089.563.2m-4.123-.318a3.173,3.173,0,0,1,2.354.388l-.231.025c-.326-.07-.635-.146-.912-.224a5.076,5.076,0,0,0-1.26-.176l.049-.013m-8.85.314a19.549,19.549,0,0,1-3.144.227,7.176,7.176,0,0,1,3.144-.227m-1.55-1.493a17.48,17.48,0,0,1-2.772-.071,7.084,7.084,0,0,1,2.772.071m-4.012.643a15.69,15.69,0,0,0,2.115.244c-.08.028-.158.057-.234.089a10.333,10.333,0,0,1-1.238.408,4.183,4.183,0,0,0-1.393-.044,11.5,11.5,0,0,1-1.917.089q-.195-.268-.414-.514a6.95,6.95,0,0,1,3.081-.272m-3.949.64.075.078-.185-.018.11-.06m-8.55-1.809a24.987,24.987,0,0,0,5.635.494,3.449,3.449,0,0,1,2.065.614q-.484.2-.954.436a8.473,8.473,0,0,0-3.017-.6,5.4,5.4,0,0,0-1.624.232q-.171-.13-.35-.25a4.787,4.787,0,0,0-3.8-.82,18.413,18.413,0,0,1-3.412.434,11.731,11.731,0,0,1,5.461-.542M-60-11.575c.081.023.165.047.253.069a4.206,4.206,0,0,0-.47.1,14.836,14.836,0,0,1-1.834.35l-.858-.251A4.8,4.8,0,0,1-60-11.575m-4.378-.25-.078.064-.418-.121c.159.021.324.04.5.057m-3.758,1.348c-.288.088-.58.188-.873.3.124-.073.251-.146.38-.217.171-.025.335-.052.493-.082m-.5-.916c-.092.047-.182.095-.272.144-.372.051-.768.092-1.172.122a9.164,9.164,0,0,1,1.444-.266M-72.976-9.4a6.231,6.231,0,0,1,.951-.779c.468.006.958,0,1.449-.027a9.3,9.3,0,0,0-.9.746,3.957,3.957,0,0,0-.68.876q-.228.147-.449.3a10.823,10.823,0,0,0-1.6.625A8.089,8.089,0,0,1-72.976-9.4m-1.1-.924a3,3,0,0,1,.437.032h0a6.352,6.352,0,0,0-1.314,1.443A7.829,7.829,0,0,0-75.6-7.546l-.12-.009A4.8,4.8,0,0,0-79.543-6.04c-.1.1-.205.212-.3.324.907-2.463,3.622-4.612,5.772-4.612m-4.844,4.914a3.954,3.954,0,0,1,2.973-1.267c-.02.049-.039.1-.058.15A8.662,8.662,0,0,0-79.2-1.356c-.02.113-.037.227-.05.345a7.881,7.881,0,0,1-.813-2.705,5.434,5.434,0,0,1,1.143-1.7m-1.568,4.3a5.231,5.231,0,0,1-.018-.56A7.865,7.865,0,0,0-79.237.63l.009.011a10.519,10.519,0,0,0,.554,2.343,8.531,8.531,0,0,1-1.81-4.1M-78.373.279a5.832,5.832,0,0,1,.049-1.48,7.494,7.494,0,0,1,1.818-3.637,8.719,8.719,0,0,0-.151.933A4.638,4.638,0,0,0-76.9-2.7a5.5,5.5,0,0,0-.359,2.143,7.623,7.623,0,0,0,.442,2.246A9.959,9.959,0,0,1-78.373.279m1.5,4.323a8.962,8.962,0,0,1-1.24-2.824,13.815,13.815,0,0,0,1.864,1.356,9.742,9.742,0,0,0,.451,1.18,8.872,8.872,0,0,0,.662,1.174A11.849,11.849,0,0,1-76.877,4.6m1.969,1.931q.4.147.805.278c.183.2.375.4.573.592a12.938,12.938,0,0,1-1.378-.87M-70.326,8.7a13.053,13.053,0,0,1-2.019-1.423c.524.114,1.052.206,1.574.274a5.626,5.626,0,0,0,4.083,1.186,11.015,11.015,0,0,1,2.05-.071c-.406.079-.79.167-1.135.264a8.911,8.911,0,0,1-4.553-.23m11.549,1.471a28.3,28.3,0,0,0-4.882-.414,17.267,17.267,0,0,0-2.2.12c-.054.008-.107.014-.161.019.166-.032.328-.069.485-.113a21.235,21.235,0,0,1,4.094-.629c.19.054.371.112.539.173a7.083,7.083,0,0,0,4.651-.2c.295.088.6.17.912.245a4.339,4.339,0,0,1-3.439.8M-41.554,7.79l.025-.014.072.006-.033.015-.064-.007m3.779.909c-.084-.022-.171-.042-.259-.062a.139.139,0,0,1,.019-.006,8.269,8.269,0,0,1,1,.1A4.771,4.771,0,0,0-33.808,8l.506-.081a6.027,6.027,0,0,0,.559.24,9.2,9.2,0,0,1-5.032.541m10.17-.291c-.075-.044-.15-.089-.223-.135.622-.005,1.258-.04,1.9-.1a12.4,12.4,0,0,1,1.827.237c.1.022.2.042.308.058A16.3,16.3,0,0,1-27.6,8.408m2.15,1.03a12.173,12.173,0,0,0,3.071-.33,12.161,12.161,0,0,0,2.587.966,9.89,9.89,0,0,1-5.658-.636M-10.7,8.446c-.093.008-.187.008-.279.011A21.438,21.438,0,0,0-16,9.184c-.5.076-1.014.17-1.516.278a9.04,9.04,0,0,1-3.564-.731,23.92,23.92,0,0,1,4.826-.748c.259.012.513.011.763,0l.05,0a4.829,4.829,0,0,0,1.187-.093,9.311,9.311,0,0,0,3.87.4c-.1.053-.208.1-.313.15M-5.831,5.8a4.29,4.29,0,0,0,.652-.349A4.831,4.831,0,0,0-3.746,4a4.837,4.837,0,0,0,.51-.646,4.244,4.244,0,0,1-.757,1.694A4.614,4.614,0,0,1-6.05,6.138c.076-.11.148-.222.219-.337m4.338-1.279A4.632,4.632,0,0,1-3.964,6.96a3.794,3.794,0,0,1-1.443.325,5.725,5.725,0,0,0,1.784-1.3c.106-.117.207-.237.3-.362A7.787,7.787,0,0,0-1.506,1.794,4.97,4.97,0,0,0-1.835-.695a11.234,11.234,0,0,0,.292-1.163A4.568,4.568,0,0,1-.883.081a11.4,11.4,0,0,1-.61,4.441" fill="#ecf5e1"/>
      </g>
      <g id="Grupo_22" data-name="Grupo 22" transform="translate(301.876 -11.143)">
        <path id="Caminho_13" data-name="Caminho 13" d="M0,0A5.532,5.532,0,0,0-1.37-3.117,7.487,7.487,0,0,0-1.425-4.89,4.781,4.781,0,0,0-2.843-8.516,8.184,8.184,0,0,0-6.71-10.657q-.324-.183-.652-.339c-1.768-1.589-4.308-2.547-6.118-2.1a12.544,12.544,0,0,1-4.7.013,4.934,4.934,0,0,0-3.642.837,9.647,9.647,0,0,0-4.26-1.035,16.633,16.633,0,0,0-7.753.662,5.311,5.311,0,0,0-1.634-.69c-.044-.034-.089-.066-.136-.1a7.439,7.439,0,0,0-6.308-.484,9.925,9.925,0,0,0-3.381.8l-.039.013a4.485,4.485,0,0,0-3.109-1.132,23.862,23.862,0,0,1-5.393-.474c-2.1-.469-5.4.161-8.029,1.357a11.14,11.14,0,0,0-2.5.334c-.216-.029-.421-.062-.61-.1-1.971-.383-5.015.475-7.295,1.885-.075.04-.15.081-.223.123a10.2,10.2,0,0,1-1.02-.091c-2.71-.394-6.322,2.324-7.289,5.5a5.158,5.158,0,0,0-.171,1.833,6.314,6.314,0,0,0-.4,2.8,9.56,9.56,0,0,0,3.172,5.787,8.234,8.234,0,0,0,.695.506c.056.077.114.152.172.226a13.561,13.561,0,0,0,6.668,4.05A8.381,8.381,0,0,0-65.74,10.76a25.559,25.559,0,0,1,6.8.286A5.269,5.269,0,0,0-54.237,9.61l0,0a24.477,24.477,0,0,0,8.644-.1c.19,0,.378-.009.563-.019a4.5,4.5,0,0,0,1.322-.083A14.755,14.755,0,0,1-38,9.557a10.989,10.989,0,0,0,6.666-1.008,22.689,22.689,0,0,0,3.437.72,13.7,13.7,0,0,0,6.5,1.874,7.082,7.082,0,0,0,2.2-.32c.548-.179,1.165-.343,1.8-.482a5.329,5.329,0,0,0,1.323-.213c.091-.028.185-.056.281-.083a13.71,13.71,0,0,1,2.65-.182,5.963,5.963,0,0,0,2.655-.55,5.706,5.706,0,0,0,2.861-1.4c.2-.027.4-.059.593-.1.123.039.237.079.342.122a4.031,4.031,0,0,0,3.076-.161A5.528,5.528,0,0,0-.671,4.851,12.228,12.228,0,0,0,0,0M-3.483-7.9A3.938,3.938,0,0,1-2.306-5.029a7.774,7.774,0,0,0-.565-1.742,7.408,7.408,0,0,0-.906-1.418c.1.093.2.187.294.285m-.188,1.515A7.393,7.393,0,0,1-3.1-4.4c-.109-.047-.218-.089-.327-.125A4.783,4.783,0,0,0-4.8-6.566c-.068-.062-.138-.122-.209-.181a10.638,10.638,0,0,0-.741-2.177A7.814,7.814,0,0,1-3.671-6.389M-58.47,8.257c-.119.015-.237.024-.354.028.1-.016.2-.035.3-.056l.056.028m-2.407-.011c-.153.005-.309.012-.466.021l-.2-.052c.066,0,.132,0,.2-.006.162.01.321.022.472.037M-72.168,6.411c-.484-.1-.967-.23-1.436-.374q-.269-.308-.506-.627a11.281,11.281,0,0,0,1.942,1M-75.412,2.6c-.014-.009-.028-.016-.042-.024-.029-.055-.057-.11-.085-.166,0-.012-.006-.023-.01-.035.044.076.09.151.137.225M-12.976-9.207h.019l.111.052-.13-.053m2.225.332c.112.027.222.055.33.085-.09-.014-.182-.027-.274-.038l-.056-.047M-57.9-12.508a15.789,15.789,0,0,0,2.035-.34,3.843,3.843,0,0,1,2.943.595c-.366.129-.769.248-1.18.351A5.424,5.424,0,0,0-55.069-12c-.1,0-.2,0-.293.01a12.359,12.359,0,0,1-1.552,0,7.022,7.022,0,0,0-.981-.519m4.527,1.78.229-.005.014.005-.523.141-.086,0c.124-.043.24-.1.366-.137m45.825.787a5.859,5.859,0,0,1,.919,1.246,7.381,7.381,0,0,1,.493,1.2c-.1-.052-.2-.1-.3-.153a9.98,9.98,0,0,0-5.917-2.4l2.421-.1a11.154,11.154,0,0,1,2.386.2m-5.722-2.293a5.117,5.117,0,0,1,3.208.511,4.113,4.113,0,0,0-.737.039,15.745,15.745,0,0,1-4.934-.257c-.064-.015-.13-.028-.2-.041a10.969,10.969,0,0,0,2.659-.252m-2.666,1.156a12.781,12.781,0,0,0,1.385.236l-.632.026c-.277-.051-.559-.094-.845-.126-.176-.082-.359-.159-.546-.23a4.1,4.1,0,0,1,.638.094m-2.425-1.136a10.629,10.629,0,0,0,1.075.16,8.694,8.694,0,0,0-1.776.306,11.309,11.309,0,0,0-1.175-.061c-.148,0-.3,0-.448.009l-.118-.007a3.762,3.762,0,0,1,2.442-.407m-4.634.42-.021,0c-.1,0-.2,0-.3,0-.078-.066-.158-.131-.238-.193q.289.089.563.2m-4.123-.318a3.173,3.173,0,0,1,2.354.388l-.231.025c-.326-.07-.635-.146-.912-.224a5.076,5.076,0,0,0-1.26-.176l.049-.013m-8.85.314a19.541,19.541,0,0,1-3.144.227,7.176,7.176,0,0,1,3.144-.227m-1.55-1.493a17.48,17.48,0,0,1-2.772-.071,7.084,7.084,0,0,1,2.772.071m-4.012.643a15.69,15.69,0,0,0,2.115.244c-.08.028-.158.057-.234.089a10.333,10.333,0,0,1-1.238.408,4.183,4.183,0,0,0-1.393-.044,11.5,11.5,0,0,1-1.917.089q-.195-.268-.414-.514a6.95,6.95,0,0,1,3.081-.272m-3.949.64.075.078-.185-.018.11-.06m-8.55-1.809a24.987,24.987,0,0,0,5.635.494,3.449,3.449,0,0,1,2.065.614q-.484.2-.954.436a8.473,8.473,0,0,0-3.017-.6,5.4,5.4,0,0,0-1.624.232q-.171-.13-.35-.25a4.787,4.787,0,0,0-3.8-.82,18.413,18.413,0,0,1-3.412.434,11.731,11.731,0,0,1,5.461-.542M-60-11.575c.081.023.165.047.253.069a4.253,4.253,0,0,0-.47.1,14.836,14.836,0,0,1-1.834.35l-.858-.251A4.8,4.8,0,0,1-60-11.575m-4.378-.25-.078.064-.418-.121c.159.021.324.04.5.057m-3.758,1.348c-.288.088-.58.188-.873.3.124-.073.251-.146.38-.217.171-.025.335-.052.493-.082m-.5-.916c-.092.047-.182.095-.272.144-.372.051-.768.092-1.172.122a9.164,9.164,0,0,1,1.444-.266M-72.976-9.4a6.231,6.231,0,0,1,.951-.779c.468.006.958,0,1.449-.027a9.3,9.3,0,0,0-.9.746,3.986,3.986,0,0,0-.68.876c-.152.1-.3.2-.448.3a10.792,10.792,0,0,0-1.6.625A8.089,8.089,0,0,1-72.976-9.4m-1.1-.924a3,3,0,0,1,.437.032h0a6.352,6.352,0,0,0-1.314,1.443A7.907,7.907,0,0,0-75.6-7.546l-.12-.009A4.8,4.8,0,0,0-79.543-6.04c-.1.1-.205.212-.3.324.907-2.463,3.622-4.612,5.772-4.612m-4.844,4.914a3.954,3.954,0,0,1,2.973-1.267c-.02.049-.039.1-.058.15A8.662,8.662,0,0,0-79.2-1.356c-.02.113-.037.227-.05.345a7.881,7.881,0,0,1-.813-2.705,5.434,5.434,0,0,1,1.143-1.7m-1.568,4.3a5.231,5.231,0,0,1-.018-.56A7.865,7.865,0,0,0-79.237.63l.009.011a10.519,10.519,0,0,0,.554,2.343,8.54,8.54,0,0,1-1.81-4.1M-78.373.279a5.878,5.878,0,0,1,.049-1.48,7.494,7.494,0,0,1,1.818-3.637,8.719,8.719,0,0,0-.151.933A4.638,4.638,0,0,0-76.9-2.7a5.5,5.5,0,0,0-.359,2.143,7.623,7.623,0,0,0,.442,2.246A9.959,9.959,0,0,1-78.373.279m1.5,4.323a8.962,8.962,0,0,1-1.24-2.824,13.815,13.815,0,0,0,1.864,1.356,9.742,9.742,0,0,0,.451,1.18,8.872,8.872,0,0,0,.662,1.174A11.849,11.849,0,0,1-76.877,4.6m1.969,1.931q.4.147.805.278c.183.2.375.4.573.592a12.938,12.938,0,0,1-1.378-.87M-70.326,8.7a13.053,13.053,0,0,1-2.019-1.423c.524.114,1.052.206,1.574.274a5.626,5.626,0,0,0,4.083,1.186,11.015,11.015,0,0,1,2.05-.071c-.406.079-.79.167-1.135.264a8.911,8.911,0,0,1-4.553-.23m11.549,1.471a28.3,28.3,0,0,0-4.882-.414,17.267,17.267,0,0,0-2.2.12c-.054.008-.107.014-.161.019.166-.032.328-.069.485-.113a21.235,21.235,0,0,1,4.094-.629c.19.054.371.112.539.173a7.083,7.083,0,0,0,4.651-.2c.295.088.6.17.912.245a4.339,4.339,0,0,1-3.439.8M-41.554,7.79l.025-.014.072.006-.033.015-.064-.007m3.779.909c-.084-.022-.171-.042-.259-.062a.139.139,0,0,1,.019-.006,8.269,8.269,0,0,1,1,.1A4.771,4.771,0,0,0-33.808,8l.506-.081a5.93,5.93,0,0,0,.56.24,9.2,9.2,0,0,1-5.033.541m10.17-.291c-.075-.044-.15-.089-.223-.135.622-.005,1.258-.04,1.9-.1a12.4,12.4,0,0,1,1.827.237c.1.022.2.042.308.058A16.3,16.3,0,0,1-27.6,8.408m2.15,1.03a12.173,12.173,0,0,0,3.071-.33,12.161,12.161,0,0,0,2.587.966,9.89,9.89,0,0,1-5.658-.636M-10.7,8.446c-.093.008-.187.008-.279.011A21.438,21.438,0,0,0-16,9.184c-.5.076-1.014.17-1.516.278a9.04,9.04,0,0,1-3.564-.731,23.92,23.92,0,0,1,4.826-.748c.259.012.513.011.763,0l.05,0a4.829,4.829,0,0,0,1.187-.093,9.311,9.311,0,0,0,3.87.4c-.1.053-.208.1-.313.15M-5.831,5.8a4.29,4.29,0,0,0,.652-.349A4.831,4.831,0,0,0-3.746,4a4.837,4.837,0,0,0,.51-.646,4.244,4.244,0,0,1-.757,1.694A4.614,4.614,0,0,1-6.05,6.138c.076-.11.148-.222.219-.337m4.338-1.279A4.632,4.632,0,0,1-3.964,6.96a3.794,3.794,0,0,1-1.443.325,5.725,5.725,0,0,0,1.784-1.3c.106-.117.207-.237.3-.362A7.787,7.787,0,0,0-1.506,1.794,4.97,4.97,0,0,0-1.835-.695a11.234,11.234,0,0,0,.292-1.163A4.568,4.568,0,0,1-.883.081a11.4,11.4,0,0,1-.61,4.441" fill="#ecf5e1"/>
      </g>
      <g id="Grupo_23" data-name="Grupo 23" transform="translate(333.374 -11.143)">
        <path id="Caminho_14" data-name="Caminho 14" d="M0,0A5.532,5.532,0,0,0-1.37-3.117,7.487,7.487,0,0,0-1.425-4.89,4.781,4.781,0,0,0-2.843-8.516,8.184,8.184,0,0,0-6.71-10.657q-.324-.183-.652-.339c-1.768-1.589-4.308-2.547-6.118-2.1a12.544,12.544,0,0,1-4.7.013,4.934,4.934,0,0,0-3.642.837,9.647,9.647,0,0,0-4.26-1.035,16.633,16.633,0,0,0-7.753.662,5.321,5.321,0,0,0-1.634-.69c-.044-.034-.089-.066-.136-.1a7.439,7.439,0,0,0-6.308-.484,9.925,9.925,0,0,0-3.381.8l-.039.013a4.487,4.487,0,0,0-3.109-1.132,23.857,23.857,0,0,1-5.393-.474c-2.1-.469-5.4.161-8.029,1.357a11.14,11.14,0,0,0-2.5.334c-.216-.029-.421-.062-.61-.1-1.971-.383-5.015.475-7.295,1.885-.075.04-.15.081-.223.123a10.2,10.2,0,0,1-1.02-.091c-2.71-.394-6.322,2.324-7.289,5.5a5.158,5.158,0,0,0-.171,1.833,6.329,6.329,0,0,0-.4,2.8,9.567,9.567,0,0,0,3.173,5.787,8.234,8.234,0,0,0,.695.506c.056.077.114.152.172.226a13.561,13.561,0,0,0,6.668,4.05A8.381,8.381,0,0,0-65.74,10.76a25.559,25.559,0,0,1,6.8.286A5.269,5.269,0,0,0-54.237,9.61l0,0a24.477,24.477,0,0,0,8.644-.1c.19,0,.378-.009.563-.019a4.5,4.5,0,0,0,1.322-.083A14.755,14.755,0,0,1-38,9.557a10.989,10.989,0,0,0,6.666-1.008,22.689,22.689,0,0,0,3.437.72,13.7,13.7,0,0,0,6.5,1.874,7.082,7.082,0,0,0,2.2-.32c.548-.179,1.165-.343,1.8-.482a5.329,5.329,0,0,0,1.323-.213c.091-.028.185-.056.281-.083a13.71,13.71,0,0,1,2.65-.182,5.963,5.963,0,0,0,2.655-.55,5.706,5.706,0,0,0,2.861-1.4c.2-.027.4-.059.593-.1.123.039.237.079.342.122a4.031,4.031,0,0,0,3.076-.161A5.528,5.528,0,0,0-.671,4.851,12.228,12.228,0,0,0,0,0M-3.483-7.9A3.938,3.938,0,0,1-2.306-5.029a7.774,7.774,0,0,0-.565-1.742,7.408,7.408,0,0,0-.906-1.418c.1.093.2.187.294.285m-.188,1.515A7.393,7.393,0,0,1-3.1-4.4c-.109-.047-.218-.089-.327-.125A4.783,4.783,0,0,0-4.8-6.566c-.068-.062-.138-.122-.209-.181a10.638,10.638,0,0,0-.741-2.177A7.814,7.814,0,0,1-3.671-6.389M-58.47,8.257c-.119.015-.237.024-.354.028.1-.016.2-.035.3-.056l.056.028m-2.407-.011c-.153.005-.309.012-.466.021l-.2-.052c.066,0,.132,0,.2-.006.162.01.321.022.472.037M-72.168,6.411c-.484-.1-.967-.23-1.436-.374q-.269-.308-.506-.627a11.245,11.245,0,0,0,1.942,1M-75.412,2.6c-.014-.009-.028-.016-.042-.024-.029-.055-.057-.11-.085-.166,0-.012-.006-.023-.01-.035.044.076.089.151.137.225M-12.976-9.207h.019l.111.052-.13-.053m2.225.332c.112.027.222.055.33.085-.09-.014-.182-.027-.274-.038l-.056-.047M-57.9-12.508a15.789,15.789,0,0,0,2.035-.34,3.843,3.843,0,0,1,2.943.595c-.367.129-.769.248-1.18.351A5.424,5.424,0,0,0-55.069-12c-.1,0-.2,0-.293.01a12.359,12.359,0,0,1-1.552,0,7.022,7.022,0,0,0-.981-.519m4.527,1.78.229-.005.014.005-.523.141-.086,0c.124-.043.24-.1.366-.137m45.825.787a5.859,5.859,0,0,1,.919,1.246,7.381,7.381,0,0,1,.493,1.2c-.1-.052-.2-.1-.3-.153a9.98,9.98,0,0,0-5.917-2.4l2.421-.1a11.154,11.154,0,0,1,2.386.2m-5.722-2.293a5.117,5.117,0,0,1,3.208.511,4.113,4.113,0,0,0-.737.039,15.745,15.745,0,0,1-4.934-.257c-.064-.015-.13-.028-.2-.041a10.969,10.969,0,0,0,2.659-.252m-2.666,1.156a12.781,12.781,0,0,0,1.385.236l-.632.026c-.277-.051-.559-.094-.845-.126-.176-.082-.359-.159-.546-.23a4.1,4.1,0,0,1,.638.094m-2.425-1.136a10.629,10.629,0,0,0,1.075.16,8.694,8.694,0,0,0-1.776.306,11.309,11.309,0,0,0-1.175-.061c-.148,0-.3,0-.448.009l-.118-.007a3.762,3.762,0,0,1,2.442-.407m-4.634.42-.021,0c-.1,0-.2,0-.3,0-.078-.066-.158-.131-.238-.193q.289.089.563.2m-4.123-.318a3.173,3.173,0,0,1,2.354.388l-.231.025c-.326-.07-.635-.146-.912-.224a5.076,5.076,0,0,0-1.26-.176l.049-.013m-8.85.314a19.549,19.549,0,0,1-3.144.227,7.176,7.176,0,0,1,3.144-.227m-1.55-1.493a17.48,17.48,0,0,1-2.772-.071,7.084,7.084,0,0,1,2.772.071m-4.012.643a15.69,15.69,0,0,0,2.115.244c-.08.028-.158.057-.234.089a10.333,10.333,0,0,1-1.238.408,4.183,4.183,0,0,0-1.393-.044,11.5,11.5,0,0,1-1.917.089q-.195-.268-.414-.514a6.95,6.95,0,0,1,3.081-.272m-3.949.64.075.078-.185-.018.11-.06m-8.55-1.809a24.987,24.987,0,0,0,5.635.494,3.449,3.449,0,0,1,2.065.614q-.484.2-.954.436a8.473,8.473,0,0,0-3.017-.6,5.4,5.4,0,0,0-1.624.232q-.171-.13-.35-.25a4.787,4.787,0,0,0-3.8-.82,18.413,18.413,0,0,1-3.412.434,11.731,11.731,0,0,1,5.461-.542M-60-11.575c.081.023.165.047.253.069a4.206,4.206,0,0,0-.47.1,14.836,14.836,0,0,1-1.834.35l-.858-.251A4.8,4.8,0,0,1-60-11.575m-4.378-.25-.078.064-.418-.121c.159.021.324.04.5.057m-3.758,1.348c-.288.088-.58.188-.873.3.124-.073.251-.146.38-.217.171-.025.335-.052.493-.082m-.5-.916c-.092.047-.182.095-.272.144-.372.051-.768.092-1.172.122a9.164,9.164,0,0,1,1.444-.266M-72.976-9.4a6.231,6.231,0,0,1,.951-.779c.468.006.958,0,1.449-.027a9.3,9.3,0,0,0-.9.746,3.957,3.957,0,0,0-.68.876q-.228.147-.449.3a10.823,10.823,0,0,0-1.6.625A8.089,8.089,0,0,1-72.976-9.4m-1.1-.924a3,3,0,0,1,.437.032h0a6.352,6.352,0,0,0-1.314,1.443A7.829,7.829,0,0,0-75.6-7.546l-.12-.009A4.8,4.8,0,0,0-79.543-6.04c-.1.1-.205.212-.3.324.907-2.463,3.622-4.612,5.772-4.612m-4.844,4.914a3.954,3.954,0,0,1,2.973-1.267c-.02.049-.039.1-.058.15A8.662,8.662,0,0,0-79.2-1.356c-.02.113-.037.227-.05.345a7.881,7.881,0,0,1-.813-2.705,5.434,5.434,0,0,1,1.143-1.7m-1.568,4.3a5.231,5.231,0,0,1-.018-.56A7.865,7.865,0,0,0-79.237.63l.009.011a10.519,10.519,0,0,0,.554,2.343,8.531,8.531,0,0,1-1.81-4.1M-78.373.279a5.832,5.832,0,0,1,.049-1.48,7.494,7.494,0,0,1,1.818-3.637,8.719,8.719,0,0,0-.151.933A4.638,4.638,0,0,0-76.9-2.7a5.5,5.5,0,0,0-.359,2.143,7.623,7.623,0,0,0,.442,2.246A9.959,9.959,0,0,1-78.373.279m1.5,4.323a8.962,8.962,0,0,1-1.24-2.824,13.815,13.815,0,0,0,1.864,1.356,9.742,9.742,0,0,0,.451,1.18,8.872,8.872,0,0,0,.662,1.174A11.849,11.849,0,0,1-76.877,4.6m1.969,1.931q.4.147.805.278c.183.2.375.4.573.592a12.938,12.938,0,0,1-1.378-.87M-70.326,8.7a13.053,13.053,0,0,1-2.019-1.423c.524.114,1.052.206,1.574.274a5.626,5.626,0,0,0,4.083,1.186,11.015,11.015,0,0,1,2.05-.071c-.406.079-.79.167-1.135.264a8.911,8.911,0,0,1-4.553-.23m11.549,1.471a28.3,28.3,0,0,0-4.882-.414,17.267,17.267,0,0,0-2.2.12c-.054.008-.107.014-.161.019.166-.032.328-.069.485-.113a21.235,21.235,0,0,1,4.094-.629c.19.054.371.112.539.173a7.083,7.083,0,0,0,4.651-.2c.295.088.6.17.912.245a4.339,4.339,0,0,1-3.439.8M-41.554,7.79l.025-.014.072.006-.033.015-.064-.007m3.779.909c-.084-.022-.171-.042-.259-.062a.139.139,0,0,1,.019-.006,8.269,8.269,0,0,1,1,.1A4.771,4.771,0,0,0-33.808,8l.506-.081a6.027,6.027,0,0,0,.559.24,9.2,9.2,0,0,1-5.032.541m10.17-.291c-.075-.044-.15-.089-.223-.135.622-.005,1.258-.04,1.9-.1a12.4,12.4,0,0,1,1.827.237c.1.022.2.042.308.058A16.3,16.3,0,0,1-27.6,8.408m2.15,1.03a12.173,12.173,0,0,0,3.071-.33,12.161,12.161,0,0,0,2.587.966,9.89,9.89,0,0,1-5.658-.636M-10.7,8.446c-.093.008-.187.008-.279.011A21.438,21.438,0,0,0-16,9.184c-.5.076-1.014.17-1.516.278a9.04,9.04,0,0,1-3.564-.731,23.92,23.92,0,0,1,4.826-.748c.259.012.513.011.763,0l.05,0a4.829,4.829,0,0,0,1.187-.093,9.311,9.311,0,0,0,3.87.4c-.1.053-.208.1-.313.15M-5.831,5.8a4.29,4.29,0,0,0,.652-.349A4.831,4.831,0,0,0-3.746,4a4.837,4.837,0,0,0,.51-.646,4.244,4.244,0,0,1-.757,1.694A4.614,4.614,0,0,1-6.05,6.138c.076-.11.148-.222.219-.337m4.338-1.279A4.632,4.632,0,0,1-3.964,6.96a3.794,3.794,0,0,1-1.443.325,5.725,5.725,0,0,0,1.784-1.3c.106-.117.207-.237.3-.362A7.787,7.787,0,0,0-1.506,1.794,4.97,4.97,0,0,0-1.835-.695a11.234,11.234,0,0,0,.292-1.163A4.568,4.568,0,0,1-.883.081a11.4,11.4,0,0,1-.61,4.441" fill="#ecf5e1"/>
      </g>
      <g id="Grupo_24" data-name="Grupo 24" transform="translate(238.88 -11.143)">
        <path id="Caminho_15" data-name="Caminho 15" d="M0,0A5.532,5.532,0,0,0-1.37-3.117,7.487,7.487,0,0,0-1.425-4.89,4.781,4.781,0,0,0-2.843-8.516,8.184,8.184,0,0,0-6.71-10.657q-.324-.183-.652-.339c-1.768-1.589-4.308-2.547-6.118-2.1a12.544,12.544,0,0,1-4.7.013,4.934,4.934,0,0,0-3.642.837,9.647,9.647,0,0,0-4.26-1.035,16.633,16.633,0,0,0-7.753.662,5.321,5.321,0,0,0-1.634-.69c-.044-.034-.089-.066-.136-.1a7.439,7.439,0,0,0-6.308-.484,9.925,9.925,0,0,0-3.381.8l-.039.013a4.487,4.487,0,0,0-3.109-1.132,23.857,23.857,0,0,1-5.393-.474c-2.1-.469-5.4.161-8.029,1.357a11.14,11.14,0,0,0-2.5.334c-.216-.029-.421-.062-.61-.1-1.971-.383-5.015.475-7.295,1.885-.075.04-.15.081-.223.123a10.2,10.2,0,0,1-1.02-.091c-2.71-.394-6.322,2.324-7.289,5.5a5.158,5.158,0,0,0-.171,1.833,6.314,6.314,0,0,0-.4,2.8,9.56,9.56,0,0,0,3.172,5.787,8.234,8.234,0,0,0,.695.506c.056.077.114.152.172.226a13.561,13.561,0,0,0,6.668,4.05A8.381,8.381,0,0,0-65.74,10.76a25.559,25.559,0,0,1,6.8.286A5.269,5.269,0,0,0-54.237,9.61l0,0a24.477,24.477,0,0,0,8.644-.1c.19,0,.378-.009.563-.019a4.5,4.5,0,0,0,1.322-.083A14.755,14.755,0,0,1-38,9.557a10.989,10.989,0,0,0,6.666-1.008,22.689,22.689,0,0,0,3.437.72,13.7,13.7,0,0,0,6.5,1.874,7.082,7.082,0,0,0,2.2-.32c.548-.179,1.165-.343,1.8-.482a5.329,5.329,0,0,0,1.323-.213c.091-.028.185-.056.281-.083a13.71,13.71,0,0,1,2.65-.182,5.963,5.963,0,0,0,2.655-.55,5.706,5.706,0,0,0,2.861-1.4c.2-.027.4-.059.593-.1.123.039.237.079.342.122a4.031,4.031,0,0,0,3.076-.161A5.528,5.528,0,0,0-.671,4.851,12.228,12.228,0,0,0,0,0M-3.483-7.9A3.938,3.938,0,0,1-2.306-5.029a7.774,7.774,0,0,0-.565-1.742,7.408,7.408,0,0,0-.906-1.418c.1.093.2.187.294.285m-.188,1.515A7.393,7.393,0,0,1-3.1-4.4c-.109-.047-.218-.089-.327-.125A4.783,4.783,0,0,0-4.8-6.566c-.068-.062-.138-.122-.209-.181a10.638,10.638,0,0,0-.741-2.177A7.814,7.814,0,0,1-3.671-6.389M-58.47,8.257c-.119.015-.237.024-.354.028.1-.016.2-.035.3-.056l.056.028m-2.407-.011c-.153.005-.309.012-.466.021l-.2-.052c.066,0,.132,0,.2-.006.162.01.321.022.472.037M-72.168,6.411c-.484-.1-.967-.23-1.436-.374q-.269-.308-.506-.627a11.245,11.245,0,0,0,1.942,1M-75.412,2.6c-.014-.009-.028-.016-.042-.024-.029-.055-.057-.11-.085-.166,0-.012-.006-.023-.01-.035.044.076.089.151.137.225M-12.976-9.207h.019l.111.052-.13-.053m2.225.332c.112.027.222.055.33.085-.09-.014-.182-.027-.274-.038l-.056-.047M-57.9-12.508a15.789,15.789,0,0,0,2.035-.34,3.843,3.843,0,0,1,2.943.595c-.367.129-.769.248-1.18.351A5.424,5.424,0,0,0-55.069-12c-.1,0-.2,0-.293.01a12.359,12.359,0,0,1-1.552,0,7.022,7.022,0,0,0-.981-.519m4.527,1.78.229-.005.014.005-.523.141-.086,0c.124-.043.24-.1.366-.137m45.825.787a5.859,5.859,0,0,1,.919,1.246,7.381,7.381,0,0,1,.493,1.2c-.1-.052-.2-.1-.3-.153a9.98,9.98,0,0,0-5.917-2.4l2.421-.1a11.154,11.154,0,0,1,2.386.2m-5.722-2.293a5.117,5.117,0,0,1,3.208.511,4.113,4.113,0,0,0-.737.039,15.745,15.745,0,0,1-4.934-.257c-.064-.015-.13-.028-.2-.041a10.969,10.969,0,0,0,2.659-.252m-2.666,1.156a12.781,12.781,0,0,0,1.385.236l-.632.026c-.277-.051-.559-.094-.845-.126-.176-.082-.359-.159-.546-.23a4.1,4.1,0,0,1,.638.094m-2.425-1.136a10.629,10.629,0,0,0,1.075.16,8.694,8.694,0,0,0-1.776.306,11.309,11.309,0,0,0-1.175-.061c-.148,0-.3,0-.448.009l-.118-.007a3.762,3.762,0,0,1,2.442-.407m-4.634.42-.021,0c-.1,0-.2,0-.3,0-.078-.066-.158-.131-.238-.193q.289.089.563.2m-4.123-.318a3.173,3.173,0,0,1,2.354.388l-.231.025c-.326-.07-.635-.146-.912-.224a5.076,5.076,0,0,0-1.26-.176l.049-.013m-8.85.314a19.549,19.549,0,0,1-3.144.227,7.176,7.176,0,0,1,3.144-.227m-1.55-1.493a17.48,17.48,0,0,1-2.772-.071,7.084,7.084,0,0,1,2.772.071m-4.012.643a15.69,15.69,0,0,0,2.115.244c-.08.028-.158.057-.234.089a10.333,10.333,0,0,1-1.238.408,4.183,4.183,0,0,0-1.393-.044,11.5,11.5,0,0,1-1.917.089q-.195-.268-.414-.514a6.95,6.95,0,0,1,3.081-.272m-3.949.64.075.078-.185-.018.11-.06m-8.55-1.809a24.987,24.987,0,0,0,5.635.494,3.449,3.449,0,0,1,2.065.614q-.484.2-.954.436a8.473,8.473,0,0,0-3.017-.6,5.4,5.4,0,0,0-1.624.232q-.171-.13-.35-.25a4.787,4.787,0,0,0-3.8-.82,18.413,18.413,0,0,1-3.412.434,11.731,11.731,0,0,1,5.461-.542M-60-11.575c.081.023.165.047.253.069a4.206,4.206,0,0,0-.47.1,14.836,14.836,0,0,1-1.834.35l-.858-.251A4.8,4.8,0,0,1-60-11.575m-4.378-.25-.078.064-.418-.121c.159.021.324.04.5.057m-3.758,1.348c-.288.088-.58.188-.873.3.124-.073.251-.146.38-.217.171-.025.335-.052.493-.082m-.5-.916c-.092.047-.182.095-.272.144-.372.051-.768.092-1.172.122a9.164,9.164,0,0,1,1.444-.266M-72.976-9.4a6.231,6.231,0,0,1,.951-.779c.468.006.958,0,1.449-.027a9.3,9.3,0,0,0-.9.746,3.957,3.957,0,0,0-.68.876q-.228.147-.449.3a10.823,10.823,0,0,0-1.6.625A8.089,8.089,0,0,1-72.976-9.4m-1.1-.924a3,3,0,0,1,.437.032h0a6.352,6.352,0,0,0-1.314,1.443A7.829,7.829,0,0,0-75.6-7.546l-.12-.009A4.8,4.8,0,0,0-79.543-6.04c-.1.1-.205.212-.3.324.907-2.463,3.622-4.612,5.772-4.612m-4.844,4.914a3.954,3.954,0,0,1,2.973-1.267c-.02.049-.039.1-.058.15A8.662,8.662,0,0,0-79.2-1.356c-.02.113-.037.227-.05.345a7.881,7.881,0,0,1-.813-2.705,5.434,5.434,0,0,1,1.143-1.7m-1.568,4.3a5.231,5.231,0,0,1-.018-.56A7.865,7.865,0,0,0-79.237.63l.009.011a10.519,10.519,0,0,0,.554,2.343,8.531,8.531,0,0,1-1.81-4.1M-78.373.279a5.832,5.832,0,0,1,.049-1.48,7.494,7.494,0,0,1,1.818-3.637,8.719,8.719,0,0,0-.151.933A4.638,4.638,0,0,0-76.9-2.7a5.5,5.5,0,0,0-.359,2.143,7.623,7.623,0,0,0,.442,2.246A9.959,9.959,0,0,1-78.373.279m1.5,4.323a8.962,8.962,0,0,1-1.24-2.824,13.815,13.815,0,0,0,1.864,1.356,9.742,9.742,0,0,0,.451,1.18,8.872,8.872,0,0,0,.662,1.174A11.849,11.849,0,0,1-76.877,4.6m1.969,1.931q.4.147.805.278c.183.2.375.4.573.592a12.938,12.938,0,0,1-1.378-.87M-70.326,8.7a13.053,13.053,0,0,1-2.019-1.423c.524.114,1.052.206,1.574.274a5.626,5.626,0,0,0,4.083,1.186,11.015,11.015,0,0,1,2.05-.071c-.406.079-.79.167-1.135.264a8.911,8.911,0,0,1-4.553-.23m11.549,1.471a28.3,28.3,0,0,0-4.882-.414,17.267,17.267,0,0,0-2.2.12c-.054.008-.107.014-.161.019.166-.032.328-.069.485-.113a21.235,21.235,0,0,1,4.094-.629c.19.054.371.112.539.173a7.083,7.083,0,0,0,4.651-.2c.295.088.6.17.912.245a4.339,4.339,0,0,1-3.439.8M-41.554,7.79l.025-.014.072.006-.033.015-.064-.007m3.779.909c-.084-.022-.171-.042-.259-.062a.139.139,0,0,1,.019-.006,8.269,8.269,0,0,1,1,.1A4.771,4.771,0,0,0-33.808,8l.506-.081a6.027,6.027,0,0,0,.559.24,9.2,9.2,0,0,1-5.032.541m10.17-.291c-.075-.044-.15-.089-.223-.135.622-.005,1.258-.04,1.9-.1a12.4,12.4,0,0,1,1.827.237c.1.022.2.042.308.058A16.3,16.3,0,0,1-27.6,8.408m2.15,1.03a12.173,12.173,0,0,0,3.071-.33,12.161,12.161,0,0,0,2.587.966,9.89,9.89,0,0,1-5.658-.636M-10.7,8.446c-.093.008-.187.008-.279.011A21.438,21.438,0,0,0-16,9.184c-.5.076-1.014.17-1.516.278a9.04,9.04,0,0,1-3.564-.731,23.92,23.92,0,0,1,4.826-.748c.259.012.513.011.763,0l.05,0a4.829,4.829,0,0,0,1.187-.093,9.311,9.311,0,0,0,3.87.4c-.1.053-.208.1-.313.15M-5.831,5.8a4.29,4.29,0,0,0,.652-.349A4.831,4.831,0,0,0-3.746,4a4.837,4.837,0,0,0,.51-.646,4.244,4.244,0,0,1-.757,1.694A4.614,4.614,0,0,1-6.05,6.138c.076-.11.148-.222.219-.337m4.338-1.279A4.632,4.632,0,0,1-3.964,6.96a3.794,3.794,0,0,1-1.443.325,5.725,5.725,0,0,0,1.784-1.3c.106-.117.207-.237.3-.362A7.787,7.787,0,0,0-1.506,1.794,4.97,4.97,0,0,0-1.835-.695a11.234,11.234,0,0,0,.292-1.163A4.568,4.568,0,0,1-.883.081a11.4,11.4,0,0,1-.61,4.441" fill="#ecf5e1"/>
      </g>
    </g>
  </g>
</svg>
