<svg xmlns="http://www.w3.org/2000/svg" xmlns:xlink="http://www.w3.org/1999/xlink" width="194.91" height="39.685" viewBox="0 0 194.91 39.685">
  <defs>
    <clipPath id="clip-path">
      <path id="Caminho_51" data-name="Caminho 51" d="M0,0H194.91V-39.685H0Z" fill="none"/>
    </clipPath>
  </defs>
  <g id="bg_ti_entre" transform="translate(0 39.685)">
    <g id="Grupo_69" data-name="Grupo 69" clip-path="url(#clip-path)">
      <g id="Grupo_65" data-name="Grupo 65" transform="translate(187.983 -20.014)">
        <path id="Caminho_47" data-name="Caminho 47" d="M0,0C0-8.145-3.493-11.056-11.737-12.644c-14.7-2.833-31.169,1.551-37.83,1.268-5.728-.244-41.868-1.7-47.2-1.7-9.585,0-35.008,1.134-42.8.567s-17.177-2.967-31.878-.134c-8.244,1.588-10.32,7-10.32,12.644,0,6.354,2.076,11.764,10.32,13.353,14.7,2.833,26.492-.21,35.138.215s30.684.02,38.125.142,71.744,2.476,86.445-.357C-3.493,11.764,0,8.145,0,0" fill="#ff9a39"/>
      </g>
      <g id="Grupo_66" data-name="Grupo 66" transform="translate(190.876 -18.313)">
        <path id="Caminho_48" data-name="Caminho 48" d="M0,0C.149-8.853-3.457-12.083-12.062-13.965c-15.345-3.358-32.673,1.094-39.644.659-5.995-.372-43.82-2.642-49.4-2.743-10.039-.182-36.686.568-44.84-.2s-17.936-3.55-33.385-.75c-8.663,1.57-10.936,7.411-11.04,13.547-.116,6.906,1.959,12.825,10.564,14.708,15.346,3.358,27.751.275,36.8.9s32.137.6,39.929.877,75.1,4.052,90.544,1.252C-3.874,12.72-.149,8.853,0,0Z" fill="none" stroke="#ffea3d" stroke-width="1"/>
      </g>
      <g id="Grupo_67" data-name="Grupo 67" transform="translate(194.406 -20.292)">
        <path id="Caminho_49" data-name="Caminho 49" d="M0,0C-.149-8.853-3.861-11.95-12.524-13.52c-15.449-2.8-32.616,2.277-39.6,2.1-6-.156-43.882-1.054-49.463-.953-10.039.182-36.645,1.9-44.82,1.428s-18.044-2.9-33.39.46c-8.6,1.883-10.68,7.8-10.577,13.938.117,6.906,2.39,12.747,11.053,14.317,15.449,2.8,27.742-.73,36.8-.432s32.137-.561,39.934-.569,75.186,1.329,90.531-2.029C-3.444,12.853.149,8.853,0,0Z" fill="none" stroke="#ffea3d" stroke-width="1"/>
      </g>
      <g id="Grupo_68" data-name="Grupo 68" transform="translate(185.487 -14.788)">
        <path id="Caminho_50" data-name="Caminho 50" d="M0,0C.484-8.838-2.766-12.2-10.75-14.4c-14.237-3.923-30.634-.117-37.144-.809-5.6-.6-40.924-4.263-46.146-4.57-9.393-.554-34.371-.791-41.976-1.856s-16.654-4.211-31.228-1.986c-8.172,1.248-10.527,7-10.863,13.125-.377,6.9,1.336,12.886,9.319,15.085,14.238,3.924,25.972,1.3,34.418,2.263s30.065,1.792,37.35,2.355,70.152,6.828,84.726,4.6C-4.122,12.564-.484,8.838,0,0Z" fill="none" stroke="#ffea3d" stroke-width="1"/>
      </g>
    </g>
  </g>
</svg>
