<svg xmlns="http://www.w3.org/2000/svg" xmlns:xlink="http://www.w3.org/1999/xlink" width="488" height="304" viewBox="0 0 488 304">
  <defs>
    <clipPath id="clip-path">
      <rect id="Retângulo_61" data-name="Retângulo 61" width="488" height="304" transform="translate(488 735)" fill="#006361"/>
    </clipPath>
    <clipPath id="clip-path-2">
      <path id="Caminho_339" data-name="Caminho 339" d="M0,0H673.474V-606.923H0Z" transform="translate(-28)" fill="none"/>
    </clipPath>
  </defs>
  <g id="bg_unidade_cie" transform="translate(-488 -735)" clip-path="url(#clip-path)">
    <g id="Grupo_471" data-name="Grupo 471" transform="translate(385.263 1038.767)">
      <g id="Grupo_470" data-name="Grupo 470" clip-path="url(#clip-path-2)">
        <g id="Grupo_466" data-name="Grupo 466" transform="translate(132.071 -85.835)">
          <path id="Caminho_335" data-name="Caminho 335" d="M0,0A43.43,43.43,0,0,1-.861,15.278,36.008,36.008,0,0,1-7.819,29.787c-5.935,7.269-14.4,11.679-22.734,15.616-8.52,4.026-16.776,7.972-24.434,13.528-4.8,3.479-9.476,7.154-14.679,10.021-12.551,6.917-26.763,9.513-40.81,6.255a61.81,61.81,0,0,1-29.7-16.661,69.164,69.164,0,0,1-18.765-34.66c-.283-1.422-.494-2.855-.662-4.294-.185-1.436-.326-2.877-.4-4.324C-161.154-8.78-148.445-33.1-127.406-45.048a58.007,58.007,0,0,1,18.575-6.7C-91.3-54.823-77.086-47.72-61.245-41.552a73.393,73.393,0,0,0,13.411,4c8.792,1.6,17.924,2.373,26.065,6.354A39.12,39.12,0,0,1-4.054-13.542,41.729,41.729,0,0,1,0,0" fill="#ffdb82"/>
        </g>
        <g id="Grupo_467" data-name="Grupo 467" transform="translate(55.268 -0.857)">
          <path id="Caminho_336" data-name="Caminho 336" d="M0,0C.2-1.658.1-2.641,1.116-4.034c1.922-2.64,5.343-4.755,8-6.523,6.9-4.6,13.7-9.271,20.774-13.526,8.877-5.337,18.962-7.224,28.035-11.85C62.8-38.421,68.508-41.05,70.484-46.47c2.16-5.927,6.167-10.986,7.962-17.129,1.383-4.735.916-10.05,1-14.927.08-4.382,1.1-9.086.356-13.43-.9-5.28-4.419-9.316-7.463-13.507-3.925-5.406-7.671-11.026-12.869-15.314-2.4-1.98-31.626-9.032-33.953-9.327-4.753-.6-8.321-2.429-12.637-4.308-2.2-.958-7.6-.355-3.355,2.448,3.972,2.623,9.97,1.5,14.34,1.274a59.533,59.533,0,0,1,9.467.751c3.955.422,8.141.447,11.9,1.891,3.517,1.352,4.179,4.1,9.99,5.671.046.013,19.892,18.256,18.912,16.6,1.974,3.326,1.671,6.645,2.247,10.3.847,5.363,2.807,10.368,3.956,15.635.975,4.467,1.407,9.405-1.132,13.473-2.418,3.874-6.916,6.965-10.419,9.814-2.66,2.163-3.327,4.936-5.271,7.871-1.627,2.535-2.609,5.962-4.96,7.851-4.8,3.651-11.927,3.637-16.936,6.992-5.175,3.465-12.1,5.782-17.125,9.48-5.237,3.856-8.373,9.407-13.623,13.209A24.223,24.223,0,0,1,2.561-7.385C-3.238-5.63-8.747-2.962-14.249-.46c-1.679-1.937,2.393-3.076,3.16-3.267q5.127-.09,10.243-.424A18.443,18.443,0,0,0,6.216-7.787C13.126-11.954,20.2-15.4,26.852-20.04a60.566,60.566,0,0,1,11.559-6.621c6.961-2.962,14.386-4.917,21.284-7.91q3.246-1.769,6.372-3.746c4.793-2.744,4.975-3.386,9.226-6.911a23.265,23.265,0,0,0,7.6-15.423c.44-4.984,2.318-10.7.967-15.271C82.388-80.886,82.546-86.2,80.944-91.1c-1.353-4.138-4.024-7.8-6.29-11.474-8.853-14.344.282-13.2-21.017-20.97-4.956-1.809-9.66-4.2-14.687-5.8-6.378-2.032-12.8-4.207-19.312-5.761-5.864-1.4-11.3-.9-17.2-.177" fill="none" stroke="#ffdb82" stroke-linecap="round" stroke-linejoin="round" stroke-width="1.714"/>
        </g>
        <g id="Grupo_468" data-name="Grupo 468" transform="translate(38.047 -295.006)">
          <path id="Caminho_337" data-name="Caminho 337" d="M0,0A57.415,57.415,0,0,0-6.3,20.305,49.691,49.691,0,0,0-3.912,42.861c4.529,12.606,13.9,22.842,23.33,32.4,9.635,9.767,18.947,19.295,26.663,30.59,4.829,7.078,9.409,14.341,15.094,20.838,13.711,15.675,31.8,26.615,52.52,29.865a90.3,90.3,0,0,0,48.588-5.824c17.257-7.221,32.6-19.483,42.495-35.032,1.079-1.695,2.069-3.447,3-5.224.953-1.77,1.851-3.565,2.653-5.408,13.327-30.625,7.907-68.993-14.906-95.719a88.909,88.909,0,0,0-22.021-18.6c-22.374-13.334-45.2-11.678-69.791-12.1A110.93,110.93,0,0,1,83.494-23.3c-12.758-2.6-25.57-6.465-38.6-5.631A54.345,54.345,0,0,0,0,0" fill="#006361"/>
        </g>
        <g id="Grupo_469" data-name="Grupo 469" transform="translate(240.273 -310.132)">
          <path id="Caminho_338" data-name="Caminho 338" d="M0,0A95.366,95.366,0,0,1-10.081-37.249,89.964,89.964,0,0,1-2.955-79.026c10.234-23.485,29.671-42.805,49.136-60.864,19.9-18.464,39.147-36.463,55.458-57.667,10.215-13.279,19.958-26.9,31.778-39.151,28.513-29.546,65.056-50.544,105.912-57.439,32.64-5.51,65.625-2.311,94.323,8.669,32.937,12.6,61.577,34.6,79.221,62.9,1.925,3.09,3.665,6.279,5.294,9.527,1.668,3.224,3.225,6.5,4.591,9.874,22.7,56.014,7.909,127.139-39.6,177.5A192.9,192.9,0,0,1,338.083,9.628C292.9,35.23,248.465,33.154,200.365,35a233.776,233.776,0,0,0-39.732,4.456c-25.217,5.354-50.68,13.045-76.061,12.063-23.9-.926-45.97-9.34-62.535-23.523A91.5,91.5,0,0,1,0,0" fill="#ff5872"/>
        </g>
      </g>
    </g>
  </g>
</svg>
