<svg xmlns="http://www.w3.org/2000/svg" xmlns:xlink="http://www.w3.org/1999/xlink" width="278" height="71" viewBox="0 0 278 71">
  <defs>
    <clipPath id="clip-path">
      <rect id="Retângulo_21" data-name="Retângulo 21" width="278" height="71" transform="translate(531 746)" fill="none"/>
    </clipPath>
  </defs>
  <g id="bg_vamos_avaliar_cie" transform="translate(-531 -746)" clip-path="url(#clip-path)">
    <g id="Grupo_243" data-name="Grupo 243" transform="translate(694.315 802.703)">
      <path id="Caminho_171" data-name="Caminho 171" d="M0,0A31.065,31.065,0,0,1-5.216-10.249a26.877,26.877,0,0,1-.8-12.242c1.262-7.134,5.32-13.45,9.469-19.407,4.241-6.09,8.335-12.021,11.411-18.751a116.709,116.709,0,0,1,6.138-12.492A47.606,47.606,0,0,1,46.27-93.872a48.88,48.88,0,0,1,26.436-1.346A50.376,50.376,0,0,1,98.569-80.435c.731.8,1.418,1.648,2.078,2.51s1.313,1.732,1.91,2.64c9.91,15.1,10.535,36.056.821,52.391A48.059,48.059,0,0,1,93.342-10.961C82.638-1.8,70.315-.6,57.247,1.884a59.728,59.728,0,0,0-10.6,2.888c-6.563,2.554-13.04,5.789-20.064,6.537a29.652,29.652,0,0,1-18.7-4.194A29.816,29.816,0,0,1,0,0" fill="#ffc734"/>
    </g>
    <g id="Grupo_244" data-name="Grupo 244" transform="translate(728.099 716.916)">
      <path id="Caminho_172" data-name="Caminho 172" d="M0,0A1.692,1.692,0,0,1-1.258,1.982l-1.22.235A11.253,11.253,0,0,0-5.963,4.726c-2.619,2.331-6.412,5.328-6.907,9.141-.466,3.6.241,6.976-1.273,10.484-1.73,4.009-5.965,6.532-8.1,10.426a49.253,49.253,0,0,1-8.8,11.438c-3.444,3.471-8.509,5.734-9.662,10.943A14.679,14.679,0,0,0-38.167,69.7c3.818,5.285,8.4,9.986,14.164,12.949,7.223,3.715,14.659,3.287,22.487,2.863,9.38-.508,18.621-1.643,27.91-3.035,16.428-2.462,34.385-5.107,42.4-22.264,3.118-6.677,4.294-14.37,4.317-21.756q-.081-3.365-.263-6.728c-.365-3.792-1.846-6.465-3.3-9.885a25.379,25.379,0,0,0-2.867-6.154c-2.3-3.556-5.472-6.528-8.015-9.9C57.381,4.091,56.2,1.839,54.421.6a33.637,33.637,0,0,0-4.14-2.112c4.3.891,9.469,4.276,12.739,7.127a60,60,0,0,1,6.822,7.7c2.752,3.8,3.392,6.945,4.3,11.513A124.232,124.232,0,0,1,76.568,44.8c.24,6.894-3.614,11.651-7.65,16.718A86.745,86.745,0,0,1,57.282,73.581c-4.461,3.734-10.181,6.073-15.561,7.982-4.308,1.528-8.23,3.142-12.8,3.382a180.619,180.619,0,0,1-21.735-.4c-6.363-.427-12.619-1.653-19-1.926-7.192-.31-15.635.676-22.084-3.454-5.591-3.58-4.67-10.6-2.983-16.271,2.428-8.17,8.017-13.258,14.263-18.374,5.11-4.184,10.642-8.382,11.694-15.4q.286-4.494.914-8.949A33.383,33.383,0,0,1-4.3,8.43,38.112,38.112,0,0,1,14.717-5.709C21.36-8,30.663-10.417,37.562-7.785q-.648,1.131-2.371.466a102.2,102.2,0,0,0-11.239,2.2C16.253-3.3,8.588-1.6,2.256,3.552c-4.036,3.284-9.035,7.736-11.7,12.381S-12.307,25.7-12.41,30.9c-.1,4.816-1.919,8.082-4.882,11.709-4.031,4.933-8.274,7.164-13.905,9.784-4.345,2.022-9.744,4.607-11.431,9.717-1.656,5.018,1.075,8.634,4.652,11.651,11.908,10.044,27.469,14,42.505,14.274,19.141.354,39.3-5.183,55.372-16.044,6.381-4.311,9.065-10.071,11.763-17.22,2.772-7.344,2.626-14.64,2.344-22.433-.228-6.289-1.807-14.092-4.873-19.583A24.435,24.435,0,0,0,58.175,3c-5.8-3.486-12.1-5.91-18.3-8.474" fill="none" stroke="#fff" stroke-width="1"/>
    </g>
    <g id="Grupo_245" data-name="Grupo 245" transform="translate(700.452 738.137)">
      <path id="Caminho_173" data-name="Caminho 173" d="M0,0A45.823,45.823,0,0,1-8.427,14.729,39.662,39.662,0,0,1-22.892,25.615c-9.825,4.217-20.9,4.321-31.612,4.02-10.947-.309-21.579-.563-32.372,1.084-6.76,1.031-13.5,2.314-20.382,2.535-16.612.525-32.846-4.074-46.024-14.4a72.089,72.089,0,0,1-23.051-31.534c-5.179-14-6.371-29.636-2.684-43.877.4-1.554.887-3.084,1.417-4.6.513-1.518,1.075-3.02,1.713-4.492,10.623-24.452,35.972-42.176,63.992-43.4a70.848,70.848,0,0,1,22.844,2.735c19.964,5.8,31.426,20.025,45.059,34.146a88.156,88.156,0,0,0,12.139,10.75c8.464,6.031,17.7,11.408,24.3,19.471A43.739,43.739,0,0,1,2.4-15.488,44,44,0,0,1,0,0" fill="#08b8b0"/>
    </g>
    <g id="Grupo_246" data-name="Grupo 246" transform="translate(526.503 731.935)">
      <path id="Caminho_174" data-name="Caminho 174" d="M0,0A5.908,5.908,0,0,0,2.529,4.116c3.534,2.96,7.453,5.516,11.046,8.422,6.7,5.414,12.966,10.634,21.27,13.376a174.109,174.109,0,0,0,25.189,6.553C71.869,34.485,83.675,31.255,95.4,30.1c9.45-.929,19.366.278,28.679,1.983,3.281.6,6.692,1.571,10.063,1.108,5.473-.753,10.4-4.376,15.311-6.619,8.376-3.83,19.464-7.792,22.172-17.792,1.447-5.344.521-11.912-.012-17.319-.328-3.327-.518-7.768-2.722-10.543a1.894,1.894,0,0,0-.787,2.06c-.453,3.346.349,7.005.527,10.341a35.343,35.343,0,0,1-7.175,22.933c-7.395,9.182-19.311,11.039-30.3,12.374a138.363,138.363,0,0,1-17.112,1.382c-6.073-.027-12.195-1.056-18.2-1.832q-6.48-.962-13-1.574a29.08,29.08,0,0,0-13.787,2.859c-3.938,1.718-7.754,3.784-11.947,4.849A62.065,62.065,0,0,1,39.9,35.751c-7.052-.28-11.7-1.737-17.382-5.8C17.136,26.107,11.839,22.067,6.548,18.1-.708,12.664-7.105,7.117-12.654-.125c2.28,2.976-6.445-9.26-6.7-9.269a11.293,11.293,0,0,0,3.028,4.362C-11.738.305-5.956,4.675-.814,9.451A122.767,122.767,0,0,0,8.473,17.84a71.649,71.649,0,0,0,16.331,9.1A57.307,57.307,0,0,0,38.191,30.5a126.225,126.225,0,0,0,22.094,2.4q6.366-.009,12.712-.5c5.06-.472,9.828-1.7,14.8-2.648A104.015,104.015,0,0,1,99.9,28.247c5.771-.287,10.45.931,16.022,2.2,8.532,1.942,16.1,2.253,24.515-.338q5.132-1.739,10.178-3.708c4.8-1.691,9.6-2.885,13.81-5.905,4.448-3.188,6.589-6.746,7.67-12.087,1.043-5.147.858-10.523.676-15.733" fill="none" stroke="#fff" stroke-width="1"/>
    </g>
    <path id="Caminho_176" data-name="Caminho 176" d="M0,0H355.859V-201.174H0Z" transform="translate(506.404 830.19)" fill="none"/>
    <g id="Grupo" transform="translate(506.404 830.19)">
      <text id="_" data-name=" " transform="translate(344.862 -31.249) rotate(-20.042)" fill="#fff" font-size="10" font-family="ArialMT, Arial"><tspan x="0" y="0"> </tspan></text>
      <text id="_2" data-name=" " transform="translate(344.862 -31.249) rotate(-20.042)" fill="#fff" font-size="10" font-family="ArialMT, Arial"><tspan x="0" y="0"> </tspan></text>
    </g>
  </g>
</svg>
