<svg id="caderno_comlinha" xmlns="http://www.w3.org/2000/svg" xmlns:xlink="http://www.w3.org/1999/xlink" width="394.411" height="166.306" viewBox="0 0 394.411 166.306">
  <defs>
    <clipPath id="clip-path">
      <rect id="Retângulo_64" data-name="Retângulo 64" width="394.411" height="166.306" fill="none"/>
    </clipPath>
  </defs>
  <g id="Grupo_484" data-name="Grupo 484" clip-path="url(#clip-path)">
    <path id="Caminho_349" data-name="Caminho 349" d="M40.065,170.4c2.188.117.039,4.107-.154,4.062s-4.143-.312-11.558-1.414a58.414,58.414,0,0,1-11.974-2.758l-.424-3.98A89.418,89.418,0,0,0,29.1,169.234c7,.917,10.778,1.151,10.962,1.162" fill="#2e2c3c"/>
    <path id="Caminho_350" data-name="Caminho 350" d="M40.2,151.869c2.188.119.039,4.111-.157,4.064s-4.141-.312-11.555-1.413a58.446,58.446,0,0,1-11.974-2.759l-.425-3.981a89.624,89.624,0,0,0,13.145,2.929c7.005.917,10.782,1.151,10.966,1.16" fill="#2e2c3c"/>
    <path id="Caminho_351" data-name="Caminho 351" d="M39.924,133.179c2.189.117.039,4.108-.155,4.063s-4.141-.313-11.557-1.414a58.469,58.469,0,0,1-11.974-2.759l-.423-3.98a89.682,89.682,0,0,0,13.147,2.928c7,.916,10.779,1.151,10.962,1.162" fill="#2e2c3c"/>
    <path id="Caminho_352" data-name="Caminho 352" d="M39.562,114.439c2.188.118.039,4.11-.154,4.063s-4.142-.312-11.559-1.411a58.619,58.619,0,0,1-11.974-2.761l-.424-3.979A89.439,89.439,0,0,0,28.6,113.277c7,.918,10.778,1.152,10.962,1.162" fill="#2e2c3c"/>
    <path id="Caminho_353" data-name="Caminho 353" d="M39.7,95.914c2.189.118.039,4.11-.156,4.063s-4.14-.313-11.557-1.413a58.555,58.555,0,0,1-11.973-2.759l-.424-3.981a89.577,89.577,0,0,0,13.146,2.928c7,.917,10.781,1.15,10.964,1.162" fill="#2e2c3c"/>
    <path id="Caminho_354" data-name="Caminho 354" d="M39.42,77.223c2.189.116.039,4.107-.152,4.062s-4.144-.312-11.558-1.413a58.557,58.557,0,0,1-11.975-2.759l-.425-3.979A89.7,89.7,0,0,0,28.459,76.06c7,.917,10.778,1.152,10.961,1.163" fill="#2e2c3c"/>
    <path id="Caminho_355" data-name="Caminho 355" d="M39.384,58.6c2.189.117.039,4.109-.156,4.063s-4.142-.313-11.557-1.414A58.555,58.555,0,0,1,15.7,58.49l-.426-3.981A89.82,89.82,0,0,0,28.42,57.436c7,.916,10.78,1.151,10.964,1.162" fill="#2e2c3c"/>
    <path id="Caminho_356" data-name="Caminho 356" d="M39.519,40.072c2.188.117.039,4.11-.155,4.064s-4.143-.313-11.557-1.416a58.382,58.382,0,0,1-11.973-2.757l-.426-3.979a89.82,89.82,0,0,0,13.148,2.927c7,.916,10.778,1.151,10.963,1.161" fill="#2e2c3c"/>
    <path id="Caminho_357" data-name="Caminho 357" d="M39.241,21.38c2.189.119.039,4.111-.154,4.064s-4.142-.314-11.558-1.413a58.556,58.556,0,0,1-11.974-2.759l-.424-3.982a89.539,89.539,0,0,0,13.147,2.929c7,.918,10.779,1.149,10.963,1.161" fill="#2e2c3c"/>
    <path id="Caminho_358" data-name="Caminho 358" d="M25.763,8.2,26,372.216H375.191l.171-363.9ZM41.59,364.084a4.446,4.446,0,1,1,4.331-4.446,4.39,4.39,0,0,1-4.331,4.446m0-17.235a4.445,4.445,0,1,1,4.331-4.443,4.389,4.389,0,0,1-4.331,4.443m0-19.262a4.445,4.445,0,1,1,4.331-4.443,4.389,4.389,0,0,1-4.331,4.443m0-19.263a4.446,4.446,0,1,1,4.331-4.444,4.388,4.388,0,0,1-4.331,4.444m0-18.246a4.447,4.447,0,1,1,4.331-4.448,4.391,4.391,0,0,1-4.331,4.448m0-18.248a4.449,4.449,0,1,1,4.331-4.448,4.391,4.391,0,0,1-4.331,4.448m0-19.264a4.447,4.447,0,1,1,4.331-4.445,4.389,4.389,0,0,1-4.331,4.445m0-18.25a4.447,4.447,0,1,1,4.331-4.445,4.388,4.388,0,0,1-4.331,4.445m0-18.248a4.447,4.447,0,1,1,4.331-4.445,4.389,4.389,0,0,1-4.331,4.445m0-18.248a4.448,4.448,0,1,1,4.331-4.445,4.389,4.389,0,0,1-4.331,4.445m0-18.25a4.447,4.447,0,1,1,4.331-4.445,4.388,4.388,0,0,1-4.331,4.445m0-19.262a4.447,4.447,0,1,1,4.331-4.445,4.389,4.389,0,0,1-4.331,4.445m0-18.249a4.446,4.446,0,1,1,4.331-4.445,4.389,4.389,0,0,1-4.331,4.445m0-19.262a4.447,4.447,0,1,1,4.331-4.446A4.39,4.39,0,0,1,41.59,122.8m0-19.262a4.447,4.447,0,1,1,4.331-4.446,4.389,4.389,0,0,1-4.331,4.446m0-18.249a4.447,4.447,0,1,1,4.331-4.446,4.39,4.39,0,0,1-4.331,4.446m0-19.262a4.448,4.448,0,1,1,4.331-4.446,4.39,4.39,0,0,1-4.331,4.446m0-18.249a4.447,4.447,0,1,1,4.331-4.445,4.39,4.39,0,0,1-4.331,4.445m0-18.249a4.447,4.447,0,1,1,4.331-4.445,4.39,4.39,0,0,1-4.331,4.445" fill="#f2b243"/>
    <path id="Caminho_359" data-name="Caminho 359" d="M31.293,14.791l1.6,354.336,338.3-.481.164-353.855Zm9.549,348.674a4.446,4.446,0,1,1,4.332-4.444,4.391,4.391,0,0,1-4.332,4.444m0-17.233a4.445,4.445,0,1,1,4.332-4.443,4.388,4.388,0,0,1-4.332,4.443m0-19.262a4.446,4.446,0,1,1,4.332-4.445,4.39,4.39,0,0,1-4.332,4.445m0-19.261a4.447,4.447,0,1,1,4.332-4.446,4.391,4.391,0,0,1-4.332,4.446m0-18.25a4.447,4.447,0,1,1,4.332-4.446,4.39,4.39,0,0,1-4.332,4.446m0-18.246a4.448,4.448,0,1,1,4.332-4.448,4.393,4.393,0,0,1-4.332,4.448m0-19.266a4.447,4.447,0,1,1,4.332-4.445,4.39,4.39,0,0,1-4.332,4.445m0-18.25a4.446,4.446,0,1,1,4.332-4.443,4.389,4.389,0,0,1-4.332,4.443m0-18.246A4.447,4.447,0,1,1,45.174,211a4.391,4.391,0,0,1-4.332,4.447m0-18.25a4.448,4.448,0,1,1,4.332-4.443,4.389,4.389,0,0,1-4.332,4.443m0-18.246a4.448,4.448,0,1,1,4.332-4.447,4.392,4.392,0,0,1-4.332,4.447m0-19.265a4.447,4.447,0,1,1,4.332-4.444,4.39,4.39,0,0,1-4.332,4.444m0-18.247A4.447,4.447,0,1,1,45.174,137a4.391,4.391,0,0,1-4.332,4.447m0-19.264a4.447,4.447,0,1,1,4.332-4.446,4.39,4.39,0,0,1-4.332,4.446m0-19.262a4.447,4.447,0,1,1,4.332-4.445,4.39,4.39,0,0,1-4.332,4.445m0-18.249a4.446,4.446,0,1,1,4.332-4.446,4.39,4.39,0,0,1-4.332,4.446m0-19.263a4.447,4.447,0,1,1,4.332-4.443A4.389,4.389,0,0,1,40.842,65.4m0-18.248a4.446,4.446,0,1,1,4.332-4.446,4.39,4.39,0,0,1-4.332,4.446m0-18.249a4.447,4.447,0,1,1,4.332-4.445,4.39,4.39,0,0,1-4.332,4.445" fill="#dedede"/>
    <path id="Caminho_360" data-name="Caminho 360" d="M31.293,14.791l1.6,354.336,338.3-.481.164-353.855Zm9.549,348.674a4.446,4.446,0,1,1,4.332-4.444A4.391,4.391,0,0,1,40.842,363.465Zm0-17.233a4.445,4.445,0,1,1,4.332-4.443A4.388,4.388,0,0,1,40.842,346.232Zm0-19.262a4.446,4.446,0,1,1,4.332-4.445A4.39,4.39,0,0,1,40.842,326.97Zm0-19.261a4.447,4.447,0,1,1,4.332-4.446A4.391,4.391,0,0,1,40.842,307.709Zm0-18.25a4.447,4.447,0,1,1,4.332-4.446A4.39,4.39,0,0,1,40.842,289.459Zm0-18.246a4.448,4.448,0,1,1,4.332-4.448A4.393,4.393,0,0,1,40.842,271.213Zm0-19.266a4.447,4.447,0,1,1,4.332-4.445A4.39,4.39,0,0,1,40.842,251.947Zm0-18.25a4.446,4.446,0,1,1,4.332-4.443A4.389,4.389,0,0,1,40.842,233.7Zm0-18.246A4.447,4.447,0,1,1,45.174,211,4.391,4.391,0,0,1,40.842,215.451Zm0-18.25a4.448,4.448,0,1,1,4.332-4.443A4.389,4.389,0,0,1,40.842,197.2Zm0-18.246a4.448,4.448,0,1,1,4.332-4.447A4.392,4.392,0,0,1,40.842,178.955Zm0-19.265a4.447,4.447,0,1,1,4.332-4.444A4.39,4.39,0,0,1,40.842,159.69Zm0-18.247A4.447,4.447,0,1,1,45.174,137,4.391,4.391,0,0,1,40.842,141.443Zm0-19.264a4.447,4.447,0,1,1,4.332-4.446A4.39,4.39,0,0,1,40.842,122.179Zm0-19.262a4.447,4.447,0,1,1,4.332-4.445A4.39,4.39,0,0,1,40.842,102.917Zm0-18.249a4.446,4.446,0,1,1,4.332-4.446A4.39,4.39,0,0,1,40.842,84.668Zm0-19.263a4.447,4.447,0,1,1,4.332-4.443A4.389,4.389,0,0,1,40.842,65.4Zm0-18.248a4.446,4.446,0,1,1,4.332-4.446A4.39,4.39,0,0,1,40.842,47.157Zm0-18.249a4.447,4.447,0,1,1,4.332-4.445A4.39,4.39,0,0,1,40.842,28.908Z" fill="none" stroke="#b2b2b2" stroke-miterlimit="10" stroke-width="0.5"/>
    <path id="Caminho_361" data-name="Caminho 361" d="M29.91,11.843l-.275,355.012,339.149.285.076-355Zm10.521,350.7a4.447,4.447,0,1,1,4.333-4.448,4.392,4.392,0,0,1-4.333,4.448m0-17.237a4.445,4.445,0,1,1,4.333-4.443,4.387,4.387,0,0,1-4.333,4.443m0-19.261a4.445,4.445,0,1,1,4.333-4.444,4.39,4.39,0,0,1-4.333,4.444m0-19.262a4.446,4.446,0,1,1,4.333-4.446,4.389,4.389,0,0,1-4.333,4.446m0-18.248a4.447,4.447,0,1,1,4.333-4.446,4.39,4.39,0,0,1-4.333,4.446m0-18.248a4.448,4.448,0,1,1,4.333-4.446,4.39,4.39,0,0,1-4.333,4.446m0-19.264a4.447,4.447,0,1,1,4.333-4.445,4.389,4.389,0,0,1-4.333,4.445m0-18.248a4.448,4.448,0,1,1,4.333-4.445,4.389,4.389,0,0,1-4.333,4.445m0-18.25a4.447,4.447,0,1,1,4.333-4.443,4.389,4.389,0,0,1-4.333,4.443m0-18.248a4.447,4.447,0,1,1,4.333-4.445,4.389,4.389,0,0,1-4.333,4.445m0-18.25a4.446,4.446,0,1,1,4.333-4.443,4.387,4.387,0,0,1-4.333,4.443m0-19.262a4.446,4.446,0,1,1,4.333-4.444,4.389,4.389,0,0,1-4.333,4.444m0-18.249a4.446,4.446,0,1,1,4.333-4.445,4.389,4.389,0,0,1-4.333,4.445m0-19.262a4.447,4.447,0,1,1,4.333-4.444,4.389,4.389,0,0,1-4.333,4.444m0-19.262a4.446,4.446,0,1,1,4.333-4.446,4.389,4.389,0,0,1-4.333,4.446m0-18.249a4.447,4.447,0,1,1,4.333-4.446,4.389,4.389,0,0,1-4.333,4.446m0-19.263a4.447,4.447,0,1,1,4.333-4.445,4.389,4.389,0,0,1-4.333,4.445m0-18.248a4.447,4.447,0,1,1,4.333-4.445,4.389,4.389,0,0,1-4.333,4.445m0-18.249a4.447,4.447,0,1,1,4.333-4.445,4.389,4.389,0,0,1-4.333,4.445" fill="#f4f4f4"/>
    <path id="Caminho_362" data-name="Caminho 362" d="M29.91,11.843l-.275,355.012,339.149.285.076-355Zm10.521,350.7a4.447,4.447,0,1,1,4.333-4.448A4.392,4.392,0,0,1,40.431,362.541Zm0-17.237a4.445,4.445,0,1,1,4.333-4.443A4.387,4.387,0,0,1,40.431,345.3Zm0-19.261a4.445,4.445,0,1,1,4.333-4.444A4.39,4.39,0,0,1,40.431,326.043Zm0-19.262a4.446,4.446,0,1,1,4.333-4.446A4.389,4.389,0,0,1,40.431,306.781Zm0-18.248a4.447,4.447,0,1,1,4.333-4.446A4.39,4.39,0,0,1,40.431,288.533Zm0-18.248a4.448,4.448,0,1,1,4.333-4.446A4.39,4.39,0,0,1,40.431,270.285Zm0-19.264a4.447,4.447,0,1,1,4.333-4.445A4.389,4.389,0,0,1,40.431,251.021Zm0-18.248a4.448,4.448,0,1,1,4.333-4.445A4.389,4.389,0,0,1,40.431,232.773Zm0-18.25a4.447,4.447,0,1,1,4.333-4.443A4.389,4.389,0,0,1,40.431,214.523Zm0-18.248a4.447,4.447,0,1,1,4.333-4.445A4.389,4.389,0,0,1,40.431,196.275Zm0-18.25a4.446,4.446,0,1,1,4.333-4.443A4.387,4.387,0,0,1,40.431,178.025Zm0-19.262a4.446,4.446,0,1,1,4.333-4.444A4.389,4.389,0,0,1,40.431,158.763Zm0-18.249a4.446,4.446,0,1,1,4.333-4.445A4.389,4.389,0,0,1,40.431,140.514Zm0-19.262a4.447,4.447,0,1,1,4.333-4.444A4.389,4.389,0,0,1,40.431,121.252Zm0-19.262a4.446,4.446,0,1,1,4.333-4.446A4.389,4.389,0,0,1,40.431,101.99Zm0-18.249a4.447,4.447,0,1,1,4.333-4.446A4.389,4.389,0,0,1,40.431,83.741Zm0-19.263a4.447,4.447,0,1,1,4.333-4.445A4.389,4.389,0,0,1,40.431,64.478Zm0-18.248a4.447,4.447,0,1,1,4.333-4.445A4.389,4.389,0,0,1,40.431,46.23Zm0-18.249a4.447,4.447,0,1,1,4.333-4.445A4.389,4.389,0,0,1,40.431,27.981Z" fill="none" stroke="#b2b2b2" stroke-miterlimit="10" stroke-width="0.5"/>
    <path id="Caminho_363" data-name="Caminho 363" d="M27.288,11.017V364.773l339.186-.033V10.98ZM39.972,361.676A4.447,4.447,0,1,1,44.3,357.23a4.393,4.393,0,0,1-4.331,4.446m0-17.235A4.445,4.445,0,1,1,44.3,340a4.389,4.389,0,0,1-4.331,4.443m0-19.262a4.445,4.445,0,1,1,4.331-4.445,4.392,4.392,0,0,1-4.331,4.445m0-19.263a4.446,4.446,0,1,1,4.331-4.445,4.389,4.389,0,0,1-4.331,4.445m0-18.246a4.447,4.447,0,1,1,4.331-4.448,4.393,4.393,0,0,1-4.331,4.448m0-18.25a4.447,4.447,0,1,1,4.331-4.446,4.392,4.392,0,0,1-4.331,4.446m0-19.264a4.446,4.446,0,1,1,4.331-4.445,4.391,4.391,0,0,1-4.331,4.445m0-18.25a4.446,4.446,0,1,1,4.331-4.443,4.389,4.389,0,0,1-4.331,4.443m0-18.246a4.447,4.447,0,1,1,4.331-4.445,4.392,4.392,0,0,1-4.331,4.445m0-18.25a4.446,4.446,0,1,1,4.331-4.445,4.391,4.391,0,0,1-4.331,4.445m0-18.25a4.445,4.445,0,1,1,4.331-4.443,4.389,4.389,0,0,1-4.331,4.443m0-19.262a4.445,4.445,0,1,1,4.331-4.444,4.39,4.39,0,0,1-4.331,4.444m0-18.247a4.446,4.446,0,1,1,4.331-4.446,4.392,4.392,0,0,1-4.331,4.446m0-19.264a4.445,4.445,0,1,1,4.331-4.444,4.39,4.39,0,0,1-4.331,4.444m0-19.262A4.446,4.446,0,1,1,44.3,96.68a4.39,4.39,0,0,1-4.331,4.445m0-18.249A4.445,4.445,0,1,1,44.3,78.432a4.39,4.39,0,0,1-4.331,4.444m0-19.263A4.446,4.446,0,1,1,44.3,59.168a4.39,4.39,0,0,1-4.331,4.445m0-18.248A4.445,4.445,0,1,1,44.3,40.921a4.39,4.39,0,0,1-4.331,4.444m0-18.249A4.446,4.446,0,1,1,44.3,22.671a4.39,4.39,0,0,1-4.331,4.445" fill="#fff"/>
    <path id="Caminho_364" data-name="Caminho 364" d="M27.288,11.017V364.773l339.186-.033V10.98ZM39.972,361.676A4.447,4.447,0,1,1,44.3,357.23,4.393,4.393,0,0,1,39.972,361.676Zm0-17.235A4.445,4.445,0,1,1,44.3,340,4.389,4.389,0,0,1,39.972,344.441Zm0-19.262a4.445,4.445,0,1,1,4.331-4.445A4.392,4.392,0,0,1,39.972,325.179Zm0-19.263a4.446,4.446,0,1,1,4.331-4.445A4.389,4.389,0,0,1,39.972,305.916Zm0-18.246a4.447,4.447,0,1,1,4.331-4.448A4.393,4.393,0,0,1,39.972,287.67Zm0-18.25a4.447,4.447,0,1,1,4.331-4.446A4.392,4.392,0,0,1,39.972,269.42Zm0-19.264a4.446,4.446,0,1,1,4.331-4.445A4.391,4.391,0,0,1,39.972,250.156Zm0-18.25a4.446,4.446,0,1,1,4.331-4.443A4.389,4.389,0,0,1,39.972,231.906Zm0-18.246a4.447,4.447,0,1,1,4.331-4.445A4.392,4.392,0,0,1,39.972,213.66Zm0-18.25a4.446,4.446,0,1,1,4.331-4.445A4.391,4.391,0,0,1,39.972,195.41Zm0-18.25a4.445,4.445,0,1,1,4.331-4.443A4.389,4.389,0,0,1,39.972,177.16Zm0-19.262a4.445,4.445,0,1,1,4.331-4.444A4.39,4.39,0,0,1,39.972,157.9Zm0-18.247a4.446,4.446,0,1,1,4.331-4.446A4.392,4.392,0,0,1,39.972,139.651Zm0-19.264a4.445,4.445,0,1,1,4.331-4.444A4.39,4.39,0,0,1,39.972,120.387Zm0-19.262A4.446,4.446,0,1,1,44.3,96.68,4.39,4.39,0,0,1,39.972,101.125Zm0-18.249A4.445,4.445,0,1,1,44.3,78.432,4.39,4.39,0,0,1,39.972,82.876Zm0-19.263A4.446,4.446,0,1,1,44.3,59.168,4.39,4.39,0,0,1,39.972,63.613Zm0-18.248A4.445,4.445,0,1,1,44.3,40.921,4.39,4.39,0,0,1,39.972,45.365Zm0-18.249A4.446,4.446,0,1,1,44.3,22.671,4.39,4.39,0,0,1,39.972,27.116Z" fill="none" stroke="#b2b2b2" stroke-miterlimit="10" stroke-width="0.5"/>
    <path id="Caminho_365" data-name="Caminho 365" d="M18.093,170.924s-2.636-1.791,2.827-4.742S40.212,157.9,40.212,157.9s3.671-1.8,2.75-4.177a2.838,2.838,0,0,0-3.19-1.873s2.995,1.064-2.05,2.963c-3.69,1.389-15.012,6.079-18.628,7.9-4.261,2.145-6.926,6.568-1,8.2" fill="#55ade7"/>
    <path id="Caminho_366" data-name="Caminho 366" d="M17.815,152.233s-2.635-1.792,2.827-4.743,19.292-8.278,19.292-8.278,3.669-1.8,2.751-4.176a2.83,2.83,0,0,0-3.192-1.872s2.995,1.062-2.049,2.962c-3.691,1.388-15.012,6.077-18.627,7.9-4.262,2.147-6.927,6.571-1,8.205" fill="#55ade7"/>
    <path id="Caminho_367" data-name="Caminho 367" d="M17.454,133.494s-2.636-1.791,2.825-4.742,19.293-8.278,19.293-8.278,3.672-1.8,2.753-4.176a2.835,2.835,0,0,0-3.192-1.874s2.993,1.065-2.05,2.962c-3.691,1.389-15.012,6.081-18.627,7.9-4.261,2.147-6.928,6.571-1,8.206" fill="#55ade7"/>
    <path id="Caminho_368" data-name="Caminho 368" d="M17.589,114.967s-2.635-1.792,2.828-4.743,19.292-8.276,19.292-8.276,3.67-1.8,2.751-4.178A2.835,2.835,0,0,0,39.27,95.9s2.995,1.064-2.051,2.962c-3.69,1.389-15.012,6.079-18.627,7.9-4.261,2.147-6.927,6.571-1,8.205" fill="#55ade7"/>
    <path id="Caminho_369" data-name="Caminho 369" d="M17.312,96.276s-2.635-1.79,2.826-4.741,19.293-8.278,19.293-8.278,3.668-1.8,2.749-4.178a2.84,2.84,0,0,0-3.191-1.874s3,1.066-2.049,2.965c-3.69,1.387-15.011,6.078-18.625,7.9-4.263,2.147-6.929,6.571-1,8.205" fill="#55ade7"/>
    <path id="Caminho_370" data-name="Caminho 370" d="M17.274,77.652S14.637,75.861,20.1,72.91s19.291-8.279,19.291-8.279,3.67-1.795,2.751-4.176a2.833,2.833,0,0,0-3.192-1.872s3,1.063-2.049,2.962c-3.69,1.388-15.011,6.08-18.627,7.9-4.262,2.145-6.927,6.57-1,8.2" fill="#55ade7"/>
    <path id="Caminho_371" data-name="Caminho 371" d="M17.409,59.127s-2.635-1.791,2.827-4.742S39.53,46.106,39.53,46.106s3.669-1.795,2.751-4.176a2.832,2.832,0,0,0-3.191-1.873s2.994,1.062-2.05,2.962c-3.691,1.388-15.014,6.079-18.628,7.9-4.261,2.145-6.928,6.569-1,8.2" fill="#55ade7"/>
    <path id="Caminho_372" data-name="Caminho 372" d="M17.132,40.434s-2.634-1.792,2.827-4.741,19.292-8.278,19.292-8.278,3.672-1.8,2.753-4.178a2.842,2.842,0,0,0-3.191-1.874s2.994,1.065-2.05,2.965c-3.692,1.388-15.015,6.078-18.63,7.9-4.258,2.149-6.926,6.571-1,8.2" fill="#55ade7"/>
    <line id="Linha_1" data-name="Linha 1" y2="0.5" transform="translate(49.508 11.175)" fill="none" stroke="#b2b2b2" stroke-miterlimit="10" stroke-width="0.5"/>
    <line id="Linha_2" data-name="Linha 2" y2="351.075" transform="translate(49.508 12.674)" fill="none" stroke="#b2b2b2" stroke-miterlimit="10" stroke-width="0.5" stroke-dasharray="0.999 0.999"/>
    <path id="Caminho_373" data-name="Caminho 373" d="M15.556,21.271s-.227-1.695,2.171-1.849,13.433,0,15.137.156.925.773.462,1.546.024.518.024.518,2.576.686,3.349.067.7-1.939.96-3.06c.385-1.7-1.241-2.01-4.254-2.01-4.414,0-16.294-.773-18.461.231-1.914.888-1.793,3.466.612,4.4" fill="#55ade7"/>
    <path id="Caminho_374" data-name="Caminho 374" d="M36.795,21.56c0,.247-.823.446-1.838.446s-1.838-.2-1.838-.446.823-.447,1.838-.447,1.838.2,1.838.447" fill="#2e2c3c"/>
    <path id="Caminho_375" data-name="Caminho 375" d="M375.38,8.559l2.75,2.949v362.31l-2.922-1.6Z" fill="#df7531"/>
    <line id="Linha_3" data-name="Linha 3" x2="288.167" transform="translate(62.826 56.41)" fill="none" stroke="#d75e27" stroke-linecap="round" stroke-miterlimit="10" stroke-width="1"/>
    <line id="Linha_4" data-name="Linha 4" x2="288.167" transform="translate(62.826 90.91)" fill="none" stroke="#d75e27" stroke-linecap="round" stroke-miterlimit="10" stroke-width="1"/>
    <line id="Linha_5" data-name="Linha 5" x2="288.167" transform="translate(62.826 125.41)" fill="none" stroke="#d75e27" stroke-linecap="round" stroke-miterlimit="10" stroke-width="1"/>
    <line id="Linha_6" data-name="Linha 6" x2="288.167" transform="translate(62.826 159.91)" fill="none" stroke="#d75e27" stroke-linecap="round" stroke-miterlimit="10" stroke-width="1"/>
  </g>
</svg>
