<svg xmlns="http://www.w3.org/2000/svg" xmlns:xlink="http://www.w3.org/1999/xlink" width="21.264" height="20.661" viewBox="0 0 21.264 20.661">
  <defs>
    <clipPath id="clip-path">
      <path id="Caminho_256" data-name="Caminho 256" d="M0,0H21.264V-20.661H0Z" fill="none"/>
    </clipPath>
  </defs>
  <g id="ico_ti3_por" transform="translate(0 20.661)">
    <g id="Grupo_355" data-name="Grupo 355" clip-path="url(#clip-path)">
      <g id="Grupo_353" data-name="Grupo 353" transform="translate(0 -13.786)">
        <path id="Caminho_254" data-name="Caminho 254" d="M0,0A4.4,4.4,0,0,1,.306-1.606a3.815,3.815,0,0,1,.976-1.446A7.182,7.182,0,0,1,4.036-4.409,17.261,17.261,0,0,0,6.95-5.524a16.518,16.518,0,0,1,1.778-.87,6.762,6.762,0,0,1,4.644-.131,6.937,6.937,0,0,1,3.089,2.15A7.16,7.16,0,0,1,18.082-.463c.012.154.016.309.015.463s0,.309-.015.463a7.15,7.15,0,0,1-4.468,5.962,6.827,6.827,0,0,1-2.167.467c-2,.1-3.491-.839-5.176-1.7a8.44,8.44,0,0,0-1.443-.6A11.4,11.4,0,0,1,2,3.585a4.22,4.22,0,0,1-1.737-2.1A4.248,4.248,0,0,1,0,0" fill="#ffc734"/>
      </g>
      <g id="Grupo_354" data-name="Grupo 354" transform="translate(21.264 -6.875)">
        <path id="Caminho_255" data-name="Caminho 255" d="M0,0A4.4,4.4,0,0,1-.306,1.606a3.815,3.815,0,0,1-.976,1.446A7.182,7.182,0,0,1-4.036,4.409,17.261,17.261,0,0,0-6.95,5.524a16.518,16.518,0,0,1-1.778.87,6.762,6.762,0,0,1-4.644.131,6.937,6.937,0,0,1-3.089-2.15A7.16,7.16,0,0,1-18.082.463C-18.094.309-18.1.154-18.1,0s0-.309.015-.463a7.15,7.15,0,0,1,4.468-5.962,6.827,6.827,0,0,1,2.167-.467c2-.1,3.491.839,5.176,1.7a8.44,8.44,0,0,0,1.443.6A11.4,11.4,0,0,1-2-3.585a4.22,4.22,0,0,1,1.737,2.1A4.248,4.248,0,0,1,0,0" fill="#6ac359"/>
      </g>
    </g>
  </g>
</svg>
