<svg xmlns="http://www.w3.org/2000/svg" xmlns:xlink="http://www.w3.org/1999/xlink" width="14.534" height="11.21" viewBox="0 0 14.534 11.21">
  <defs>
    <clipPath id="clip-path">
      <path id="Caminho_119" data-name="Caminho 119" d="M0,0H14.534V-11.21H0Z" fill="none"/>
    </clipPath>
  </defs>
  <g id="lacuna" transform="translate(0 11.21)">
    <g id="Grupo_175" data-name="Grupo 175" clip-path="url(#clip-path)">
      <g id="Grupo_174" data-name="Grupo 174" transform="translate(14.533 -5.3)">
        <path id="Caminho_118" data-name="Caminho 118" d="M0,0A3.582,3.582,0,0,1-.254,1.3,3,3,0,0,1-1.046,2.45,5.582,5.582,0,0,1-3.264,3.481a13.457,13.457,0,0,0-2.347.831,12.9,12.9,0,0,1-1.432.661,5.37,5.37,0,0,1-3.731-.015,5.8,5.8,0,0,1-2.469-1.831A6.028,6.028,0,0,1-14.523-.1c-.009-.125-.012-.251-.01-.377s0-.251.015-.376A5.612,5.612,0,0,1-10.9-5.586,5.334,5.334,0,0,1-9.156-5.91c1.607-.027,2.8.775,4.147,1.518a6.91,6.91,0,0,0,1.156.524,9.374,9.374,0,0,1,2.263.9A3.554,3.554,0,0,1-.207-1.217,3.531,3.531,0,0,1,0,0" fill="#ff9a39"/>
      </g>
    </g>
  </g>
</svg>
