<svg xmlns="http://www.w3.org/2000/svg" xmlns:xlink="http://www.w3.org/1999/xlink" width="250.467" height="58.698" viewBox="0 0 250.467 58.698">
  <defs>
    <clipPath id="clip-path">
      <path id="Caminho_418" data-name="Caminho 418" d="M0,0H250.467V-58.7H0Z" fill="none"/>
    </clipPath>
  </defs>
  <g id="maos" transform="translate(0 58.698)">
    <g id="Grupo_532" data-name="Grupo 532" clip-path="url(#clip-path)">
      <g id="Grupo_524" data-name="Grupo 524" transform="translate(3.722 -28.837)">
        <path id="Caminho_410" data-name="Caminho 410" d="M0,0A12.21,12.21,0,0,1,3.119-7.487c2.995-3,5.323-2.149,7.32-6.143s4.035-13.323,7.28-12.7,3.993,5.99,3.619,8.485-1,6.988-3.494,10.482c0,0,12.977-.25,15.847.124S39.825-5.891,39.4-3.084c-.386,2.54-5.828,5.1-5.828,5.1s3.855,1.36,3.615,4.6C37,9.134,33.23,10.522,33.23,10.522s2.973,1.636,1.928,4.648c-.682,1.963-5.6,3.173-5.6,3.173S32.9,22.154,26.541,23.9s-18.43,1.928-21.8-.068S-1.123,18.718,0,0" fill="#fff"/>
      </g>
      <g id="Grupo_525" data-name="Grupo 525" transform="translate(44.105 -30.79)">
        <path id="Caminho_411" data-name="Caminho 411" d="M0,0C.32-1.8.18-4.076-1.178-5.369a3.523,3.523,0,0,0-1.1-1.283C-3.625-7.605-5.442-7.6-7.019-7.711q-5.9-.411-11.808-.342c.6-2.635,1.209-5.27,1.726-7.92a12.822,12.822,0,0,0,.235-4.539,9.257,9.257,0,0,0-1.983-4.038,3.937,3.937,0,0,0-3.1-1.794,5.556,5.556,0,0,0-3.6,1.586c-2.151,1.935-3.275,4.761-4.27,7.4-1.048,2.781-2.1,5.829-4.327,7.88a.848.848,0,0,0-.378.064A16.057,16.057,0,0,0-43.842,2.123a20.5,20.5,0,0,0,.1,7.041,32.8,32.8,0,0,0,.574,9.927,12.8,12.8,0,0,0,1.931,4.79,9.564,9.564,0,0,0,3.592,2.99c.166.08.334.15.5.22A11.1,11.1,0,0,0-31.317,29.2a10.7,10.7,0,0,0,2.54-.138c2.03.078,4.1-.086,6.053-.2,2.522-.143,5.18-.107,7.591-.951a26.084,26.084,0,0,0,3.169-1.449A5.9,5.9,0,0,0-9.91,25.7a4.069,4.069,0,0,0,.849-.727c.17-.106.342-.209.5-.327a2.571,2.571,0,0,0,1.168-2.568,2.578,2.578,0,0,0-.354-.885c0-.011,0-.022,0-.033a10.713,10.713,0,0,0,1.475-.38A4.3,4.3,0,0,0-3.72,18.787,6.713,6.713,0,0,0-2.579,15.43a3.437,3.437,0,0,0-.539-1.555c-.255-.435-.524-.862-.789-1.29C-2.294,11.806-.9,10.657-.683,8.714a6.144,6.144,0,0,0-.979-3.736,4.55,4.55,0,0,0-.877-1.046,4.075,4.075,0,0,0,1.075-.786A6.009,6.009,0,0,0,0,0M-3.231,6.432a5.283,5.283,0,0,0-1.5-1.747,1.728,1.728,0,0,1,1.3.6,3.468,3.468,0,0,1,.16.541,2.84,2.84,0,0,1,.044.61M-6.984,3.608a.4.4,0,0,0-.229.382.4.4,0,0,0,.266.357c.035.013,3.564,1.3,3.349,4.19-.165,2.231-3.659,3.549-3.7,3.562a.4.4,0,0,0-.259.345.4.4,0,0,0,.2.38c.11.061,2.664,1.518,1.744,4.168-.5,1.44-4.005,2.593-5.313,2.915a.4.4,0,0,0-.286.269.4.4,0,0,0,.081.383l.073.093a2.651,2.651,0,0,1,.624,2.418,2.346,2.346,0,0,1-.654,1,17.693,17.693,0,0,1-1.525.939,10.912,10.912,0,0,1-1.345.458C-20,27.13-32.14,27.4-35.438,25.442-38.561,23.591-40.9,20.791-40.1,4.2q.132-1.738.265-3.477a11.206,11.206,0,0,1,2.857-5.975A11.909,11.909,0,0,1-33.7-7.527,7.963,7.963,0,0,0-29.586-11.5a45.705,45.705,0,0,0,1.747-4.361c1.19-3.26,2.631-7.2,4.279-7.993a7.851,7.851,0,0,1,4.1,5.015,10.718,10.718,0,0,1,.022,2.886l-.026.182A27.023,27.023,0,0,1-21.8-7.427,6.236,6.236,0,0,0-22.827-5.7c-.014.019-.024.04-.038.06a.4.4,0,0,0-.029.418c.01.02.029.029.041.047.019.063,13.793-.014,16.109.288,2.563.335,4.234,1,4.968,1.974a2.1,2.1,0,0,1,.3.581,5.774,5.774,0,0,1,.041.846c-.008.224-.028.455-.054.686-.693,1.809-4.133,3.769-5.5,4.41M-20.9-5.973a.879.879,0,0,0,.03.135l-.1,0c.027-.044.046-.093.075-.137m.224-1.96c.128-.29.252-.579.364-.871l-.21.951a1.185,1.185,0,0,0-.154-.08M-3.618-6.438a2.967,2.967,0,0,1,.373.164,8.1,8.1,0,0,1-.813-.074A4.785,4.785,0,0,1-5.281-6.8a8.436,8.436,0,0,1,1.663.365m-3.933.677c-.462-.03-1.009-.054-1.625-.073.185,0,.37-.019.554-.019a7.035,7.035,0,0,1,1.071.092M-13.342-7.21q-2.878.174-5.757.355l.09-.4q2.833-.035,5.667.042m-8.242-17.5a3.236,3.236,0,0,1,1.773,1.544,8.9,8.9,0,0,1,.794,1.365A9.156,9.156,0,0,0-21.9-24.746a1.87,1.87,0,0,1,.316.039m-7.5,9.923c-.415,1.113-.817,2.133-1.214,2.928a7.685,7.685,0,0,1-1.4,2.027,20.863,20.863,0,0,0,2.615-4.955M-39.938-2.817a.838.838,0,0,0,.008-.11,14.439,14.439,0,0,1,1.34-1.648,11.727,11.727,0,0,0-1.583,3.247.475.475,0,0,0-.133.04c.114-.511.225-1.022.368-1.529M-42.3,19.294a30.238,30.238,0,0,1-.742-5.282c-.013-.241-.014-.482-.022-.723a63.518,63.518,0,0,0,1.492,7.768,12.559,12.559,0,0,0,.758,1.986A12.278,12.278,0,0,1-42.3,19.294m1.737-1.04c-.19-1.029-.391-2.065-.59-3.1a.694.694,0,0,0,.2-.552A63.6,63.6,0,0,1-40.6.177l-.027.348a10.942,10.942,0,0,0-.16,1.41c-.048.789-.086,1.541-.121,2.277l-.168,2.2A.339.339,0,0,0-41,6.654c-.327,10.71.844,15.123,2.717,17.456a12.924,12.924,0,0,1-2.279-5.856m5.831,8.369.115.039-.112-.012c0-.009,0-.018,0-.027m5.764,1.625c-.057,0-.114,0-.171,0a17.024,17.024,0,0,1-2.2-.26.463.463,0,0,0,0-.219c.954.073,1.909.133,2.867.148.316.006.632,0,.947,0-.479.124-.959.243-1.445.336m12.731-.832a21.244,21.244,0,0,1-4.22.55,32.11,32.11,0,0,0,3.621-.805c.072-.017.144-.027.216-.043a15.138,15.138,0,0,0,1.54-.261q.349-.044.7-.079a13.831,13.831,0,0,1-1.859.638m6.67-3.077c-.151.085-.3.166-.444.239-.7.361-1.4.744-2.115,1.118l-.031.005c.04-.023.077-.05.118-.073a5.911,5.911,0,0,0,1.328-.824c.465-.317.916-.65,1.354-.991.055-.043.108-.089.163-.133a2.279,2.279,0,0,1-.373.659m-.025-1.348a3.088,3.088,0,0,0-.115-1.475,1.6,1.6,0,0,1,.6,1,4.452,4.452,0,0,1-.49.47m1.4-3.066c-.016-.019-.037-.034-.053-.052a12.805,12.805,0,0,0,1.379-.654c-.265.168-.532.327-.8.466-.172.089-.348.167-.527.24m3.786-1.542A3.314,3.314,0,0,1-5.3,19.452a5.042,5.042,0,0,1-1.486.653l-.018.005a17.133,17.133,0,0,0,1.5-1.078,8.131,8.131,0,0,0,1.046-.92c-.052.092-.1.184-.153.271m-.582-.649c-.109.109-.231.213-.348.318a2.448,2.448,0,0,0,.493-.8,3.9,3.9,0,0,0-.766-3.979l.177-.061a2.943,2.943,0,0,1,.444,4.52M-2.482,6.979a3.351,3.351,0,0,1,.173,1.829,2.848,2.848,0,0,1-.883,1.457A15.022,15.022,0,0,0-2.6,7.779c.044-.267.084-.533.116-.8M-3.946,2.786a14.133,14.133,0,0,0,1.79-1.4c-.042.072-.071.152-.117.221A3.07,3.07,0,0,1-3.946,2.786" fill="#2b2e34"/>
      </g>
      <g id="Grupo_526" data-name="Grupo 526" transform="translate(246.745 -29.861)">
        <path id="Caminho_412" data-name="Caminho 412" d="M0,0A12.21,12.21,0,0,1-3.119,7.487c-2.995,3-5.323,2.149-7.32,6.143s-4.035,13.323-7.28,12.7-3.993-5.99-3.619-8.485,1-6.988,3.494-10.482c0,0-12.977.25-15.847-.124S-39.825,5.891-39.4,3.084c.386-2.54,5.828-5.1,5.828-5.1s-3.855-1.36-3.615-4.6c.187-2.52,3.955-3.908,3.955-3.908s-2.973-1.636-1.928-4.648c.682-1.963,5.6-3.173,5.6-3.173S-32.9-22.154-26.541-23.9s18.43-1.928,21.8.068S1.123-18.718,0,0" fill="#fff"/>
      </g>
      <g id="Grupo_527" data-name="Grupo 527" transform="translate(206.361 -27.908)">
        <path id="Caminho_413" data-name="Caminho 413" d="M0,0C-.32,1.8-.18,4.076,1.178,5.369a3.523,3.523,0,0,0,1.1,1.283c1.347.953,3.164.949,4.741,1.059q5.9.411,11.808.342c-.6,2.635-1.209,5.27-1.726,7.92a12.822,12.822,0,0,0-.235,4.539,9.257,9.257,0,0,0,1.983,4.038,3.937,3.937,0,0,0,3.1,1.794,5.556,5.556,0,0,0,3.6-1.586c2.151-1.935,3.275-4.761,4.27-7.4,1.048-2.781,2.1-5.829,4.327-7.88a.848.848,0,0,0,.378-.064A16.057,16.057,0,0,0,43.842-2.123a20.5,20.5,0,0,0-.1-7.041,32.8,32.8,0,0,0-.574-9.927,12.8,12.8,0,0,0-1.931-4.79,9.564,9.564,0,0,0-3.592-2.99c-.166-.08-.334-.15-.5-.22A11.1,11.1,0,0,0,31.317-29.2a10.7,10.7,0,0,0-2.54.138c-2.03-.078-4.1.086-6.053.2-2.522.143-5.18.107-7.591.951a26.084,26.084,0,0,0-3.169,1.449A5.9,5.9,0,0,0,9.91-25.7a4.069,4.069,0,0,0-.849.727c-.17.106-.342.209-.5.327a2.571,2.571,0,0,0-1.168,2.568,2.578,2.578,0,0,0,.354.885c0,.011,0,.022,0,.033a10.713,10.713,0,0,0-1.475.38A4.3,4.3,0,0,0,3.72-18.787,6.713,6.713,0,0,0,2.579-15.43a3.437,3.437,0,0,0,.539,1.555c.255.435.524.862.789,1.29C2.294-11.806.9-10.657.683-8.714a6.144,6.144,0,0,0,.979,3.736,4.55,4.55,0,0,0,.877,1.046,4.075,4.075,0,0,0-1.075.786A6.009,6.009,0,0,0,0,0M3.231-6.432a5.283,5.283,0,0,0,1.5,1.747,1.728,1.728,0,0,1-1.3-.6,3.468,3.468,0,0,1-.16-.541,2.84,2.84,0,0,1-.044-.61M6.984-3.608a.4.4,0,0,0,.229-.382.4.4,0,0,0-.266-.357c-.035-.013-3.564-1.3-3.349-4.19.165-2.231,3.659-3.549,3.7-3.562a.4.4,0,0,0,.259-.345.4.4,0,0,0-.2-.38c-.11-.061-2.664-1.518-1.744-4.168.5-1.44,4.005-2.593,5.313-2.915a.4.4,0,0,0,.286-.269.4.4,0,0,0-.081-.383l-.073-.093a2.651,2.651,0,0,1-.624-2.418,2.346,2.346,0,0,1,.654-1,17.693,17.693,0,0,1,1.525-.939,10.912,10.912,0,0,1,1.345-.458C20-27.13,32.14-27.4,35.438-25.442,38.561-23.591,40.9-20.791,40.1-4.2q-.132,1.738-.265,3.477a11.206,11.206,0,0,1-2.857,5.975A11.909,11.909,0,0,1,33.7,7.527,7.963,7.963,0,0,0,29.586,11.5a45.705,45.705,0,0,0-1.747,4.361c-1.19,3.26-2.631,7.2-4.279,7.993a7.851,7.851,0,0,1-4.1-5.015,10.718,10.718,0,0,1-.022-2.886l.026-.182A27.023,27.023,0,0,1,21.8,7.427,6.236,6.236,0,0,0,22.827,5.7c.014-.019.024-.04.038-.06a.4.4,0,0,0,.029-.418c-.01-.02-.029-.029-.041-.047-.019-.063-13.793.014-16.109-.288-2.563-.335-4.234-1-4.968-1.974a2.1,2.1,0,0,1-.3-.581,5.774,5.774,0,0,1-.041-.846c.008-.224.028-.455.054-.686.693-1.809,4.133-3.769,5.5-4.41M20.9,5.973a.879.879,0,0,0-.03-.135l.1,0c-.027.044-.046.093-.075.137m-.224,1.96c-.128.29-.252.579-.364.871l.21-.951a1.185,1.185,0,0,0,.154.08M3.618,6.438a2.967,2.967,0,0,1-.373-.164,8.1,8.1,0,0,1,.813.074A4.785,4.785,0,0,1,5.281,6.8a8.436,8.436,0,0,1-1.663-.365m3.933-.677c.462.03,1.009.054,1.625.073-.185,0-.37.019-.554.019a7.035,7.035,0,0,1-1.071-.092M13.342,7.21q2.878-.174,5.757-.355l-.09.4q-2.833.035-5.667-.042m8.242,17.5a3.236,3.236,0,0,1-1.773-1.544,8.9,8.9,0,0,1-.794-1.365A9.156,9.156,0,0,0,21.9,24.746a1.87,1.87,0,0,1-.316-.039m7.5-9.923c.415-1.113.817-2.133,1.214-2.928a7.685,7.685,0,0,1,1.4-2.027,20.863,20.863,0,0,0-2.615,4.955M39.938,2.817a.838.838,0,0,0-.008.11,14.439,14.439,0,0,1-1.34,1.648,11.727,11.727,0,0,0,1.583-3.247.475.475,0,0,0,.133-.04c-.114.511-.225,1.022-.368,1.529M42.3-19.294a30.238,30.238,0,0,1,.742,5.282c.013.241.014.482.022.723a63.518,63.518,0,0,0-1.492-7.768,12.559,12.559,0,0,0-.758-1.986A12.278,12.278,0,0,1,42.3-19.294m-1.737,1.04c.19,1.029.391,2.065.59,3.1a.694.694,0,0,0-.2.552A63.6,63.6,0,0,1,40.6-.177l.027-.348a10.942,10.942,0,0,0,.16-1.41c.048-.789.086-1.541.121-2.277l.168-2.2A.339.339,0,0,0,41-6.654c.327-10.71-.844-15.123-2.717-17.456a12.924,12.924,0,0,1,2.279,5.856m-5.831-8.369-.115-.039.112.012c0,.009,0,.018,0,.027m-5.764-1.625c.057,0,.114,0,.171,0a17.024,17.024,0,0,1,2.2.26.463.463,0,0,0,0,.219c-.954-.073-1.909-.133-2.867-.148-.316-.006-.632,0-.947,0,.479-.124.959-.243,1.445-.336m-12.731.832a21.244,21.244,0,0,1,4.22-.55,32.11,32.11,0,0,0-3.621.805c-.072.017-.144.027-.216.043a15.138,15.138,0,0,0-1.54.261q-.349.044-.7.079a13.831,13.831,0,0,1,1.859-.638m-6.67,3.077c.151-.085.3-.166.444-.239.7-.361,1.4-.744,2.115-1.118l.031-.005c-.04.023-.077.05-.118.073a5.911,5.911,0,0,0-1.328.824c-.465.317-.916.65-1.354.991-.055.043-.108.089-.163.133a2.279,2.279,0,0,1,.373-.659m.025,1.348a3.088,3.088,0,0,0,.115,1.475,1.6,1.6,0,0,1-.6-1,4.452,4.452,0,0,1,.49-.47M8.2-19.925c.016.019.037.034.053.052a12.805,12.805,0,0,0-1.379.654c.265-.168.532-.327.8-.466.172-.089.348-.167.527-.24M4.411-18.383A3.314,3.314,0,0,1,5.3-19.452,5.042,5.042,0,0,1,6.789-20.1l.018-.005a17.133,17.133,0,0,0-1.5,1.078,8.131,8.131,0,0,0-1.046.92c.052-.092.1-.184.153-.271m.582.649c.109-.109.231-.213.348-.318a2.448,2.448,0,0,0-.493.8,3.9,3.9,0,0,0,.766,3.979l-.177.061a2.943,2.943,0,0,1-.444-4.52M2.482-6.979a3.351,3.351,0,0,1-.173-1.829,2.848,2.848,0,0,1,.883-1.457A15.022,15.022,0,0,0,2.6-7.779c-.044.267-.084.533-.116.8M3.946-2.786a14.133,14.133,0,0,0-1.79,1.4c.042-.072.071-.152.117-.221A3.07,3.07,0,0,1,3.946-2.786" fill="#2b2e34"/>
      </g>
      <g id="Grupo_528" data-name="Grupo 528" transform="translate(99.162 -38.323)">
        <path id="Caminho_414" data-name="Caminho 414" d="M0,0C-1.354.85-1.872,3.993,0,6.614s4.742,5.365,5.74,9.732A25.443,25.443,0,0,0,9.109,24.77c2.87,4.866,4.555,3.368,6.364,4.866,1.922,1.591,1.185,2.87,4.492,4.492s11.1-.811,16.159-5.678,13.851-11.542,16.16-14.412c0,0,2.495-2.308,1-4.18s-4.492.811-4.492.811-4.929,4.367-6.3,5.241c-1.224.779-2.308.873-1.934-.562s5.054-4.991,5.054-4.991l7.3-6.739s1.666-1.79.312-3.244A2.4,2.4,0,0,0,49.726.312l-12.479,9.8s-1.061.936-1.559.125.748-1.747.748-1.747l12.1-12.1s2.122-2.184.686-3.869-4.242.811-4.242.811L31.445,5.054s-.923,1.064-1.622.249c-.374-.437.873-2,.873-2L41.427-8.235a2.684,2.684,0,0,0,.187-3.557c-1.212-1.465-4.554,1.061-4.554,1.061L15.722,7.612a7.176,7.176,0,0,1-2.245,1c-1.435.312-3.058-1.622-3.058-1.622L4.866.749S2.683-1.685,0,0" fill="#fff"/>
      </g>
      <g id="Grupo_529" data-name="Grupo 529" transform="translate(152.127 -14.494)">
        <path id="Caminho_415" data-name="Caminho 415" d="M0,0C-.008.02-.019.037-.027.057A2.913,2.913,0,0,0-.2-.648.405.405,0,0,0-.871-.825C-3.479,1.718-5.756,4.586-8.464,7.027A25.867,25.867,0,0,1-10.781,8.89a23.347,23.347,0,0,1-2.637,1.237,23.426,23.426,0,0,1-4.295,1.2c-.413.075-.346.66,0,.772a4.545,4.545,0,0,0,2.729-.1c-.606.339-1.211.678-1.81,1.022a.4.4,0,0,0,0,.69,1.835,1.835,0,0,0,.768.19c-.136.282.07.7.442.568A29.163,29.163,0,0,0-7.189,10.41c1.182-.912,2.3-1.913,3.4-2.931A21.084,21.084,0,0,0-1,4.395,9.506,9.506,0,0,0,.771.213.4.4,0,0,0,0,0M-2.9,3.722c-.366.314-.738.622-1.106.934.164-.178.341-.344.5-.527A24.025,24.025,0,0,0-.805.362C-.75,1.718-1.9,2.867-2.9,3.722m-11.32,8.761c-.163.1-.336.2-.517.291l.517-.291m8.483-4.33a23.417,23.417,0,0,1-4.714,3.386c-.755.389-1.534.725-2.321,1.04,1.313-.739,2.6-1.532,3.835-2.385A41.461,41.461,0,0,0-1.982,4.378,28.138,28.138,0,0,1-5.736,8.153" fill="#2b2e34"/>
      </g>
      <g id="Grupo_530" data-name="Grupo 530" transform="translate(108.211 -44.204)">
        <path id="Caminho_416" data-name="Caminho 416" d="M0,0C.008-.02.019-.037.027-.057A2.913,2.913,0,0,0,.2.648.406.406,0,0,0,.872.825C3.479-1.718,5.756-4.586,8.464-7.027A25.867,25.867,0,0,1,10.781-8.89a23.347,23.347,0,0,1,2.637-1.237,23.426,23.426,0,0,1,4.295-1.2c.413-.075.346-.66,0-.772a4.542,4.542,0,0,0-2.728.1c.605-.339,1.21-.678,1.809-1.022a.4.4,0,0,0,0-.69,1.835,1.835,0,0,0-.768-.19c.136-.282-.07-.7-.442-.568A29.163,29.163,0,0,0,7.189-10.41c-1.181.912-2.3,1.913-3.4,2.931A21.021,21.021,0,0,0,1-4.395,9.5,9.5,0,0,0-.771-.213.4.4,0,0,0,0,0M2.9-3.722c.366-.314.738-.622,1.107-.934-.165.178-.342.344-.5.527A24,24,0,0,0,.806-.362C.75-1.718,1.9-2.867,2.9-3.722m11.32-8.761c.164-.1.336-.2.517-.291l-.517.291M5.736-8.153a23.417,23.417,0,0,1,4.714-3.386c.755-.389,1.534-.725,2.321-1.04Q10.8-11.47,8.936-10.193A41.407,41.407,0,0,0,1.982-4.378,28.138,28.138,0,0,1,5.736-8.153" fill="#2b2e34"/>
      </g>
      <g id="Grupo_531" data-name="Grupo 531" transform="translate(153.932 -28.301)">
        <path id="Caminho_417" data-name="Caminho 417" d="M0,0C-.178-1.794-2.08-1.961-3.533-1.673A5.094,5.094,0,0,0-5.8-.461c-.761.63-1.513,1.27-2.269,1.905L-12.649,5.29c.2-1.145,1.424-2.011,2.227-2.742,1.1-1.007,2.246-1.963,3.413-2.9A43.759,43.759,0,0,0-.618-6.576,2.825,2.825,0,0,0-.263-9.963a2.566,2.566,0,0,0-1.18-1.3,4.115,4.115,0,0,0-1.866.027A10.3,10.3,0,0,0-7.178-9.414c-1.28.8-2.626,1.55-3.822,2.475a27.689,27.689,0,0,0-3.04,2.971c-.474.5-.958.991-1.48,1.441-.21.181-1.209,1.1-1.687,1.108a8.893,8.893,0,0,1,1.834-2.018A12.345,12.345,0,0,0-13.52-5.226a24.929,24.929,0,0,1,1.606-1.933c2.1-2.155,4.81-3.648,6.77-5.955a21.613,21.613,0,0,0,1.858-3.079,2.529,2.529,0,0,0-.22-1.972,2.681,2.681,0,0,0-1.261-1.472,3.149,3.149,0,0,0-.962-.184,5.8,5.8,0,0,0-1.07,0,4.713,4.713,0,0,0-1.86,1.01,15.281,15.281,0,0,0-2.4,1.781c-1.473,1.2-2.958,2.388-4.415,3.609s-2.8,2.586-4.144,3.954c-.663.678-1.333,1.35-2.035,1.986-.34.308-.687.607-1.044.893-.159.127-.322.247-.485.367A16.3,16.3,0,0,1-21.97-7.677c.573-.7,1.152-1.391,1.742-2.074A48.469,48.469,0,0,1-16.459-13.7a45.226,45.226,0,0,0,3.544-3.4,9.016,9.016,0,0,0,1.487-2.137,3.39,3.39,0,0,0,.671-1.423A2.3,2.3,0,0,0-12.018-23.3a5.887,5.887,0,0,0-3.328-.155,7.25,7.25,0,0,0-1.76.735l-1.881.946c-.145.073-2.751,1.621-4,2.324a26.461,26.461,0,0,0-5.193,4.288c-1.681,1.617-3.339,3.257-4.932,4.962A29.9,29.9,0,0,1-37.555-6c-1.532,1.082-3.532,2.771-6.528,1.051-.031-.018-.062-.034-.092-.052-.178-.11-.335-.244-.5-.367a21.061,21.061,0,0,0-1.142-2.08,13.263,13.263,0,0,0-3.393-3.339,6.892,6.892,0,0,0-1.483-.757c-.03-.016-.058-.036-.089-.051a.408.408,0,0,0-.195-.042,4.637,4.637,0,0,0-2.241-.144,3.938,3.938,0,0,0-1.662.741,5.4,5.4,0,0,0-2.609,5.3,6.084,6.084,0,0,0,.642,1.946,9.628,9.628,0,0,0,1.043,2.785c1.252,2.267,3.05,4.2,4.478,6.353.522.789,1.01,1.6,1.452,2.432l.024.093A35.009,35.009,0,0,0-47.8,13.757a7.418,7.418,0,0,0,.981,2.475,8.964,8.964,0,0,0,2.376,2.308c.262.184.531.358.8.526a8.737,8.737,0,0,0,2.555,1.8,9.345,9.345,0,0,0,1.249.437,23.316,23.316,0,0,1,2.711,2,.409.409,0,0,0,.121.068,12.769,12.769,0,0,0,1.159.98,7.173,7.173,0,0,0,2.884,1.64.335.335,0,0,0,.32.162c.069,0,.137-.016.206-.02l.008,0a9.863,9.863,0,0,0,5.8-.585,16.921,16.921,0,0,0,4.17-2.378,58.923,58.923,0,0,0,8.519-6.51c1.59-1.523,3.261-2.919,4.936-4.345A61.731,61.731,0,0,0-4.129,7.437c.892-.95,1.79-1.894,2.676-2.85A4.923,4.923,0,0,0,.061,1.865C.075,1.747.05.509,0,0M-12.031-19.868c-.029.085-.074.166-.109.25-.033.041-.065.083-.1.123a2.743,2.743,0,0,0-.19-1.936.415.415,0,0,0-.02-.246c-.028-.066-.065-.119-.1-.179a1.855,1.855,0,0,1,.515,1.988M-1.8-10.536c.567.136,1,1.154,1.123,1.669,0,0,0,.009,0,.014A2.3,2.3,0,0,0-1.258-9.92a3.2,3.2,0,0,0-.827-.646,1.228,1.228,0,0,1,.283.03m-10.8,6.2A16.474,16.474,0,0,1-9.63-6.93c.678-.443,1.366-.873,2.055-1.3l-5.2,4.078.172-.184M-5.68-18.29A2.266,2.266,0,0,1-4.364-16.6a3.4,3.4,0,0,1-.886,2.342c-.01.013-.021.024-.031.038a2.926,2.926,0,0,0,.043-3.547,1.985,1.985,0,0,0-1.421-.719,3.123,3.123,0,0,0-1.16.176,2.64,2.64,0,0,1,2.139.021m-9.157,5.378c.423-.354.855-.7,1.282-1.048l-3.268,2.832c.643-.614,1.3-1.212,1.986-1.784m-7.756-4.17-3.7,3.178A14.024,14.024,0,0,1-23.8-16.3c.4-.265.809-.521,1.211-.784m-6.537,3.959c.892-.875,1.794-1.739,2.7-2.6A20.633,20.633,0,0,1-23.661-18.1c.069-.046.142-.087.211-.131-.272.243-.543.489-.81.736-2.045,1.891-4.038,3.84-6.006,5.812-.051.052-.1.105-.152.156-.374.274-.742.554-1.1.844.785-.822,1.576-1.641,2.389-2.438M-41.4-3.237a6.321,6.321,0,0,0,2.9-.554,6.332,6.332,0,0,1-1.13.513,4.258,4.258,0,0,1-3.579-.289.414.414,0,0,0-.1-.112,6.514,6.514,0,0,0,1.9.442m1.556.839a6.03,6.03,0,0,1-1.531.6c-.784.177-1.758-.574-2.33-1.134a4.96,4.96,0,0,0,3.861.539m-12.524-8.665a3.966,3.966,0,0,1,1.3.231,8.469,8.469,0,0,1,2.63,2.6L-49.6-9.54a4.811,4.811,0,0,0-3.324-1.471,3.408,3.408,0,0,1,.558-.052M-56.1-4.078a6.855,6.855,0,0,1-.086-1.442A7.012,7.012,0,0,0-55.1-3.176c.421.589.883,1.174,1.373,1.793.435.55.884,1.122,1.325,1.722-1.277-1.442-2.783-2.7-3.7-4.417m1.857,4.069c-.3-.441-.585-.9-.846-1.368.611.671,1.258,1.313,1.85,1.961A11.474,11.474,0,0,1-50.978,4.14c.092.232.173.468.254.7-1.125-1.651-2.381-3.2-3.514-4.852M-39.62,20.534c-.452-.281-.91-.554-1.37-.825a5.093,5.093,0,0,1,2.122.9c.067.082.135.163.194.244a8.632,8.632,0,0,0-.946-.322m-7.021-6.207c-.141-.27-.271-.547-.4-.823-.021-.089-.047-.173-.067-.263-.032-.149-.066-.3-.1-.445.237.465.475.9.713,1.312a.447.447,0,0,0-.144.219m14.708,10.956a7.454,7.454,0,0,1-1.128-.319c.268.026.544.041.831.041a17.251,17.251,0,0,0,6.243-1.418,17.367,17.367,0,0,1-5.946,1.7m18.126-10.43a15.819,15.819,0,0,1-1.56,1.122c.988-.868,2.025-1.758,3.078-2.651a18.252,18.252,0,0,1-1.518,1.529m4.51-3.341c-.4.341-.792.677-1.19,1.012.083-.091.164-.184.248-.274A18.853,18.853,0,0,1-7.984,10.3c-.427.415-.862.82-1.313,1.21m6.5-7.747c-1.253,1.558-4.531,4.324-8,7.252-2.878,2.429-5.855,4.94-8.123,7.123C-24,23.025-31.663,25.2-34.629,23.747a8.636,8.636,0,0,1-1.4-.842c-.167-.229-.326-.464-.477-.712A7.722,7.722,0,0,0-38.3,20.045a5.738,5.738,0,0,0-.741-.739,4.878,4.878,0,0,0-1.938-.915c-1.226-.354-2.493-.72-4.336-3.846a25.094,25.094,0,0,1-3.324-8.31c-.8-3.487-2.74-5.945-4.455-8.114-.483-.611-.94-1.189-1.349-1.762A5.786,5.786,0,0,1-55.5-8.013a2.513,2.513,0,0,1,.942-1.67h0a3.229,3.229,0,0,1,1.738-.532A3.872,3.872,0,0,1-50.2-9.007l5.545,6.23c.073.087,1.8,2.111,3.449,1.756a7.512,7.512,0,0,0,2.422-1.085l21.317-18.328c.789-.595,3.216-2.077,4.005-1.125a2.279,2.279,0,0,1-.171,3.03L-24.386-6.965c-.543.679-1.377,1.907-.864,2.507a1.178,1.178,0,0,0,.908.447h0a1.931,1.931,0,0,0,1.276-.655L-9.52-16.4c.016-.013,1.579-1.361,2.807-1.29a1.192,1.192,0,0,1,.865.439c1.181,1.386-.593,3.253-.664,3.327L-18.574-1.857c-.571.429-1.393,1.391-.849,2.276a1.037,1.037,0,0,0,.74.51A2.05,2.05,0,0,0-17.276.4L-4.767-9.421a2.493,2.493,0,0,1,1.575-.647,1.924,1.924,0,0,1,1.348.693C-.762-8.214-2.1-6.737-2.134-6.7L-9.4.017c-.49.372-4.8,3.683-5.2,5.208-.18.69-.085,1.176.283,1.444.631.461,1.682-.081,2.252-.444,1.384-.88,6.15-5.1,6.353-5.28C-5.7.931-4.043-.522-2.734-.422A1.278,1.278,0,0,1-1.8.086c1.246,1.557-.935,3.616-1,3.679M-13.365,5.974c-.265.083-.434.084-.483.048-.024-.017-.091-.17.02-.595a2.834,2.834,0,0,1,.6-.926,2.525,2.525,0,0,0-.25,1.225.37.37,0,0,0,.116.248M-1.176-.414A2.2,2.2,0,0,0-1.754-.92,1.035,1.035,0,0,1-.8,0c.011.083.01.175.017.261a2.532,2.532,0,0,0-.393-.675" fill="#2b2e34"/>
      </g>
    </g>
  </g>
</svg>
