<svg xmlns="http://www.w3.org/2000/svg" width="6.602" height="11.867" viewBox="0 0 6.602 11.867">
  <path id="ponto_interrogacao" d="M7.852,7.1a3.243,3.243,0,0,1-.273,1.363,3.765,3.765,0,0,1-.719,1.059,6.768,6.768,0,0,1-1.008.836q-.57.391-1.211.758v1.758h-1.4V10.492q.508-.289,1.1-.633a5.349,5.349,0,0,0,.965-.7,3.475,3.475,0,0,0,.7-.84,2.191,2.191,0,0,0,.25-1.105A1.519,1.519,0,0,0,5.66,5.9a2.564,2.564,0,0,0-1.543-.434,4.773,4.773,0,0,0-1.6.266,6.16,6.16,0,0,0-1.191.539H1.25V4.68A8.645,8.645,0,0,1,2.637,4.3a8.119,8.119,0,0,1,1.59-.168,4,4,0,0,1,2.652.816A2.672,2.672,0,0,1,7.852,7.1ZM4.766,16H3.172V14.352H4.766Z" transform="translate(-1.25 -4.133)"/>
</svg>
