<svg xmlns="http://www.w3.org/2000/svg" xmlns:xlink="http://www.w3.org/1999/xlink" width="23.979" height="6.506" viewBox="0 0 23.979 6.506">
  <defs>
    <clipPath id="clip-path">
      <path id="Caminho_461" data-name="Caminho 461" d="M0,0H23.979V-6.506H0Z" fill="none"/>
    </clipPath>
  </defs>
  <g id="seta_rosa_por" transform="translate(0 6.506)">
    <g id="Grupo_576" data-name="Grupo 576" clip-path="url(#clip-path)">
      <g id="Grupo_573" data-name="Grupo 573" transform="translate(16.104 -0.4)">
        <path id="Caminho_458" data-name="Caminho 458" d="M0,0C1.536-.535,3.04-1.154,4.553-1.764c-.2.082,2.739-.881,2.774-1.346C5.941-4.3,3.663-4.5,2.28-5.706" fill="none" stroke="#ff5872" stroke-linecap="round" stroke-linejoin="round" stroke-width="0.8"/>
      </g>
      <g id="Grupo_574" data-name="Grupo 574" transform="translate(18.343 -5.462)">
        <path id="Caminho_459" data-name="Caminho 459" d="M0,0A6.374,6.374,0,0,0-1.043,2c-.182.537-.955,1.91-.2,2.213.686-.406.605-1.3.955-1.924C-.163,2.075.809.312,1.049.344A4.531,4.531,0,0,1,.736,2.223C.58,2.545.248,3.014.409,3.367c.324.031.7-.5.83-.683.314-.459.418-1.142.959-1.46.372.232-.025,1.046.048,1.424.567.022.9-.827,1.422-.976a1.353,1.353,0,0,1,.249.418" fill="none" stroke="#ff5872" stroke-linecap="round" stroke-linejoin="round" stroke-width="0.8"/>
      </g>
      <g id="Grupo_575" data-name="Grupo 575" transform="translate(16.997 -3.685)">
        <path id="Caminho_460" data-name="Caminho 460" d="M0,0H-17" fill="none" stroke="#ff5872" stroke-width="1"/>
      </g>
    </g>
  </g>
</svg>
