<svg xmlns="http://www.w3.org/2000/svg" xmlns:xlink="http://www.w3.org/1999/xlink" width="20.555" height="7.249" viewBox="0 0 20.555 7.249">
  <defs>
    <clipPath id="clip-path">
      <path id="Caminho_392" data-name="Caminho 392" d="M0,0H20.555V-7.249H0Z" fill="none"/>
    </clipPath>
  </defs>
  <g id="seta_amarela_por" transform="translate(0 7.249)">
    <g id="Grupo_502" data-name="Grupo 502" clip-path="url(#clip-path)">
      <g id="Grupo_499" data-name="Grupo 499" transform="translate(12.389 -6.849)">
        <path id="Caminho_389" data-name="Caminho 389" d="M0,0C1.607.718,3.171,1.526,4.746,2.326c-.213-.108,2.873,1.2,2.863,1.714C5.984,5.221,3.5,5.247,1.873,6.449" fill="none" stroke="#ffc734" stroke-linecap="round" stroke-linejoin="round" stroke-width="0.8"/>
      </g>
      <g id="Grupo_500" data-name="Grupo 500" transform="translate(14.279 -1.102)">
        <path id="Caminho_390" data-name="Caminho 390" d="M0,0A6.933,6.933,0,0,1-.921-2.289C-1.062-2.9-1.755-4.472-.9-4.741c.7.506.519,1.485.834,2.2C.042-2.3.911-.274,1.175-.289a5.029,5.029,0,0,0-.141-2.094C.9-2.75.588-3.3.8-3.67c.355-.006.71.606.829.823.292.532.333,1.292.887,1.688.429-.223.084-1.153.2-1.563.617.024.893.988,1.44,1.2a1.537,1.537,0,0,0,.315-.439" fill="none" stroke="#ffc734" stroke-linecap="round" stroke-linejoin="round" stroke-width="0.8"/>
      </g>
      <g id="Grupo_501" data-name="Grupo 501" transform="translate(13.085 -3.265)">
        <path id="Caminho_391" data-name="Caminho 391" d="M0,0H-12.685" fill="none" stroke="#ffc734" stroke-linecap="round" stroke-linejoin="round" stroke-width="0.8"/>
      </g>
    </g>
  </g>
</svg>
